<?xml version="1.0" encoding="utf-8"?>
<!-- Generator: Adobe Illustrator 16.0.0, SVG Export Plug-In . SVG Version: 6.00 Build 0)  -->
<!DOCTYPE svg PUBLIC "-//W3C//DTD SVG 1.1//EN" "http://www.w3.org/Graphics/SVG/1.1/DTD/svg11.dtd">
<svg version="1.1" id="Layer_1" xmlns="http://www.w3.org/2000/svg" xmlns:xlink="http://www.w3.org/1999/xlink" x="0px" y="0px"
	 width="50px" height="50px" viewBox="0 0 50 50" enable-background="new 0 0 50 50" xml:space="preserve">
<g>
	<circle fill="#1974D8" cx="25" cy="25" r="25"/>
	<path fill="#FFFFFF" d="M39.354,18.292l-3.169-5.059c-0.283-0.455-0.786-0.732-1.323-0.732H15.136c-0.537,0-1.04,0.277-1.323,0.732
		l-3.169,5.059c-1.636,2.611-0.186,6.244,2.871,6.66c0.22,0.029,0.444,0.043,0.669,0.043c1.445,0,2.725-0.635,3.604-1.615
		c0.879,0.98,2.163,1.615,3.604,1.615c1.445,0,2.725-0.635,3.604-1.615c0.879,0.98,2.163,1.615,3.604,1.615
		c1.445,0,2.725-0.635,3.604-1.615c0.884,0.98,2.163,1.615,3.604,1.615c0.229,0,0.449-0.014,0.669-0.043
		C39.54,24.542,40.995,20.909,39.354,18.292z M35.814,26.563c-0.488,0-0.972-0.074-1.44-0.186v4.873h-18.75v-4.873
		c-0.469,0.107-0.952,0.186-1.44,0.186c-0.293,0-0.591-0.02-0.879-0.059c-0.273-0.039-0.542-0.104-0.801-0.176v9.609
		c0,0.863,0.698,1.563,1.563,1.563h21.875c0.864,0,1.563-0.699,1.563-1.563v-9.609c-0.264,0.078-0.527,0.141-0.801,0.176
		C36.405,26.543,36.112,26.563,35.814,26.563L35.814,26.563z"/>
</g>
</svg>
