<?xml version="1.0" standalone="no"?>
<!DOCTYPE svg PUBLIC "-//W3C//DTD SVG 20010904//EN"
 "http://www.w3.org/TR/2001/REC-SVG-20010904/DTD/svg10.dtd">
<svg version="1.0" xmlns="http://www.w3.org/2000/svg"
 width="500.000000pt" height="500.000000pt" viewBox="0 0 500.000000 500.000000"
 preserveAspectRatio="xMidYMid meet">
<metadata>
Created by potrace 1.11, written by Peter Selinger 2001-2013
</metadata>
<g transform="translate(0.000000,500.000000) scale(0.100000,-0.100000)"
fill="#000000" stroke="none">
<path d="M0 2500 l0 -2500 2500 0 2500 0 0 2500 0 2500 -2500 0 -2500 0 0
-2500z m4870 0 l0 -2380 -2370 0 -2370 0 0 2380 0 2380 2370 0 2370 0 0 -2380z"/>
<path d="M250 2495 l0 -2255 2250 0 2250 0 0 2255 0 2255 -2250 0 -2250 0 0
-2255z m1730 430 c0 -481 4 -731 11 -767 47 -228 243 -356 489 -320 179 26
294 130 335 304 12 53 15 183 15 781 l0 717 341 0 341 0 -5 -737 c-3 -630 -6
-751 -20 -830 -72 -399 -277 -653 -620 -767 -154 -51 -233 -61 -477 -61 -209
1 -233 3 -338 27 -199 47 -340 119 -457 233 -168 162 -259 376 -285 665 -5 64
-10 417 -10 793 l0 677 340 0 340 0 0 -715z"/>
</g>
</svg>
