<?xml version="1.0" encoding="utf-8"?>
<!-- Generator: Adobe Illustrator 16.0.0, SVG Export Plug-In . SVG Version: 6.00 Build 0)  -->
<!DOCTYPE svg PUBLIC "-//W3C//DTD SVG 1.1//EN" "http://www.w3.org/Graphics/SVG/1.1/DTD/svg11.dtd">
<svg version="1.1" id="Layer_1" xmlns="http://www.w3.org/2000/svg" xmlns:xlink="http://www.w3.org/1999/xlink" x="0px" y="0px"
	 width="20px" height="20px" viewBox="0 0 20 20" enable-background="new 0 0 20 20" xml:space="preserve">
<g>
	<path fill="#999999" d="M18.299,5.102l-1.917,0.513c-0.538-0.785-1.218-1.464-2.002-2.002l0.513-1.917
		c0.061-0.221-0.043-0.448-0.242-0.557C13.318,0.44,11.86,0.06,10.392,0c-0.226-0.009-0.431,0.14-0.487,0.356L9.39,2.274
		C8.439,2.346,7.512,2.594,6.653,3.007l-1.4-1.4C5.094,1.448,4.841,1.418,4.651,1.542C3.37,2.354,2.309,3.439,1.536,4.657
		c-0.123,0.19-0.094,0.442,0.065,0.602l1.403,1.403c-0.407,0.86-0.656,1.786-0.733,2.736L0.357,9.909
		c-0.22,0.06-0.369,0.26-0.357,0.488c0.057,1.466,0.436,2.925,1.139,4.261c0.105,0.202,0.336,0.301,0.556,0.242l1.917-0.515
		c0.541,0.785,1.218,1.463,2.003,2.004l-0.514,1.917c-0.059,0.219,0.043,0.447,0.242,0.556C6.677,19.561,8.135,19.94,9.604,20
		c0.225,0.008,0.431-0.14,0.487-0.356l0.513-1.918c0.95-0.07,1.878-0.319,2.736-0.732l1.403,1.403
		c0.16,0.159,0.411,0.188,0.602,0.065c1.282-0.813,2.344-1.897,3.116-3.115c0.122-0.191,0.094-0.442-0.065-0.602l-1.403-1.403
		c0.407-0.86,0.656-1.786,0.733-2.738l1.917-0.513c0.22-0.06,0.367-0.26,0.355-0.489c-0.056-1.466-0.436-2.924-1.137-4.258
		C18.747,5.145,18.519,5.041,18.299,5.102z M12.277,12.283c-1.258,1.259-3.307,1.259-4.565,0c-1.258-1.258-1.258-3.307,0-4.565
		c1.259-1.258,3.307-1.258,4.565,0C13.535,8.976,13.535,11.024,12.277,12.283z"/>
</g>
</svg>
