<?xml version="1.0" encoding="utf-8"?>
<!-- Generator: Adobe Illustrator 16.0.0, SVG Export Plug-In . SVG Version: 6.00 Build 0)  -->
<!DOCTYPE svg PUBLIC "-//W3C//DTD SVG 1.1//EN" "http://www.w3.org/Graphics/SVG/1.1/DTD/svg11.dtd">
<svg version="1.1" id="Layer_1" xmlns="http://www.w3.org/2000/svg" xmlns:xlink="http://www.w3.org/1999/xlink" x="0px" y="0px"
	 width="40px" height="40px" viewBox="0 0 40 40" enable-background="new 0 0 40 40" xml:space="preserve">
<path fill="#1974D8" d="M20,0C8.954,0,0,8.955,0,20c0,5.766,2.453,10.945,6.356,14.595c2.362-5.183,7.576-8.792,13.645-8.792
	c6.063,0,11.278,3.609,13.644,8.793C37.546,30.945,40,25.766,40,20C40,8.955,31.046,0,20,0z M20,23.803c-4.142,0-7.5-3.357-7.5-7.5
	c0-4.142,3.358-7.5,7.5-7.5c4.143,0,7.5,3.358,7.5,7.5C27.5,20.445,24.143,23.803,20,23.803z"/>
<circle fill="#FFFFFF" cx="20" cy="16.303" r="7.5"/>
<path fill="#FFFFFF" d="M20.001,25.803c-6.069,0-11.283,3.609-13.645,8.792c-0.93-0.869-1.774-1.827-2.525-2.857
	C7.466,36.736,13.345,40,20,40c5.281,0,10.069-2.062,13.645-5.405C31.278,29.412,26.064,25.803,20.001,25.803z"/>
</svg>
