<?xml version="1.0" encoding="utf-8"?>
<!-- Generator: Adobe Illustrator 16.0.0, SVG Export Plug-In . SVG Version: 6.00 Build 0)  -->
<!DOCTYPE svg PUBLIC "-//W3C//DTD SVG 1.1//EN" "http://www.w3.org/Graphics/SVG/1.1/DTD/svg11.dtd">
<svg version="1.1" id="Layer_1" xmlns="http://www.w3.org/2000/svg" xmlns:xlink="http://www.w3.org/1999/xlink" x="0px" y="0px"
	 width="40px" height="40px" viewBox="0 0 40 40" enable-background="new 0 0 40 40" xml:space="preserve">
<rect fill="none" width="40" height="40"/>
<path fill="#FFFFFF" d="M30.714,15.09v16.07c0,0.74-0.6,1.34-1.339,1.34h-18.75c-0.739,0-1.339-0.6-1.339-1.34V8.84
	c0-0.74,0.6-1.34,1.339-1.34h12.5c0.739,0,1.771,0.433,2.288,0.949l4.353,4.352C30.282,13.317,30.714,14.35,30.714,15.09z"/>
<g>
	<path fill="#1974D8" d="M30.714,15.09v16.07c0,0.74-0.6,1.34-1.339,1.34h-18.75c-0.739,0-1.339-0.6-1.339-1.34V8.84
		c0-0.74,0.6-1.34,1.339-1.34h12.5c0.739,0,1.771,0.433,2.288,0.949l4.353,4.352C30.282,13.317,30.714,14.35,30.714,15.09z
		 M28.929,16.429h-5.804c-0.739,0-1.339-0.601-1.339-1.339V9.285H11.071v21.43h17.857V16.429z M22.93,23.223
		c0.586-0.07,1.13-0.098,1.632-0.098c0.936,0,2.121,0.111,2.47,0.684c0.098,0.14,0.181,0.391,0.028,0.726
		c-0.015,0.014-0.028,0.042-0.043,0.056v0.014c-0.041,0.252-0.25,0.53-0.99,0.53c-0.893,0-2.246-0.404-3.418-1.019
		c-1.939,0.209-3.976,0.643-5.469,1.158c-1.437,2.455-2.539,3.655-3.376,3.655c-0.14,0-0.265-0.028-0.391-0.098l-0.335-0.167
		c-0.041-0.015-0.056-0.043-0.084-0.07c-0.069-0.07-0.125-0.223-0.083-0.502c0.14-0.643,0.893-1.717,2.622-2.623
		c0.112-0.07,0.252-0.027,0.321,0.084c0.015,0.014,0.028,0.041,0.028,0.056c0.432-0.712,0.935-1.618,1.492-2.749
		c0.628-1.255,1.116-2.482,1.451-3.654c-0.446-1.521-0.586-3.084-0.335-4.004c0.098-0.35,0.308-0.559,0.586-0.559h0.293h0.015
		c0.209,0,0.376,0.07,0.488,0.209c0.167,0.195,0.209,0.503,0.125,0.949c-0.014,0.042-0.027,0.084-0.056,0.111
		c0.014,0.042,0.014,0.07,0.014,0.111c0,0.141,0,0.279,0,0.419c-0.014,0.879-0.028,1.716-0.195,2.679
		c0.488,1.465,1.214,2.65,2.037,3.32C22.106,22.721,22.497,22.972,22.93,23.223z M15.634,25.971c-1.047,0.81-1.703,1.73-1.912,2.205
		C14.141,27.98,14.74,27.38,15.634,25.971z M21.507,23.432c-0.14-0.111-0.279-0.209-0.404-0.32c-0.684-0.6-1.298-1.438-1.772-2.455
		c-0.265,0.851-0.655,1.758-1.157,2.748c-0.21,0.391-0.419,0.781-0.629,1.158C18.772,24.074,20.14,23.684,21.507,23.432z
		 M19.247,17.182c0.041-0.223,0.069-0.432,0.098-0.613c0.027-0.237,0.069-0.433,0.098-0.6c0.014-0.043,0.027-0.07,0.055-0.112
		c-0.014-0.014-0.014-0.042-0.027-0.069c-0.014-0.252-0.098-0.404-0.182-0.502c0,0.027-0.014,0.041-0.014,0.055
		C19.135,15.73,19.135,16.4,19.247,17.182z M23.571,14.643h5.246c-0.084-0.236-0.21-0.475-0.308-0.572l-4.366-4.366
		c-0.098-0.098-0.335-0.224-0.572-0.307V14.643z M24.604,24.004c0.684,0.251,1.312,0.391,1.729,0.391c0.126,0,0.195,0,0.252-0.014
		c0-0.014-0.014-0.028-0.028-0.042C26.487,24.27,26.124,24.004,24.604,24.004z"/>
</g>
</svg>
