<?xml version="1.0" encoding="utf-8"?>
<!-- Generator: Adobe Illustrator 16.0.0, SVG Export Plug-In . SVG Version: 6.00 Build 0)  -->
<!DOCTYPE svg PUBLIC "-//W3C//DTD SVG 1.1//EN" "http://www.w3.org/Graphics/SVG/1.1/DTD/svg11.dtd">
<svg version="1.1" id="Layer_1" xmlns="http://www.w3.org/2000/svg" xmlns:xlink="http://www.w3.org/1999/xlink" x="0px" y="0px"
	 width="55px" height="75px" viewBox="0 0 55 75" enable-background="new 0 0 55 75" xml:space="preserve">
<g>
	<path fill="#FFFFFF" d="M36.282,11.706c-5.758,0.697-10.877,3.451-14.23,6.818c1.203-2.42,2.911-4.694,5.13-6.536
		c2.04-1.667,2.292-4.649,0.583-6.662c-1.666-2.042-4.648-2.293-6.662-0.584c-3.788,3.146-6.562,7.047-8.381,11.334
		c0.071-2.807,0.582-5.662,1.433-8.443c0.791-2.509-0.563-5.16-3.072-5.954C8.616,0.859,5.923,2.241,5.131,4.749
		c-3.168,9.855-2.346,20.43,2.208,29.599L8.34,49.392L2.847,59.924c-0.751,1.48-0.217,3.311,1.235,4.197l15.2,9.006
		c1.396,0.828,3.369,0.467,4.319-1.137l6.714-11.375c0,0,14.86-7.753,14.945-7.807c5.104-3.289,7.87-9.302,7.1-15.327
		c-0.441-3.507-4.439-5.189-7.191-3.415c2.758-1.779,2.867-6.113-0.138-7.962c-5.044-3.115-11.289-3.42-17.653,0.682
		c2.371-3.075,6.035-5.214,10.045-5.651c2.567-0.303,4.44-2.685,4.138-5.251C41.273,13.25,38.917,11.418,36.282,11.706z
		 M33.273,34.208c2.077-1.338,4.653-1.351,6.77-0.071c1.572,0.983,3.478,0.931,4.959,0.037c-1.427,0.977-2.263,2.689-2.017,4.529
		c0.291,2.457-0.789,4.796-2.862,6.135c-2.653,1.709-6.676,1.31-8.738-1.893c-0.008-0.01-0.015-0.02-0.022-0.031
		C29.487,39.982,30.343,36.085,33.273,34.208z"/>
	<path fill="#1974D8" d="M20.872,75c-0.824,0-1.627-0.219-2.325-0.633l-15.2-9.006c-2.096-1.276-2.873-3.947-1.788-6.089
		l5.315-10.188L5.921,34.729C1.274,25.215,0.507,14.422,3.757,4.308C4.57,1.734,6.93,0,9.626,0c0.648,0,1.291,0.104,1.911,0.311
		c3.221,1.017,5.02,4.5,3.994,7.755c-0.063,0.199-0.121,0.398-0.178,0.597c1.409-1.849,3.021-3.53,4.829-5.031
		c1.107-0.94,2.524-1.464,3.979-1.464c1.836,0,3.556,0.818,4.722,2.246c1.069,1.257,1.583,2.872,1.433,4.526
		c-0.111,1.201-0.564,2.317-1.303,3.238c2.258-0.955,4.659-1.608,7.096-1.904c0.253-0.027,0.486-0.039,0.718-0.039
		c3.174,0,5.826,2.361,6.167,5.494c0.191,1.611-0.269,3.223-1.293,4.523c-0.818,1.039-1.913,1.773-3.146,2.124
		c2.521,0.251,4.947,1.089,7.233,2.503c1.804,1.107,2.894,3.045,2.917,5.179c0.004,0.66-0.086,1.302-0.271,1.906
		c2.767,0.362,5.005,2.537,5.357,5.337c0.843,6.58-2.2,13.144-7.75,16.721c-0.075,0.048-0.142,0.09-14.693,7.682l-6.504,11.02
		C24,74.149,22.515,75,20.872,75z M9.626,2.884c-1.41,0-2.692,0.945-3.119,2.299c-3.055,9.495-2.298,19.623,2.126,28.524
		l0.127,0.258L9.806,49.7L4.124,60.591c-0.4,0.794-0.096,1.81,0.709,2.299l15.185,8.997c0.254,0.15,0.548,0.229,0.854,0.229
		c0.293,0,1.029-0.084,1.488-0.86l6.922-11.728l0.366-0.19c3.938-2.056,14.104-7.36,14.876-7.771
		c4.592-2.984,7.105-8.435,6.404-13.901c-0.234-1.866-1.881-2.87-3.313-2.87c-0.596,0-1.173,0.166-1.661,0.48
		c-0.002,0.001-0.004,0.002-0.006,0.003l0,0l-1.563-2.425c0.908-0.585,1.444-1.62,1.432-2.767c-0.013-1.154-0.574-2.158-1.544-2.753
		c-4.957-3.063-10.671-2.845-16.116,0.664l-7.042,4.538l5.118-6.631c2.68-3.471,6.7-5.731,11.032-6.204
		c0.845-0.099,1.621-0.538,2.168-1.234c0.549-0.697,0.794-1.554,0.695-2.413c-0.199-1.805-1.832-3.121-3.69-2.915
		c-4.972,0.603-9.975,2.996-13.364,6.401l-6.263,6.292l3.948-7.95c1.368-2.756,3.22-5.113,5.501-7.005
		c0.687-0.56,1.102-1.338,1.18-2.201c0.081-0.876-0.195-1.736-0.775-2.418c-0.633-0.774-1.54-1.207-2.505-1.207
		c-0.771,0-1.525,0.279-2.123,0.789c-3.494,2.899-6.177,6.529-7.988,10.798l-2.964,6.977l0.193-7.578
		c0.071-2.852,0.577-5.823,1.496-8.83c0.562-1.781-0.374-3.601-2.128-4.155C10.304,2.939,9.965,2.884,9.626,2.884z M36.675,47.276
		c-2.681,0-5.049-1.294-6.502-3.549c-2.327-3.633-1.272-8.432,2.324-10.734c2.476-1.594,5.742-1.631,8.293-0.09
		c1.079,0.676,2.423,0.667,3.466,0.037l1.562,2.424c-1.031,0.706-1.569,1.912-1.403,3.148c0.358,3.032-0.987,5.911-3.511,7.538
		C39.657,46.854,38.195,47.276,36.675,47.276z M36.7,34.632c-0.931,0-1.844,0.273-2.645,0.789c-2.262,1.446-2.922,4.458-1.477,6.715
		c0.93,1.444,2.417,2.257,4.096,2.257c0.952,0,1.898-0.273,2.665-0.768c1.613-1.041,2.441-2.816,2.213-4.752
		c-0.119-0.897-0.039-1.789,0.217-2.621c-0.88-0.113-1.728-0.416-2.492-0.893C38.498,34.888,37.6,34.632,36.7,34.632z"/>
</g>
<rect x="45.024" y="32.667" transform="matrix(0.8387 -0.5445 0.5445 0.8387 -11.3003 30.061)" fill="#1974D8" width="0.156" height="2.883"/>
</svg>
