<?xml version="1.0" encoding="utf-8"?>
<!-- Generator: Adobe Illustrator 16.0.0, SVG Export Plug-In . SVG Version: 6.00 Build 0)  -->
<!DOCTYPE svg PUBLIC "-//W3C//DTD SVG 1.1//EN" "http://www.w3.org/Graphics/SVG/1.1/DTD/svg11.dtd">
<svg version="1.1" id="Layer_1" xmlns="http://www.w3.org/2000/svg" xmlns:xlink="http://www.w3.org/1999/xlink" x="0px" y="0px"
	 width="40px" height="40px" viewBox="0 0 40 40" enable-background="new 0 0 40 40" xml:space="preserve">
<g>
	<g>
		<g>
			<path fill="#FFFFFF" d="M34.995,24.688h-0.781l0.929-5.278c0.11-0.621-0.035-1.216-0.395-1.656l-4.02-4.878
				c-0.361-0.439-0.912-0.688-1.533-0.688h-2.153l0.413-2.344C27.683,8.55,26.819,7.5,25.525,7.5H9.9
				c-1.294,0-2.53,1.05-2.758,2.344L4.387,25.469c-0.227,1.294,0.637,2.344,1.931,2.344h0.781C6.643,30.4,8.371,32.5,10.959,32.5
				s5.059-2.1,5.515-4.688h6.25c-0.456,2.588,1.272,4.688,3.86,4.688s5.059-2.1,5.515-4.688h2.344c0.431,0,0.843-0.352,0.92-0.781
				l0.274-1.563C35.712,25.039,35.424,24.688,34.995,24.688z"/>
			<path fill="#1974D8" d="M26.584,33.5c-1.538,0-2.894-0.605-3.816-1.704c-0.699-0.834-1.08-1.865-1.115-2.983h-4.401
				c-0.868,2.649-3.525,4.688-6.292,4.688c-1.539,0-2.894-0.605-3.816-1.704C6.441,30.959,6.06,29.923,6.027,28.8
				c-0.799-0.068-1.501-0.424-1.999-1.017c-0.558-0.665-0.787-1.571-0.626-2.487L6.158,9.67C6.47,7.893,8.114,6.5,9.9,6.5h15.625
				c0.919,0,1.732,0.366,2.29,1.03s0.785,1.571,0.625,2.487l-0.207,1.17h0.962c0.915,0,1.756,0.384,2.306,1.053l4.019,4.878
				c0.547,0.668,0.768,1.566,0.607,2.467l-0.73,4.149c0.34,0.082,0.646,0.267,0.869,0.534c0.313,0.373,0.443,0.873,0.356,1.373
				l-0.274,1.563c-0.165,0.919-0.984,1.608-1.905,1.608h-1.566C32.008,31.462,29.351,33.5,26.584,33.5z M15.634,26.813h8.281
				l-0.207,1.174c-0.17,0.969,0.04,1.865,0.592,2.523c0.536,0.639,1.347,0.99,2.284,0.99c2.087,0,4.161-1.769,4.53-3.861
				l0.146-0.826h3.183l0.155-1.125h-1.575l1.135-6.451c0.06-0.332-0.006-0.632-0.184-0.849l-4.017-4.876
				c-0.172-0.209-0.442-0.324-0.762-0.324h-3.345l0.62-3.517c0.059-0.337-0.008-0.641-0.188-0.854
				C26.11,8.609,25.848,8.5,25.525,8.5H9.9c-0.802,0-1.631,0.709-1.773,1.517L5.372,25.643c-0.059,0.336,0.008,0.64,0.188,0.854
				c0.174,0.207,0.436,0.316,0.758,0.316H8.29l-0.207,1.174c-0.171,0.969,0.039,1.865,0.591,2.523
				c0.536,0.639,1.347,0.99,2.284,0.99c2.086,0,4.161-1.769,4.53-3.861L15.634,26.813z"/>
		</g>
		<g>
			<path fill="#1974D8" d="M11.373,30.156c-1.295,0-2.158-1.05-1.931-2.344s1.464-2.344,2.757-2.344c1.295,0,2.158,1.05,1.931,2.344
				S12.666,30.156,11.373,30.156z"/>
		</g>
		<g>
			<path fill="#1974D8" d="M26.998,30.156c-1.295,0-2.158-1.05-1.931-2.344s1.464-2.344,2.757-2.344c1.295,0,2.158,1.05,1.931,2.344
				S28.291,30.156,26.998,30.156z"/>
		</g>
		<g>
			<polygon fill="#1974D8" points="32.695,20 25.664,20 26.629,14.531 28.781,14.531 32.799,19.41 			"/>
		</g>
	</g>
</g>
<rect fill="none" width="40" height="40"/>
</svg>
