<?xml version="1.0" encoding="utf-8"?>
<!-- Generator: Adobe Illustrator 16.0.0, SVG Export Plug-In . SVG Version: 6.00 Build 0)  -->
<!DOCTYPE svg PUBLIC "-//W3C//DTD SVG 1.1//EN" "http://www.w3.org/Graphics/SVG/1.1/DTD/svg11.dtd">
<svg version="1.1" id="Layer_1" xmlns="http://www.w3.org/2000/svg" xmlns:xlink="http://www.w3.org/1999/xlink" x="0px" y="0px"
	 width="55px" height="30px" viewBox="0 0 55 30" enable-background="new 0 0 55 30" xml:space="preserve">
<g>
	<rect fill="none" width="55" height="30"/>
	<path fill="#FFFFFF" d="M44.903,17.625c0.189,0.189,0.189,0.496,0,0.686l-1.597,1.593c-0.189,0.189-0.496,0.189-0.686,0L40,17.258
		l-2.625,2.646c-0.189,0.189-0.496,0.189-0.686,0l-1.593-1.597c-0.189-0.189-0.189-0.496,0-0.686L37.742,15l-2.646-2.625
		c-0.189-0.189-0.189-0.496,0-0.686l1.597-1.597c0.189-0.189,0.496-0.189,0.686,0L40,12.742l2.625-2.646
		c0.189-0.189,0.496-0.189,0.686,0l1.597,1.597c0.189,0.189,0.189,0.496,0,0.686L42.258,15L44.903,17.625z"/>
	<path fill="#FFFFFF" d="M13.844,19.622l7.419-7.419c0.252-0.252,0.252-0.66,0-0.912l-0.912-0.913c-0.252-0.252-0.661-0.252-0.913,0
		l-6.051,6.051l-2.824-2.825c-0.252-0.252-0.661-0.252-0.913,0l-0.912,0.913c-0.252,0.252-0.252,0.661,0,0.913l4.193,4.193
		C13.183,19.874,13.592,19.874,13.844,19.622L13.844,19.622z"/>
</g>
</svg>
