<?xml version="1.0" encoding="utf-8"?>
<!-- Generator: Adobe Illustrator 16.0.0, SVG Export Plug-In . SVG Version: 6.00 Build 0)  -->
<!DOCTYPE svg PUBLIC "-//W3C//DTD SVG 1.1//EN" "http://www.w3.org/Graphics/SVG/1.1/DTD/svg11.dtd">
<svg version="1.1" id="Layer_1" xmlns="http://www.w3.org/2000/svg" xmlns:xlink="http://www.w3.org/1999/xlink" x="0px" y="0px"
	 width="40px" height="40px" viewBox="0 0 40 40" enable-background="new 0 0 40 40" xml:space="preserve">
<g>
	<circle fill="#1974D8" cx="20" cy="20" r="20"/>
	<path fill="#FFFFFF" d="M20,30c1.38,0,2.499-1.119,2.499-2.5h-4.998C17.501,28.881,18.62,30,20,30z M28.413,24.151
		c-0.754-0.811-2.166-2.03-2.166-6.026c0-3.035-2.129-5.465-4.998-6.062V11.25c0-0.69-0.56-1.25-1.249-1.25
		c-0.69,0-1.249,0.56-1.249,1.25v0.813c-2.87,0.597-4.998,3.026-4.998,6.062c0,3.996-1.412,5.216-2.167,6.026
		c-0.233,0.252-0.338,0.554-0.336,0.849c0.004,0.641,0.507,1.25,1.254,1.25h14.992c0.747,0,1.25-0.609,1.254-1.25
		C28.752,24.705,28.647,24.403,28.413,24.151z"/>
</g>
</svg>
