<?xml version="1.0" encoding="utf-8"?>
<!-- Generator: Adobe Illustrator 16.0.0, SVG Export Plug-In . SVG Version: 6.00 Build 0)  -->
<!DOCTYPE svg PUBLIC "-//W3C//DTD SVG 1.1//EN" "http://www.w3.org/Graphics/SVG/1.1/DTD/svg11.dtd">
<svg version="1.1" id="Camada_1" xmlns="http://www.w3.org/2000/svg" xmlns:xlink="http://www.w3.org/1999/xlink" x="0px" y="0px"
	 width="625.541px" height="46px" viewBox="103.193 0 625.541 46" enable-background="new 103.193 0 625.541 46"
	 xml:space="preserve">
<g>
	<g>
		<path fill="#777C7F" d="M357.413,40.758l9.771-8.295c0.975-0.811,1.797-1.545,2.472-2.205c0.678-0.664,1.223-1.289,1.642-1.883
			c0.42-0.594,0.723-1.176,0.911-1.74c0.191-0.564,0.285-1.174,0.285-1.822c0-1.399-0.438-2.485-1.317-3.254
			c-0.877-0.771-1.966-1.152-3.263-1.152c-1.296,0-2.44,0.35-3.426,1.053c-0.986,0.703-2.032,1.77-3.142,3.204l-3.527-2.756
			c0.675-0.947,1.363-1.797,2.068-2.547c0.701-0.75,1.465-1.377,2.289-1.879c0.823-0.506,1.73-0.896,2.719-1.168
			c0.982-0.271,2.113-0.408,3.383-0.408c1.378,0,2.642,0.199,3.792,0.607c1.147,0.404,2.134,0.979,2.958,1.723
			c0.824,0.744,1.467,1.639,1.927,2.678c0.458,1.041,0.688,2.195,0.688,3.467v0.08c0,1.106-0.149,2.115-0.446,3.021
			c-0.298,0.906-0.75,1.776-1.356,2.613c-0.609,0.842-1.38,1.686-2.313,2.532c-0.932,0.853-2.021,1.793-3.266,2.819l-5.836,4.863
			h13.5v4.375h-20.515L357.413,40.758L357.413,40.758z"/>
		<path fill="#777C7F" d="M395.035,44.684c-2.189,0-4.19-0.383-6-1.152c-1.812-0.77-3.365-1.814-4.664-3.145
			c-1.296-1.322-2.31-2.869-3.04-4.641c-0.729-1.771-1.094-3.656-1.094-5.656v-0.08c0-2,0.365-3.887,1.094-5.656
			c0.73-1.77,1.758-3.323,3.081-4.663c1.325-1.338,2.892-2.396,4.705-3.182c1.81-0.783,3.809-1.176,5.999-1.176
			c2.191,0,4.187,0.385,6,1.156c1.813,0.77,3.365,1.814,4.662,3.141c1.299,1.324,2.311,2.871,3.043,4.642
			c0.729,1.771,1.094,3.656,1.094,5.658v0.079c0,2.001-0.365,3.886-1.094,5.654c-0.732,1.771-1.758,3.325-3.082,4.662
			c-1.324,1.34-2.896,2.397-4.703,3.182C399.226,44.293,397.226,44.684,395.035,44.684 M395.117,40.105
			c1.4,0,2.684-0.266,3.856-0.793c1.168-0.525,2.172-1.24,3.006-2.146s1.485-1.967,1.957-3.184c0.473-1.217,0.707-2.514,0.707-3.896
			v-0.08c0-1.379-0.234-2.682-0.707-3.91c-0.472-1.229-1.129-2.301-1.979-3.205c-0.848-0.905-1.863-1.629-3.045-2.168
			c-1.186-0.541-2.477-0.812-3.876-0.812c-1.4,0-2.684,0.263-3.855,0.787c-1.17,0.528-2.172,1.244-3.006,2.149
			c-0.834,0.904-1.488,1.967-1.959,3.184c-0.47,1.216-0.707,2.515-0.707,3.894v0.08c0,1.377,0.237,2.685,0.707,3.91
			c0.471,1.233,1.131,2.299,1.978,3.205c0.85,0.903,1.864,1.629,3.051,2.168C392.424,39.832,393.715,40.105,395.117,40.105"/>
		<path fill="#777C7F" d="M411.858,40.758l9.771-8.295c0.974-0.811,1.793-1.545,2.474-2.205c0.68-0.664,1.227-1.289,1.645-1.883
			s0.723-1.176,0.912-1.74c0.188-0.564,0.283-1.174,0.283-1.822c0-1.399-0.439-2.485-1.318-3.254
			c-0.879-0.771-1.965-1.152-3.262-1.152c-1.3,0-2.441,0.35-3.426,1.053c-0.986,0.703-2.035,1.77-3.144,3.204l-3.529-2.756
			c0.681-0.947,1.363-1.797,2.068-2.547c0.703-0.75,1.467-1.377,2.291-1.879c0.824-0.506,1.73-0.896,2.717-1.168
			c0.984-0.271,2.113-0.408,3.383-0.408c1.382,0,2.646,0.199,3.791,0.607c1.148,0.404,2.142,0.979,2.959,1.723
			c0.826,0.744,1.47,1.639,1.931,2.678c0.461,1.041,0.688,2.195,0.688,3.467v0.08c0,1.106-0.146,2.115-0.444,3.021
			c-0.302,0.906-0.755,1.776-1.357,2.613c-0.605,0.842-1.377,1.686-2.311,2.532c-0.938,0.853-2.021,1.793-3.267,2.819l-5.84,4.863
			h13.5v4.375h-20.514L411.858,40.758L411.858,40.758L411.858,40.758z"/>
		<path fill="#777C7F" d="M449.481,44.684c-2.189,0-4.189-0.383-6-1.152c-1.813-0.77-3.365-1.814-4.662-3.145
			c-1.301-1.322-2.313-2.869-3.039-4.641c-0.73-1.771-1.1-3.656-1.1-5.656v-0.08c0-2,0.364-3.887,1.1-5.656
			c0.729-1.77,1.756-3.323,3.08-4.663c1.317-1.338,2.893-2.396,4.697-3.182c1.813-0.783,3.813-1.176,6.004-1.176
			c2.188,0,4.188,0.385,5.998,1.156c1.813,0.77,3.36,1.814,4.664,3.141c1.295,1.324,2.311,2.871,3.036,4.642
			c0.73,1.771,1.099,3.656,1.099,5.658v0.079c0,2.001-0.365,3.886-1.099,5.654c-0.729,1.771-1.756,3.325-3.077,4.662
			c-1.324,1.34-2.894,2.397-4.704,3.182C453.67,44.293,451.67,44.684,449.481,44.684 M449.563,40.105
			c1.396,0,2.684-0.266,3.854-0.793c1.174-0.525,2.174-1.24,3.01-2.146c0.834-0.906,1.484-1.967,1.957-3.184
			s0.707-2.514,0.707-3.896v-0.08c0-1.379-0.234-2.682-0.707-3.91c-0.473-1.229-1.129-2.301-1.977-3.205
			c-0.854-0.905-1.863-1.629-3.05-2.168c-1.188-0.541-2.479-0.812-3.874-0.812c-1.402,0-2.689,0.263-3.855,0.787
			c-1.172,0.528-2.176,1.244-3.012,2.149c-0.832,0.904-1.484,1.967-1.957,3.184c-0.473,1.216-0.705,2.515-0.705,3.894v0.08
			c0,1.377,0.232,2.685,0.705,3.91c0.473,1.233,1.131,2.299,1.977,3.205c0.854,0.903,1.865,1.629,3.053,2.168
			C446.871,39.832,448.159,40.105,449.563,40.105"/>
		<path fill="#777C7F" d="M360.483,6.623c-0.145,0-0.321,0-0.51-0.021v1.711c0.355,0.021,0.721,0.08,1.028,0.143v0.953h-3.589V8.453
			c0.307-0.062,0.673-0.119,1.027-0.142v-5.77c-0.354-0.022-0.721-0.082-1.027-0.144V1.443h0.926c0.373,0,1.413-0.048,2.239-0.048
			c1.944,0,3.017,0.91,3.017,2.468C363.595,5.408,362.419,6.623,360.483,6.623 M360.507,2.652c-0.188,0-0.354,0-0.533,0.006v2.655
			c0.155,0.021,0.307,0.037,0.446,0.037c0.935-0.017,1.585-0.53,1.585-1.392C362.005,3.156,361.556,2.652,360.507,2.652
			 M367.901,9.535c-2.432,0-3.62-1.543-3.62-4.008c0-2.633,1.755-4.215,3.892-4.215c2.121,0,3.623,1.275,3.623,4
			C371.796,7.943,370.06,9.535,367.901,9.535 M368.031,2.699c-1.097,0-2.11,0.873-2.11,2.662c0,1.687,0.662,2.782,2.09,2.782
			c1.037,0,2.144-0.801,2.144-2.711C370.153,3.664,369.402,2.699,368.031,2.699 M377.052,9.406l-1.949-3.285h-0.209v2.19
			c0.226,0.021,0.481,0.06,0.721,0.13v0.965h-3.28V8.453c0.308-0.062,0.673-0.119,1.026-0.142v-5.77
			c-0.354-0.022-0.719-0.082-1.026-0.144V1.443h0.921c0.307,0,1.412-0.048,2.391-0.048c1.76,0,2.893,0.611,2.893,2.24
			c0,1.11-0.757,1.926-1.876,2.162c0.146,0.187,0.281,0.387,0.403,0.575l1.227,1.922c0.223,0.035,0.504,0.082,0.778,0.132v0.978
			L377.052,9.406L377.052,9.406z M375.479,2.652c-0.209,0-0.432,0.006-0.588,0.028v2.306c0.107,0.01,0.309,0.021,0.543,0.021
			c0.933,0,1.486-0.469,1.486-1.215C376.921,3.027,376.46,2.652,375.479,2.652 M384.513,3.687c-0.055-0.361-0.117-0.682-0.138-0.979
			h-1.229v5.604c0.354,0.021,0.718,0.08,1.029,0.143v0.953h-3.588V8.453c0.309-0.062,0.674-0.119,1.027-0.142V2.707h-1.215
			c-0.022,0.3-0.083,0.617-0.139,0.979h-1.136V1.445h6.521v2.241L384.513,3.687L384.513,3.687z M393.39,2.542v3.811
			c0,2.109-1.169,3.184-3.291,3.184c-2.515,0-3.076-1.367-3.076-2.885v-4.11c-0.26-0.022-0.521-0.067-0.745-0.129V1.445h3.124v0.969
			c-0.27,0.068-0.576,0.104-0.85,0.129v4.012c0,1.004,0.321,1.711,1.644,1.711c1.177,0,1.684-0.496,1.684-1.854v-3.87
			c-0.284-0.023-0.588-0.059-0.847-0.129V1.445h3.088v0.969C393.896,2.474,393.649,2.519,393.39,2.542 M401.301,6.33v2.705
			c-0.791,0.313-1.778,0.488-2.746,0.488c-2.512,0-4.001-1.486-4.001-3.91c0-2.537,1.7-4.285,4.412-4.285
			c0.746,0,1.486,0.104,2.224,0.297V3.76h-1.188c-0.065-0.342-0.104-0.646-0.141-0.957c-0.316-0.086-0.66-0.121-0.979-0.121
			c-1.545,0-2.664,0.982-2.664,2.785c0,1.689,0.92,2.678,2.537,2.678c0.375,0,0.705-0.045,1.008-0.143v-1.66
			c-0.348-0.025-0.717-0.082-1.008-0.154V5.232h3.209V6.21C401.748,6.259,401.524,6.294,401.301,6.33 M406.838,9.406V8.453
			c0.25-0.047,0.568-0.106,0.836-0.127l-0.34-0.944h-2.899l-0.332,0.944c0.272,0.021,0.594,0.08,0.84,0.127v0.953h-2.994V8.453
			c0.188-0.062,0.422-0.106,0.623-0.119L405,1.445h1.877l2.479,6.889c0.198,0.013,0.438,0.06,0.625,0.119v0.953H406.838z
			 M406.248,4.23c-0.147-0.438-0.266-0.813-0.363-1.25h-0.012c-0.098,0.396-0.213,0.863-0.377,1.307l-0.686,1.9h2.146L406.248,4.23z
			 M410.336,9.406V8.453c0.31-0.062,0.676-0.119,1.029-0.142v-5.77c-0.355-0.022-0.721-0.082-1.029-0.144V1.443h3.588v0.954
			c-0.307,0.062-0.672,0.119-1.026,0.144v5.603h1.522c0.023-0.284,0.082-0.625,0.144-0.978h1.129v2.238L410.336,9.406L410.336,9.406
			z"/>
		<path fill="#777C7F" d="M333.538,1.652c-7.021,2.776-11.388,10.103-11.388,21.383v17.124c0,0,1.437-11.009,11.388-14.181V1.652z"
			/>
		<path fill="#777C7F" d="M336.935,27.674c-4.078,0.813-10.054,4.084-11.813,8.688c8.757-10.635,26.633-0.354,27.427-20.354
			c0.25-6.332,0.275-14.13,0.275-14.13c-9.333,0.525-15.889,3.013-15.889,3.013V27.674z"/>
		<path fill="#777C7F" d="M335.798,33.447c0,0-9.504,0.77-10.312,6.195c-0.638,4.24,10.312,4.354,10.312,4.354V33.447z"/>
	</g>
</g>
<g>
	<path fill="#777C7F" d="M206.932,45.458H191.44l9.103-10.778c1.08-1.283,1.62-2.375,1.62-3.27c0-0.719-0.226-1.303-0.676-1.746
		c-0.454-0.441-1.038-0.663-1.761-0.663c-1.8,0-2.7,1.077-2.7,3.239v0.252h-4.876v-0.139c0-2.33,0.668-4.146,2.008-5.453
		c1.34-1.305,3.178-1.961,5.513-1.961c2.144,0,3.888,0.526,5.237,1.58c1.479,1.154,2.219,2.774,2.219,4.86
		c0,1.812-0.915,3.724-2.744,5.737l-3.658,4.029h6.208L206.932,45.458L206.932,45.458z M224.623,35.664
		c0,2.846-0.553,5.182-1.662,7.01c-1.337,2.217-3.339,3.326-5.999,3.326c-2.679,0-4.691-1.141-6.041-3.424
		c-1.099-1.854-1.648-4.225-1.648-7.105c0-2.873,0.549-5.238,1.648-7.095c1.35-2.272,3.362-3.407,6.041-3.407
		c2.734,0,4.763,1.159,6.083,3.477C224.098,30.294,224.623,32.7,224.623,35.664z M214.385,35.471c0,4.258,0.861,6.387,2.577,6.387
		c1.698,0,2.549-2.129,2.549-6.387c0-4.26-0.851-6.388-2.549-6.388c-1.136,0-1.899,0.851-2.285,2.548
		C214.483,32.48,214.385,33.762,214.385,35.471z M241.971,45.458h-15.49l9.105-10.778c1.079-1.283,1.62-2.375,1.62-3.27
		c0-0.719-0.229-1.303-0.681-1.746c-0.453-0.441-1.038-0.663-1.758-0.663c-1.801,0-2.703,1.077-2.703,3.239v0.252h-4.875v-0.139
		c0-2.33,0.67-4.146,2.008-5.453c1.338-1.305,3.177-1.961,5.514-1.961c2.143,0,3.888,0.526,5.237,1.58
		c1.479,1.154,2.216,2.774,2.216,4.86c0,1.812-0.914,3.724-2.744,5.737l-3.655,4.029h6.206V45.458z M259.664,35.664
		c0,2.846-0.553,5.182-1.664,7.01c-1.339,2.217-3.338,3.326-5.998,3.326c-2.68,0-4.692-1.141-6.042-3.424
		c-1.097-1.854-1.647-4.225-1.647-7.105c0-2.873,0.55-5.238,1.647-7.095c1.35-2.272,3.362-3.407,6.042-3.407
		c2.734,0,4.76,1.159,6.083,3.477C259.136,30.294,259.664,32.7,259.664,35.664z M249.425,35.471c0,4.258,0.856,6.387,2.576,6.387
		c1.701,0,2.548-2.129,2.548-6.387c0-4.26-0.848-6.388-2.548-6.388c-1.136,0-1.897,0.851-2.285,2.548
		C249.521,32.48,249.425,33.762,249.425,35.471z"/>
	<path fill="#777C7F" d="M119.328,15.285c-1.201,1.187-2.455,1.947-3.765,2.289c-0.529,0.136-1.066,0.206-1.615,0.206
		c-0.309,0-0.609-0.019-0.902-0.053c-1.54-0.188-2.884-0.863-4.036-2.035c-1.391-1.374-2.084-3.023-2.084-4.949
		c0-1.905,0.694-3.554,2.084-4.947c1.334-1.374,2.981-2.061,4.938-2.061c1.903,0,3.697,0.823,5.38,2.467l2.715-2.604
		C119.592,1.2,116.892,0,113.948,0c-2.962,0-5.505,1.064-7.626,3.185c-2.087,2.086-3.129,4.608-3.129,7.573
		c0,2.982,1.042,5.515,3.129,7.601c2.103,2.103,4.646,3.154,7.626,3.154c2.878,0,5.34-0.983,7.382-2.942
		c0.241-0.208,0.479-0.422,0.713-0.655L119.328,15.285z"/>
	<polygon fill="#777C7F" points="169.375,21.048 165.644,21.048 165.644,8.041 160.897,21.048 157.413,21.048 152.666,7.986 
		152.666,21.048 148.935,21.048 148.935,0.496 153.9,0.496 159.141,14.9 164.411,0.496 169.375,0.496 	"/>
	<path fill="#777C7F" d="M188.445,6.56c0,1.757-0.686,3.22-2.057,4.391c-1.281,1.114-2.816,1.673-4.61,1.673h-5.104v8.425h-3.734
		V0.496h8.837c1.755,0,3.282,0.549,4.583,1.648C187.748,3.348,188.445,4.823,188.445,6.56z M184.713,6.56
		c0-0.694-0.293-1.253-0.88-1.673c-0.588-0.44-1.267-0.658-2.037-0.658h-5.122v4.664h5.122c0.77,0,1.448-0.22,2.037-0.66
		C184.42,7.813,184.713,7.255,184.713,6.56z"/>
	<polygon fill="#777C7F" points="205.951,21.048 191.16,21.048 191.16,0.496 205.951,0.496 205.951,4.229 194.893,4.229 
		194.893,8.893 203.538,8.893 203.538,12.623 194.893,12.623 194.893,17.315 205.951,17.315 	"/>
	<polygon fill="#777C7F" points="224.721,4.229 218.492,4.229 218.492,21.048 214.759,21.048 214.759,4.229 208.53,4.229 
		208.53,0.496 224.721,0.496 	"/>
	<polygon fill="#777C7F" points="242.143,21.048 227.354,21.048 227.354,0.496 242.143,0.496 242.143,4.229 231.085,4.229 
		231.085,8.893 239.728,8.893 239.728,12.623 231.085,12.623 231.085,17.315 242.143,17.315 	"/>
	<path fill="#777C7F" d="M131.055,20.638c-1.419-0.546-2.399-1.35-2.768-1.656c0.235,0.188,0.552,0.436,0.795,0.61l0.296,0.198
		C130.244,20.34,131.101,20.656,131.055,20.638L131.055,20.638z M125.445,15.255c-0.016-0.036-0.035-0.082-0.052-0.116
		c-0.646-1.503-0.896-2.808-0.844-4.363c-0.03,0.293-0.086,0.841,0.036,1.632l0.095,0.517c0.223,0.92,0.237,0.976,0.439,1.542
		c0.101,0.25,0.231,0.579,0.343,0.823C125.457,15.277,125.451,15.265,125.445,15.255L125.445,15.255z M124.879,13.095
		c-0.136-2.449,1.602-3.574,2.172-3.943c1.662-1.052,3.8-2.045,7.071-1.435c-3.421-2.348-5.706-2.03-5.722-2.022
		c-3.902,2.192-4.031,4.781-3.592,7.254c0.028,0.146,0.071,0.335,0.1,0.479C124.901,13.33,124.882,13.194,124.879,13.095
		L124.879,13.095z M125.477,7.718c0.713-1.072,1.618-1.71,1.917-1.921c-0.597,0.116-0.941,0.275-0.95,0.284
		c-0.004,0.005-0.525,0.638-1.015,1.713C125.443,7.768,125.461,7.74,125.477,7.718L125.477,7.718z M124.466,11.097
		c-0.012-0.901,0.173-1.514,0.296-1.92c0.453-1.358,0.605-1.815,1.347-2.917c-0.288,0.194-1.048,0.71-1.361,2.012
		c-0.051,0.261-0.129,0.607-0.167,0.869c-0.118,1.023-0.132,1.153-0.118,2.005l0.014,0.257
		C124.473,11.31,124.466,11.188,124.466,11.097L124.466,11.097z M127.483,4.936c0.526-0.116,1.004-0.181,1.771-0.143
		c0.733-0.295,1.23-0.448,2.035-0.629c-1.183-0.551-1.813-0.685-1.816-0.685c-0.007,0.001-0.925,0.467-1.997,1.458L127.483,4.936
		L127.483,4.936z M125.375,6.472c0.396-0.72,0.994-1.208,1.775-1.448c0.708-0.681,1.218-1.071,2.097-1.601
		c-1.206-0.263-1.645-0.053-1.65-0.051c-0.012,0.011-1.39,1.183-2.293,3.236C125.325,6.568,125.351,6.513,125.375,6.472
		L125.375,6.472z M130.113,3.23c0.786,0.325,1.468,0.707,1.695,0.832c2.657-0.418,4.993-0.21,7.81,0.696
		c-4.206-4.156-8.266-2.208-9.6-1.567C130.047,3.205,130.085,3.218,130.113,3.23L130.113,3.23z M125.923,5.341
		c0.526-0.894,1.001-1.422,1.347-1.81c-0.095,0.081-0.095,0.081-0.125,0.116c-0.173,0.21-0.408,0.485-0.567,0.702
		c-0.254,0.373-0.583,0.879-0.81,1.268C125.816,5.535,125.875,5.426,125.923,5.341L125.923,5.341z M127.814,2.953
		c0.058-0.056,0.102-0.077,0.15-0.099c1.669-1.48,3.322-2.02,3.945-2.224c-0.728,0.186-1.384,0.41-2.221,0.899l-0.244,0.15
		c-0.925,0.638-0.979,0.676-1.632,1.274H127.814L127.814,2.953z M128.412,2.782c0.475,0.011,1.358,0.314,1.358,0.314
		s1.061-0.45,1.61-0.638c1.316-0.447,2.598-0.544,3.92-0.304c1.168,0.213,2.933,0.859,4.705,2.737
		c1.167,0.437,1.807,0.747,2.738,1.317c-5.019-9.11-11.784-5.431-14.462-3.426C128.321,2.784,128.372,2.782,128.412,2.782
		L128.412,2.782z M142.548,4.056c1.005,1.461,1.523,2.85,1.693,3.307c0.622,0.613,0.933,1.018,1.282,1.667
		c-0.55-1.913-1.51-3.513-3.018-5.037C142.518,4.01,142.537,4.036,142.548,4.056L142.548,4.056z M135.098,0.354
		c1.831,0.182,2.872,0.634,3.278,0.794c-1.14-0.741-1.962-0.829-3.383-0.803C135.025,0.346,135.067,0.352,135.098,0.354
		L135.098,0.354z M130.142,1.272c0.418-0.216,2.677-1.286,5.926-1.145c-0.329-0.068-0.702-0.132-1.218-0.118l-0.088,0.003
		c-0.933,0.069-1.031,0.079-1.689,0.206c-0.926,0.223-1.067,0.255-1.795,0.53c-0.38,0.166-0.882,0.397-1.251,0.584
		C130.063,1.316,130.108,1.291,130.142,1.272L130.142,1.272z M139.268,18.428c0.097-0.01,0.182,0.003,0.265,0.017
		c0.094,0.015,0.183,0.031,0.288,0.015l-0.042,0.051c-1.919,2.184-5.553,3.868-9.6,1.748c-0.74-0.421-0.74-0.421-1.098-0.667
		c-0.59-0.434-0.59-0.434-0.978-0.766c-0.597-0.556-0.608-0.567-0.885-0.876c-0.533-0.63-0.543-0.641-0.797-1
		c-0.463-0.705-0.483-0.732-0.706-1.15c-0.387-0.787-0.411-0.835-0.597-1.333c-0.288-0.872-0.312-0.942-0.439-1.542
		c-0.16-0.935-0.18-1.054-0.217-1.777c0.001-0.971,0.001-1.147,0.118-2.005c0.19-0.991,0.229-1.198,0.562-2.153
		c0.416-0.984,0.645-1.529,1.437-2.639c0.32-0.398,0.77-0.915,1.122-1.288c0.771-0.696,0.91-0.824,1.744-1.382
		c0.876-0.509,1.009-0.588,1.833-0.93c0.941-0.332,1.042-0.366,1.795-0.53c0.949-0.159,1.027-0.17,1.689-0.206
		c0.926-0.009,0.981-0.01,1.554,0.046c0.889,0.119,0.921,0.125,1.423,0.243l0.027,0.008l0.137,0.036
		c1.912,0.562,2.763,1.123,3.441,1.577c0.241,0.178,0.484,0.365,0.716,0.553c0,0-1.556-1.061-2.616-1.45
		c1.082,0.664,1.747,1.365,2.284,1.967c0.175,0.203,0.217,0.254,0.379,0.464c0.063,0.051,0.065,0.054,0.068,0.057l0.009,0.012
		c3.717,3.559,3.854,6.911,3.742,8.188l0.015-0.244c-0.001-0.159-0.012-0.37-0.024-0.527c0.016,1.007-0.04,1.642-0.42,2.965
		l0.024-0.082c0.957-3.427-0.08-4.58-0.996-5.598c0.835,2.962,0.835,5.463-0.01,7.653c-0.099,0.125-0.203,0.247-0.313,0.36
		l0.001-0.003c0.703-2.07,0.515-4.653-0.459-7.705c-0.264-0.824-0.573-1.726-3.021-2.788c0.72,0.947,1.106,1.69,1.387,2.232
		c1.779,3.607,1.989,7.118,1.429,8.857l-0.003,0.01c-0.129,0.101-0.262,0.196-0.401,0.285l0.053-0.167
		c0.71-2.524,0.262-6.815-2.343-10.712c-1.347-1.905-6.951-1.937-8.336-1.774c5.322,3.263,11.333,8.195,9.743,13.146
		c-0.153,0.075-0.313,0.142-0.475,0.205l0.001-0.006c1.239-3.023-0.618-5.627-2.124-7.32c-1.32-1.479-4.036-3.847-6.883-5.547
		c-0.837-0.499-0.837-0.499-2.465-0.025c1.594,0.364,3.727,1.095,6.073,3.525c6.504,2.954,4.865,8.734,3.44,10.009
		c-0.091,0.082-0.202,0.045-0.318,0.007C139.425,18.442,139.346,18.418,139.268,18.428l0.17-0.21
		c1.398-2.108,0.989-4.67-1.102-6.854c0.284,0.673,0.471,1.119,0.665,1.998c0.515,2.922-0.539,4.329-1.017,5.194
		c-0.156,0.281-0.478-0.059-0.685-0.068c0.131-0.103,0.329-0.217,0.433-0.347c1.562-1.898,0.496-5.777-1.32-8.234
		c-4.888-2.729-12.192-0.607-11.235,4.453c0.782,2.212,5.13,9.395,12.123,4.129c0.207,0.01,0.532,0.339,0.549,0.313
		c-0.605,0.99-2.069,2.268-1.083,1.308c0.265-0.258-0.435,0.394-0.926,0.625C136.371,20.534,137.985,19.929,139.268,18.428
		L139.268,18.428z M141.778,17.825c0.162-0.063,0.322-0.129,0.475-0.205l-0.001,0.003v0.001c-0.99,2.052-2.361,3.08-4.896,3.672
		l-0.011,0.002c0.22-0.054,0.514-0.118,0.729-0.182C139.485,20.615,140.912,19.874,141.778,17.825L141.778,17.825z M143.136,17.126
		c0.139-0.091,0.272-0.186,0.403-0.285l-0.054,0.169c-0.146,0.408-0.418,1.171-1.293,1.934c-0.245,0.193-0.568,0.454-0.822,0.635
		l0.204-0.15c0.547-0.482,0.58-0.511,0.932-0.99c0.292-0.442,0.444-0.754,0.623-1.281C143.134,17.135,143.136,17.126,143.136,17.126
		L143.136,17.126z M144.204,16.242c0.109-0.117,0.214-0.239,0.313-0.362l-0.006,0.01c-0.34,0.821-0.669,1.401-1.513,2.292
		l0.083-0.092c0.196-0.222,0.716-0.813,1.085-1.754C144.177,16.306,144.189,16.266,144.204,16.242L144.204,16.242z"/>
	<path fill="#777C7F" d="M133.239,21.199c0.825,0.183,1.619,0.265,2.357,0.265c0.632,0,1.219-0.061,1.748-0.166
		c0.054-0.012,0.106-0.024,0.163-0.038l-0.037,0.008c-0.62,0.107-1.232,0.157-1.827,0.157c-0.713,0-1.405-0.071-2.075-0.202
		C133.462,21.219,133.352,21.21,133.239,21.199L133.239,21.199z M137.972,21.152l-0.426,0.098c-0.063,0.017-0.126,0.031-0.191,0.046
		L137.972,21.152L137.972,21.152z M130.18,20.259l0.08,0.042c-0.003-0.001-0.01-0.004-0.015-0.008
		C130.224,20.283,130.201,20.269,130.18,20.259L130.18,20.259z M136.818,20.023c-0.048,0.044-0.083,0.085-0.146,0.138
		c-0.133,0.105-0.235,0.2-0.354,0.278c0.042,0.005,0.137,0.02,0.18,0.027c0.223-0.101,0.475-0.226,0.748-0.382
		c-0.115-0.014-0.23-0.031-0.343-0.05L136.818,20.023z M129.62,19.94c0.223,0.14,0.315,0.19,0.56,0.319
		c-0.071-0.041-0.136-0.075-0.194-0.109C129.87,20.084,129.746,20.016,129.62,19.94L129.62,19.94z M140.307,19.903
		c-0.627,0.181-1.273,0.258-1.914,0.258c-0.193,0-0.386-0.007-0.577-0.02c-0.238,0.142-0.485,0.272-0.74,0.392
		c0.279,0.025,0.546,0.037,0.801,0.037c0.725,0,1.337-0.094,1.865-0.241C139.936,20.201,140.123,20.062,140.307,19.903
		L140.307,19.903z M129.453,19.832c0.061,0.042,0.114,0.074,0.16,0.103c0.094,0.054,0.21,0.122,0.373,0.215
		c0.019,0.008,0.04,0.02,0.058,0.028c-0.16-0.088-0.332-0.187-0.468-0.271l-0.004-0.001
		C129.531,19.88,129.492,19.858,129.453,19.832L129.453,19.832z M137.157,19.645c-0.057,0.08-0.094,0.22-0.173,0.2
		c0.176,0.044,0.372,0.07,0.514,0.09c0.106-0.065,0.214-0.135,0.323-0.21c-0.191-0.014-0.386-0.037-0.582-0.065L137.157,19.645z
		 M129.166,19.645c0.006,0.003,0.01,0.009,0.016,0.011c0.005,0.003,0.008,0.006,0.014,0.009
		C129.186,19.658,129.176,19.654,129.166,19.645L129.166,19.645z M129.083,19.591l0.267,0.178c-0.057-0.04-0.113-0.075-0.167-0.113
		C129.15,19.636,129.118,19.614,129.083,19.591L129.083,19.591z M128.996,19.529c0.027,0.021,0.057,0.04,0.086,0.063l0,0l0,0
		c-0.025-0.017-0.054-0.038-0.079-0.057C129.002,19.532,129.001,19.529,128.996,19.529L128.996,19.529z M128.922,19.477
		c0.034,0.024,0.071,0.051,0.112,0.081c-0.022-0.017-0.044-0.033-0.063-0.048C128.954,19.498,128.938,19.486,128.922,19.477
		L128.922,19.477z M128.861,19.428c0.036,0.028,0.074,0.055,0.109,0.081c0.007,0.009,0.019,0.015,0.025,0.02
		C128.946,19.492,128.901,19.459,128.861,19.428L128.861,19.428z M140.807,19.407c-0.702,0.231-1.465,0.349-2.271,0.349
		c-0.044,0-0.086,0-0.13-0.002c-0.112,0.081-0.227,0.161-0.343,0.234c0.088,0.003,0.177,0.007,0.268,0.007
		c0.142,0,0.282-0.005,0.427-0.017c0.682-0.055,1.278-0.154,1.813-0.316C140.65,19.58,140.73,19.493,140.807,19.407L140.807,19.407z
		 M141.796,19.234c-0.369,0.235-0.751,0.421-1.143,0.559c-0.182,0.156-0.374,0.299-0.579,0.431c0.539-0.189,0.974-0.431,1.336-0.673
		l0.156-0.115c0.002-0.002,0.006-0.005,0.009-0.007C141.66,19.353,141.734,19.288,141.796,19.234L141.796,19.234z M142.192,18.945
		L142.192,18.945l-0.137,0.112c-0.014,0.01-0.03,0.021-0.045,0.033c-0.139,0.11-0.291,0.23-0.434,0.339l-0.001,0.001l-0.007,0.005
		c-0.046,0.036-0.093,0.068-0.139,0.103C141.731,19.329,141.981,19.12,142.192,18.945L142.192,18.945z M128.144,18.859
		c0.047,0.04,0.093,0.083,0.143,0.122l0,0c0.014,0.014,0.03,0.023,0.041,0.037C128.276,18.973,128.216,18.922,128.144,18.859
		L128.144,18.859z M142.354,18.641c-0.363,0.252-0.753,0.461-1.164,0.627c-0.088,0.094-0.173,0.185-0.261,0.272
		c0.434-0.16,0.832-0.369,1.207-0.631C142.208,18.831,142.273,18.752,142.354,18.641L142.354,18.641z M127.679,18.431
		c0.157,0.159,0.234,0.224,0.426,0.395c-0.009-0.009-0.018-0.017-0.026-0.023C127.939,18.678,127.805,18.553,127.679,18.431
		L127.679,18.431z M127.612,18.363c0.024,0.022,0.045,0.045,0.067,0.068c-0.007-0.01-0.017-0.02-0.028-0.029
		C127.638,18.387,127.625,18.375,127.612,18.363L127.612,18.363z M127.826,18.342c0.509,0.487,1.082,0.929,1.719,1.278
		C128.916,19.229,128.341,18.794,127.826,18.342L127.826,18.342z M127.169,17.893c0.027,0.031,0.057,0.063,0.085,0.096
		c-0.01-0.014-0.021-0.025-0.034-0.04l0,0C127.203,17.931,127.185,17.913,127.169,17.893L127.169,17.893z M143.282,17.852
		c-0.153,0.16-0.313,0.31-0.479,0.451c-0.065,0.083-0.135,0.166-0.214,0.254c0.185-0.16,0.366-0.335,0.545-0.525
		C143.176,17.982,143.227,17.922,143.282,17.852L143.282,17.852z M126.843,17.508c0.121,0.155,0.19,0.234,0.325,0.385
		C127.053,17.762,126.946,17.636,126.843,17.508L126.843,17.508z M126.781,17.428c0.02,0.028,0.042,0.053,0.062,0.08
		c-0.01-0.013-0.022-0.029-0.035-0.046C126.798,17.45,126.79,17.438,126.781,17.428L126.781,17.428z M139.886,17.388
		c-0.186,0.119-0.879,0.381-1.442,0.315c-0.179,0.315-0.362,0.57-0.518,0.782l0,0c-0.066,0.119-0.145,0.236-0.2,0.335
		c0.067,0,0.15-0.007,0.216-0.007c0.342,0,0.672-0.006,0.993-0.021c0.112-0.116,0.224-0.235,0.333-0.363l0,0l0.17-0.21
		C139.615,17.948,139.766,17.671,139.886,17.388L139.886,17.388z M143.24,16.769c-0.288,0.19-0.583,0.346-0.879,0.474
		c-0.031,0.125-0.067,0.252-0.108,0.377c-0.153,0.075-0.313,0.142-0.475,0.205l0.001-0.006c0.058-0.136,0.108-0.275,0.15-0.41
		c-0.533,0.182-1.062,0.282-1.556,0.333c-0.176,0.305-0.367,0.552-0.553,0.718l0,0l0,0l0,0l-0.042,0.051
		c-0.068,0.077-0.142,0.156-0.214,0.232c0.712-0.068,1.366-0.195,1.965-0.4c0.086-0.162,0.168-0.334,0.247-0.521
		c0.162-0.063,0.322-0.129,0.475-0.205l-0.001,0.003v0.001c-0.094,0.194-0.19,0.378-0.291,0.554c0.35-0.149,0.679-0.329,0.988-0.547
		c0.061-0.142,0.118-0.296,0.179-0.473c0.006-0.021,0.008-0.032,0.008-0.032l0,0l0.053-0.167
		C143.206,16.898,143.225,16.835,143.24,16.769L143.24,16.769z M126.054,16.387c0.135,0.227,0.2,0.322,0.369,0.563
		c-0.035-0.056-0.071-0.108-0.101-0.155c-0.054-0.079-0.106-0.156-0.156-0.235C126.124,16.494,126.088,16.438,126.054,16.387
		L126.054,16.387z M142.159,16.318c-0.507,0.305-1.011,0.553-1.466,0.749c-0.08,0.207-0.169,0.397-0.263,0.571
		c0.421-0.177,1.011-0.442,1.653-0.821C142.117,16.65,142.143,16.483,142.159,16.318L142.159,16.318z M144.335,15.815
		c-0.221,0.251-0.455,0.472-0.696,0.665c-0.029,0.125-0.06,0.241-0.098,0.352l-0.003,0.01h0.001l-0.054,0.169
		c-0.031,0.082-0.064,0.18-0.109,0.292c0.237-0.204,0.459-0.434,0.672-0.689c0.042-0.09,0.083-0.181,0.12-0.278
		c0.01-0.03,0.021-0.069,0.037-0.093c0,0,0,0,0-0.003l0.001-0.003C144.251,16.099,144.296,15.955,144.335,15.815L144.335,15.815z
		 M143.457,15.402c-0.308,0.257-0.624,0.488-0.944,0.696c-0.005,0.157-0.016,0.318-0.034,0.475c0.306-0.196,0.618-0.418,0.924-0.668
		C143.426,15.743,143.443,15.574,143.457,15.402L143.457,15.402z M125.404,15.159c0.02,0.045,0.04,0.089,0.058,0.13
		c-0.006-0.012-0.011-0.024-0.017-0.034c-0.004-0.011-0.01-0.02-0.016-0.034c0.089,0.198,0.153,0.323,0.287,0.578
		c-0.027-0.051-0.05-0.099-0.072-0.146c-0.007-0.013-0.016-0.027-0.023-0.042c-0.011-0.023-0.075-0.146-0.159-0.322
		c-0.013-0.028-0.024-0.06-0.038-0.089C125.416,15.187,125.411,15.173,125.404,15.159L125.404,15.159z M125.129,14.491
		c0.031,0.074,0.062,0.155,0.096,0.238c-0.003-0.007-0.006-0.013-0.008-0.021C125.191,14.643,125.162,14.569,125.129,14.491
		L125.129,14.491z M144.606,14.247c-0.248,0.305-0.515,0.587-0.795,0.848c-0.007,0.167-0.017,0.331-0.03,0.486
		c0.265-0.245,0.526-0.513,0.767-0.804C144.571,14.603,144.591,14.427,144.606,14.247L144.606,14.247z M125.148,14.2
		c0.009,0.053,0.017,0.108,0.03,0.159c0.101,0.288,0.263,0.66,0.482,1.076C125.483,15.071,125.311,14.659,125.148,14.2L125.148,14.2
		z M145.655,13.315c-0.039,0.146-0.083,0.279-0.177,0.566c-0.001,0.004-0.001,0.004-0.001,0.007v0.005
		c-0.218,0.557-0.478,1.039-0.771,1.452c-0.058,0.18-0.118,0.359-0.187,0.535v0.001l-0.006,0.01
		c-0.034,0.085-0.071,0.167-0.106,0.25c0.352-0.507,0.669-1.111,0.952-1.817c0.038-0.117,0.071-0.229,0.099-0.352
		c-0.028,0.119-0.06,0.234-0.098,0.349l0.003-0.006c0.042-0.112,0.115-0.335,0.137-0.407l0,0c0.009-0.032,0.017-0.062,0.026-0.092
		c0.041-0.149,0.083-0.314,0.125-0.477C145.652,13.33,145.653,13.321,145.655,13.315L145.655,13.315z M124.83,13.06
		c0.025,0.122,0.057,0.258,0.078,0.369c-0.006-0.071-0.016-0.157-0.021-0.238C124.866,13.144,124.847,13.1,124.83,13.06
		L124.83,13.06z M138.857,12.779c0.048,0.174,0.096,0.366,0.145,0.583c0.03,0.162,0.054,0.322,0.072,0.473c0.01,0,0.023,0,0.033,0
		c0.281,0,0.552-0.016,0.813-0.046c-0.121-0.316-0.27-0.63-0.45-0.939C139.268,12.834,139.064,12.81,138.857,12.779L138.857,12.779z
		 M141.31,12.755c-0.166,0.034-0.337,0.061-0.512,0.081c0.082,0.245,0.146,0.489,0.195,0.732c0.213-0.067,0.42-0.142,0.615-0.227
		C141.517,13.142,141.418,12.945,141.31,12.755L141.31,12.755z M145.792,12.708c0,0.005-0.004,0.011-0.004,0.017
		c-0.004,0.027-0.01,0.057-0.017,0.088c0.001-0.008,0.004-0.016,0.005-0.022L145.792,12.708L145.792,12.708z M124.537,12.044
		c0.03,0.278,0.063,0.484,0.143,0.879l-0.095-0.517c-0.016-0.096-0.026-0.188-0.037-0.279
		C124.545,12.099,124.539,12.07,124.537,12.044L124.537,12.044z M124.528,11.897c0.002,0.076,0.011,0.153,0.02,0.231
		c0.021,0.151,0.051,0.327,0.091,0.563c0.024,0.11,0.054,0.241,0.092,0.388c-0.049-0.241-0.089-0.483-0.119-0.726
		C124.573,12.189,124.545,12.033,124.528,11.897L124.528,11.897z M143.196,11.791c-0.438,0.429-0.984,0.725-1.608,0.895
		c0.099,0.179,0.19,0.359,0.272,0.539c0.552-0.271,1.025-0.62,1.417-1.014C143.254,12.07,143.226,11.931,143.196,11.791
		L143.196,11.791z M145.901,11.572c-0.049,0.313-0.118,0.506-0.308,1.035c0,0.007,0,0.016,0,0.023c0-0.01,0-0.016,0-0.026
		l-0.045,0.112c-0.138,0.307-0.293,0.597-0.468,0.871c-0.023,0.202-0.051,0.397-0.086,0.59c0.224-0.34,0.427-0.709,0.593-1.109l0,0
		l0.106-0.276c0.051-0.164,0.115-0.364,0.163-0.588C145.883,11.979,145.898,11.771,145.901,11.572L145.901,11.572z M124.473,11.33
		c0.001,0.027,0.001,0.051,0.004,0.074l0,0c0.003,0.027,0.004,0.068,0.008,0.119C124.482,11.465,124.479,11.399,124.473,11.33
		L124.473,11.33z M145.939,11.307c-0.007,0.06-0.011,0.113-0.02,0.162c-0.004,0.202-0.016,0.394-0.034,0.59
		c0.018-0.11,0.037-0.227,0.043-0.346l0,0l0.015-0.244C145.943,11.42,145.942,11.365,145.939,11.307L145.939,11.307z
		 M124.463,11.147L124.463,11.147c0.004,0.065,0.007,0.126,0.01,0.183c-0.001-0.041-0.003-0.086-0.006-0.129
		C124.466,11.183,124.466,11.164,124.463,11.147L124.463,11.147z M124.529,10.987c-0.01,0.112-0.016,0.247-0.017,0.4
		c0.016,0.23,0.04,0.445,0.067,0.652c-0.024-0.267-0.036-0.536-0.036-0.81C124.537,11.15,124.532,11.068,124.529,10.987
		L124.529,10.987z M145.971,10.889l-0.008,0.208c-0.003,0.031-0.006,0.063-0.008,0.091c-0.003,0.095-0.004,0.185-0.009,0.27
		C145.958,11.265,145.967,11.059,145.971,10.889L145.971,10.889z M144.179,10.017c-0.161,0.623-0.421,1.13-0.766,1.54
		c0.036,0.136,0.064,0.272,0.092,0.409c0.356-0.409,0.63-0.854,0.823-1.313C144.282,10.443,144.234,10.232,144.179,10.017
		L144.179,10.017z M124.939,9.316c-0.106,0.3-0.18,0.604-0.229,0.91c0.066,0.448,0.182,0.902,0.343,1.359
		c0.077-0.25,0.173-0.478,0.286-0.687C125.125,10.32,125.003,9.79,124.939,9.316L124.939,9.316z M130.833,8.742
		c-0.83,0.071-1.626,0.242-2.349,0.513c0.054,0.919,0.222,1.831,0.482,2.63c0.307,0.93,0.646,1.581,0.876,1.962
		c1.211,2.001,2.925,3.458,5.099,4.332c-0.085-0.004-0.199-0.004-0.284-0.007c-0.926-0.028-1.615-0.133-1.985-0.191
		c-2.739-1.637-5.159-4.5-6.008-7.707c-0.047,0.04-0.092,0.08-0.141,0.121c0.04,0.131,0.08,0.261,0.124,0.393
		c0.377,1.095,1.52,4.426,5.38,7.076c-0.036-0.007-0.081-0.018-0.118-0.023c-0.71-0.152-1.227-0.261-3.271-2.172l-0.139-0.133
		l-0.056-0.054l-0.184-0.179l-0.356-0.369c-1.119-1.259-1.848-2.401-2.307-3.409c-0.121,0.212-0.221,0.439-0.302,0.672
		c0.382,0.871,0.933,1.75,1.645,2.637c0.194,0.224,0.45,0.523,0.651,0.739l0.352,0.359l0.185,0.176l0.037,0.037l0.045,0.045
		c0.281,0.262,0.472,0.439,0.818,0.733c-0.133-0.061-0.311-0.14-0.441-0.207c-2.128-1.054-3.062-2.295-3.494-3.097
		c0.006,0.151,0.017,0.308,0.039,0.463c0.895,1.464,1.655,2.013,2.791,2.734c0.038,0.024,4.617,2.601,6.583,3.204
		c0.279-0.093,0.565-0.208,0.857-0.345c-1.326-0.398-2.416-0.946-2.969-1.249c1.153,0.203,2.238,0.683,3.347,1.062
		c0.063-0.034,0.125-0.068,0.19-0.105c-0.679-0.185-1.375-0.442-2.086-0.769c1.089,0.074,2.099,0.145,3.035,0.179
		c0.14-0.097,0.281-0.2,0.422-0.307h0.004c0,0-0.001,0-0.004,0c0.131-0.103,0.329-0.217,0.433-0.347
		c0.128-0.152,0.237-0.316,0.328-0.495c-2.265-0.396-5.706-2.136-7.117-5.771c-0.337-0.874-0.448-1.565-0.521-2.026
		c3.049,2.567,5.678,3.7,7.817,3.937c-0.101-0.401-0.227-0.807-0.379-1.207C135.499,11.994,132.907,10.584,130.833,8.742
		L130.833,8.742z M124.733,8.363c-0.02,0.084-0.039,0.173-0.059,0.267c0.01-0.051,0.02-0.102,0.03-0.15
		c-0.017,0.079-0.034,0.16-0.045,0.238c-0.001,0.014-0.006,0.029-0.009,0.045C124.677,8.627,124.707,8.488,124.733,8.363
		L124.733,8.363z M124.748,8.272c-0.014,0.065-0.027,0.133-0.044,0.208C124.718,8.412,124.733,8.344,124.748,8.272L124.748,8.272z
		 M144.527,8.226c0.055,0.2,0.111,0.397,0.159,0.591c0.003-0.122,0.004-0.259,0.001-0.411
		C144.637,8.347,144.581,8.284,144.527,8.226L144.527,8.226z M124.812,8.039c-0.003,0.015-0.007,0.027-0.013,0.042
		c0.001-0.004,0.004-0.009,0.006-0.014C124.807,8.057,124.809,8.048,124.812,8.039L124.812,8.039z M124.978,7.595
		c-0.065,0.142-0.122,0.301-0.173,0.471c-0.061,0.244-0.112,0.495-0.185,0.862c-0.098,0.601-0.136,1.152-0.139,1.656
		c0.01-0.153,0.027-0.295,0.048-0.425c0.016-0.382,0.053-0.787,0.116-1.224c-0.011,0.217-0.013,0.435,0,0.655
		c0.04-0.154,0.081-0.293,0.116-0.413c0.047-0.139,0.091-0.271,0.132-0.391C124.876,8.324,124.912,7.927,124.978,7.595
		L124.978,7.595z M126.371,7.161c-0.046,0.045-0.093,0.088-0.134,0.133c-0.057,0.737-0.036,1.543,0.118,2.365
		c0.049-0.042,0.098-0.082,0.146-0.12C126.356,8.759,126.306,7.962,126.371,7.161L126.371,7.161z M125.284,6.638
		c-0.047,0.111-0.093,0.227-0.142,0.351l0,0l0,0c0.024-0.057,0.047-0.112,0.071-0.167C125.234,6.761,125.26,6.7,125.284,6.638
		L125.284,6.638z M126.536,6.041c-0.06,0.022-0.088,0.04-0.092,0.04c0,0.001-0.024,0.03-0.063,0.082
		c-0.033,0.179-0.063,0.363-0.088,0.556c0.05-0.048,0.096-0.095,0.143-0.142C126.465,6.398,126.498,6.218,126.536,6.041
		L126.536,6.041z M127.394,5.797c-0.082,0.017-0.16,0.031-0.231,0.051c0.01,0.028,0.024,0.058,0.037,0.088v0.001
		C127.279,5.878,127.344,5.831,127.394,5.797L127.394,5.797z M128.847,5.678c-0.064,0.231-0.119,0.471-0.169,0.719
		c-0.071-0.104-0.166-0.24-0.234-0.345c-0.063-0.097-0.119-0.192-0.173-0.287c-0.315,0.185-1.025,0.27-0.868,0.55
		c0.646,1.153,0.792,1.472,1.062,2.05c0,0,0.439-0.173,0.828-0.313c0.413-0.152,0.629-0.237,1.068-0.333
		c0.048-0.616,0.139-1.194,0.264-1.734C129.834,5.751,129.225,5.687,128.847,5.678L128.847,5.678z M125.798,5.567
		c-0.01,0.017-0.02,0.035-0.03,0.05l0,0l0,0l0,0c-0.209,0.387-0.361,0.721-0.485,1.021c0.171-0.404,0.325-0.723,0.482-1.011
		C125.776,5.607,125.787,5.587,125.798,5.567L125.798,5.567z M143.682,5.343c0.063,0.193,0.118,0.389,0.173,0.585
		c0.113,0.419,0.198,0.788,0.265,1.118c0.051,0.132,0.092,0.237,0.121,0.316c0.156,0.155,0.292,0.298,0.417,0.431
		c-0.032-0.388-0.096-0.828-0.206-1.293C144.223,6.104,143.966,5.719,143.682,5.343L143.682,5.343z M131.014,4.725
		c-0.195,0.053-0.427,0.12-0.706,0.202c0.185,0.041,0.38,0.088,0.582,0.145C130.927,4.953,130.97,4.835,131.014,4.725L131.014,4.725
		z M127.761,4.682c-0.094,0.08-0.189,0.165-0.285,0.254h0.007c0.12-0.027,0.233-0.049,0.346-0.069
		C127.805,4.804,127.782,4.742,127.761,4.682L127.761,4.682z M126.579,4.349c-0.001,0-0.003,0.004-0.006,0.004
		C126.576,4.354,126.577,4.349,126.579,4.349L126.579,4.349z M127.116,3.704c-0.119,0.134-0.251,0.286-0.39,0.463
		c0.12-0.146,0.252-0.302,0.389-0.458L127.116,3.704L127.116,3.704z M127.146,3.647c-0.091,0.103-0.19,0.224-0.288,0.348
		C126.959,3.874,127.059,3.752,127.146,3.647L127.146,3.647L127.146,3.647z M127.173,3.643c-0.02,0.022-0.04,0.046-0.058,0.067l0,0
		C127.133,3.689,127.153,3.666,127.173,3.643L127.173,3.643z M129.704,3.54c-0.211,0.379-0.406,0.794-0.573,1.246
		c0.041,0.002,0.082,0.005,0.123,0.007c0.722-0.29,1.212-0.442,1.996-0.621c0.003-0.008,0.007-0.014,0.01-0.022
		C130.508,3.801,129.983,3.622,129.704,3.54L129.704,3.54z M127.735,3.33c-0.033,0.008-0.06,0.016-0.079,0.023
		c-0.021,0.03-0.044,0.057-0.063,0.082c0.001-0.013,0.003-0.027,0.004-0.039c0.004-0.01,0.007-0.018,0.008-0.027
		c-0.004,0.001-0.01,0.003-0.01,0.003c-0.004,0.006-0.249,0.21-0.594,0.6c-0.112,0.28-0.273,0.725-0.423,1.288
		c0.064-0.034,0.129-0.064,0.195-0.095c0.034-0.104,0.069-0.207,0.11-0.309c0.011,0.077,0.027,0.159,0.045,0.244
		c0.072-0.025,0.145-0.052,0.22-0.075c0.197-0.188,0.378-0.355,0.559-0.512c-0.121-0.411-0.143-0.733-0.127-0.97
		C127.633,3.47,127.685,3.4,127.735,3.33L127.735,3.33z M127.777,2.989c-0.024,0.024-0.051,0.048-0.077,0.072l0,0l0,0
		c0.024-0.021,0.048-0.044,0.069-0.063C127.773,2.995,127.775,2.993,127.777,2.989L127.777,2.989z M127.863,2.91
		c-0.009,0.007-0.016,0.013-0.024,0.02c-0.01,0.009-0.018,0.016-0.027,0.024l0,0l0,0c-0.008,0.009-0.021,0.021-0.035,0.036
		C127.807,2.962,127.835,2.937,127.863,2.91L127.863,2.91z M128.503,2.355c-0.114,0.095-0.23,0.193-0.363,0.313
		C128.281,2.542,128.396,2.443,128.503,2.355L128.503,2.355z M132.449,2.326c-1.092,0.221-1.942,0.633-2.43,0.865
		c0.028,0.015,0.066,0.027,0.095,0.04c0.508,0.21,0.972,0.443,1.297,0.616C131.712,3.27,132.063,2.763,132.449,2.326L132.449,2.326z
		 M141.354,1.957c1.273,0.953,1.852,2.002,2.23,3.094c0.291,0.366,0.546,0.724,0.77,1.075c-0.349-1.236-1.049-2.618-2.412-3.752
		c-0.033-0.025-0.065-0.051-0.099-0.077C141.683,2.177,141.52,2.064,141.354,1.957L141.354,1.957z M141.345,1.923L141.345,1.923
		c0.151,0.11,0.329,0.244,0.498,0.374c0.027,0.02,0.052,0.04,0.078,0.058C141.743,2.208,141.55,2.064,141.345,1.923L141.345,1.923
		L141.345,1.923z M129.2,1.849c-0.212,0.146-0.372,0.257-0.503,0.354c-0.062,0.045-0.122,0.094-0.181,0.144
		c0.195-0.156,0.394-0.296,0.681-0.495C129.196,1.852,129.199,1.851,129.2,1.849L129.2,1.849z M129.444,1.679
		c-0.031,0.023-0.062,0.042-0.091,0.063c0,0,0,0,0.001,0C129.383,1.722,129.413,1.702,129.444,1.679L129.444,1.679z M129.542,1.62
		l-0.098,0.06c-0.386,0.252-0.59,0.396-0.818,0.576c0.022-0.017,0.048-0.034,0.071-0.051c0.194-0.149,0.417-0.302,0.748-0.524l0,0
		l0,0L129.542,1.62L129.542,1.62L129.542,1.62z M129.688,1.537c-0.063,0.037-0.132,0.077-0.207,0.122
		c-0.041,0.025-0.085,0.054-0.126,0.083c-0.057,0.038-0.111,0.076-0.159,0.11c-0.247,0.175-0.459,0.346-0.644,0.516
		c0.081-0.063,0.162-0.122,0.243-0.181C129.062,1.957,129.358,1.745,129.688,1.537L129.688,1.537z M129.688,1.529
		c-0.05,0.028-0.098,0.061-0.146,0.091L129.688,1.529L129.688,1.529z M129.901,1.408c-0.004,0.001-0.009,0.004-0.011,0.007
		c0,0,0.001-0.003,0.002-0.004C129.894,1.41,129.898,1.41,129.901,1.408L129.901,1.408z M140.448,1.365
		c0.014,0.008,0.028,0.016,0.043,0.024c0.018,0.009,0.034,0.02,0.054,0.029c-0.023-0.012-0.047-0.026-0.07-0.037L140.448,1.365
		L140.448,1.365z M130.071,1.313c-0.015,0.005-0.027,0.014-0.044,0.02l0,0l0,0l0,0c-0.042,0.027-0.085,0.051-0.126,0.075
		C129.959,1.373,130.017,1.341,130.071,1.313L130.071,1.313z M130.185,1.255c-0.033,0.015-0.067,0.034-0.1,0.049
		c-0.004,0.001-0.008,0.006-0.014,0.009c0.03-0.017,0.059-0.031,0.091-0.046C130.169,1.262,130.177,1.258,130.185,1.255
		L130.185,1.255z M130.336,1.174c-0.048,0.023-0.092,0.045-0.138,0.069c0.019-0.009,0.04-0.02,0.063-0.03
		C130.287,1.2,130.311,1.188,130.336,1.174L130.336,1.174z M130.645,1.035c-0.068,0.03-0.133,0.061-0.198,0.091
		c0.01-0.003,0.021-0.007,0.03-0.011C130.532,1.088,130.588,1.059,130.645,1.035L130.645,1.035z M135.716,0.331
		c-0.168,0.001-0.353,0.004-0.559,0.01c0.126,0.008,0.251,0.018,0.38,0.032C135.597,0.357,135.657,0.343,135.716,0.331
		L135.716,0.331z M134.724,0.328c-0.655,0-1.295,0.086-1.907,0.231c-0.944,0.454-1.954,1.215-2.767,2.42
		c0.353-0.146,0.958-0.395,1.33-0.521c0.414-0.139,0.827-0.247,1.239-0.317c0.849-0.898,1.852-1.475,2.846-1.749
		c-0.122-0.016-0.242-0.027-0.367-0.039c-0.031-0.002-0.072-0.005-0.105-0.008c0.057-0.003,0.111-0.003,0.165-0.005
		C135.011,0.333,134.868,0.328,134.724,0.328L134.724,0.328z M136.316,0.06L136.316,0.06c0.342,0.045,0.56,0.075,0.723,0.103
		C136.773,0.111,136.639,0.094,136.316,0.06L136.316,0.06L136.316,0.06z M135.142,0.01c-0.101,0-0.217,0.001-0.353,0.001
		c-0.342,0.021-0.745,0.094-1.187,0.236c0.573-0.082,1.203-0.133,1.882-0.133c0.191,0,0.386,0.004,0.584,0.014
		C135.804,0.071,135.515,0.02,135.142,0.01L135.142,0.01z M135.224,0c-0.101,0-0.208,0.003-0.343,0.009c0.038,0,0.077,0,0.112,0
		c0.053,0,0.101,0,0.149,0.001c0.084,0,0.158,0,0.224,0c0.065,0,0.124,0,0.177,0C135.424,0.003,135.326,0,135.224,0L135.224,0z"/>
	<path fill="#777C7F" d="M137.546,21.25l-0.04,0.011c-0.057,0.013-0.109,0.026-0.163,0.038c0.006,0,0.009-0.002,0.011-0.002l0,0
		C137.421,21.282,137.483,21.267,137.546,21.25L137.546,21.25z M129.986,20.15c0.058,0.034,0.124,0.068,0.194,0.109l0,0
		c0.021,0.01,0.044,0.024,0.065,0.033c-0.062-0.034-0.13-0.074-0.201-0.114C130.025,20.17,130.004,20.158,129.986,20.15
		L129.986,20.15z M137.245,20.084c-0.272,0.156-0.525,0.281-0.748,0.382c0.2,0.028,0.392,0.049,0.579,0.066
		c0.255-0.119,0.502-0.25,0.74-0.392C137.625,20.128,137.434,20.11,137.245,20.084L137.245,20.084z M129.613,19.935
		c0.001,0.002,0.003,0.002,0.007,0.005c0.126,0.076,0.25,0.145,0.366,0.21C129.823,20.056,129.707,19.988,129.613,19.935
		L129.613,19.935z M140.653,19.792c-0.115,0.042-0.231,0.08-0.346,0.111c-0.184,0.159-0.371,0.298-0.565,0.425
		c0.115-0.033,0.227-0.068,0.333-0.105C140.279,20.092,140.472,19.949,140.653,19.792L140.653,19.792z M129.349,19.77
		c0.01,0.007,0.02,0.015,0.03,0.02L129.349,19.77L129.349,19.77z M137.82,19.725c-0.109,0.075-0.217,0.145-0.323,0.21
		c0.186,0.028,0.374,0.045,0.566,0.054c0.116-0.074,0.231-0.153,0.343-0.234C138.213,19.751,138.018,19.74,137.82,19.725
		L137.82,19.725z M135.361,19.676c-0.292,0.136-0.579,0.251-0.857,0.345c0.027,0.01,0.055,0.019,0.083,0.025
		c0.625,0.182,1.102,0.295,1.629,0.379c0.016,0.002,0.086,0.022,0.101,0.014c0.241-0.156,0.245-0.153,0.404-0.29
		c0.061-0.052,0.095-0.08,0.144-0.122C136.329,19.94,135.847,19.824,135.361,19.676L135.361,19.676z M128.971,19.509
		c0.02,0.016,0.041,0.031,0.063,0.048c0.016,0.01,0.033,0.023,0.048,0.034c-0.03-0.023-0.06-0.041-0.086-0.063
		C128.989,19.523,128.978,19.518,128.971,19.509L128.971,19.509z M141.567,19.435l-0.156,0.115c0.007-0.006,0.013-0.01,0.017-0.013
		C141.473,19.503,141.52,19.471,141.567,19.435L141.567,19.435z M141.575,19.428c-0.003,0.001-0.007,0.004-0.009,0.007l0.007-0.005
		L141.575,19.428L141.575,19.428z M135.929,19.384c-0.065,0.037-0.127,0.071-0.19,0.105c0.538,0.18,0.859,0.278,1.192,0.346
		c0.007,0.002,0.082,0.023,0.089,0.017c0.106-0.102,0.122-0.13,0.186-0.207c-0.006,0.009-0.08-0.004-0.091-0.006
		C136.887,19.605,136.543,19.553,135.929,19.384L135.929,19.384z M141.19,19.268c-0.125,0.048-0.254,0.097-0.383,0.139
		c-0.077,0.086-0.156,0.173-0.237,0.255c0.122-0.04,0.243-0.077,0.359-0.122C141.017,19.453,141.102,19.362,141.19,19.268
		L141.19,19.268z M142.009,19.089c-0.07,0.048-0.142,0.097-0.213,0.145c-0.063,0.054-0.136,0.119-0.221,0.194
		C141.718,19.319,141.87,19.2,142.009,19.089L142.009,19.089z M142.192,18.945L142.192,18.945L142.192,18.945L142.192,18.945
		L142.192,18.945z M128.127,18.844c0.004,0.004,0.008,0.01,0.017,0.016c0.072,0.063,0.132,0.114,0.184,0.159
		c-0.011-0.014-0.027-0.022-0.041-0.037c0.057,0.048,0.121,0.099,0.186,0.15C128.388,19.061,128.277,18.97,128.127,18.844
		L128.127,18.844z M128.079,18.803c0.008,0.006,0.017,0.014,0.026,0.023l0,0c0.007,0.005,0.014,0.013,0.022,0.018
		C128.111,18.831,128.094,18.817,128.079,18.803L128.079,18.803z M142.803,18.302c-0.145,0.121-0.293,0.234-0.45,0.339
		c-0.081,0.111-0.146,0.19-0.218,0.268c0.154-0.109,0.306-0.227,0.454-0.353C142.669,18.468,142.738,18.386,142.803,18.302
		L142.803,18.302z M127.219,17.949L127.219,17.949c0.013,0.014,0.024,0.025,0.034,0.04c0.112,0.124,0.232,0.25,0.358,0.375
		c0.013,0.012,0.026,0.024,0.039,0.039C127.553,18.299,127.424,18.165,127.219,17.949L127.219,17.949L127.219,17.949z
		 M137.927,18.485L137.927,18.485L137.927,18.485L137.927,18.485z M138.06,17.646c-0.25,0.51-0.886,0.942-1.183,1.148
		c0.296,0.011,0.775,0.028,0.958,0.022c0.02,0,0.311-0.499,0.326-0.525c0.21-0.346,0.298-0.592,0.298-0.592
		C138.585,17.712,138.193,17.668,138.06,17.646L138.06,17.646z M142.253,17.62c-0.153,0.075-0.313,0.142-0.475,0.205
		c-0.078,0.184-0.16,0.357-0.247,0.519c0.147-0.049,0.288-0.104,0.43-0.165c0.101-0.176,0.197-0.36,0.291-0.554v-0.001
		L142.253,17.62L142.253,17.62z M143.57,17.529l-0.101,0.122c-0.061,0.068-0.122,0.133-0.188,0.2
		c-0.055,0.071-0.106,0.13-0.148,0.18C143.279,17.875,143.426,17.708,143.57,17.529L143.57,17.529z M142.361,17.243
		c-0.144,0.061-0.288,0.116-0.431,0.166c-0.042,0.134-0.092,0.273-0.15,0.41l-0.001,0.006c0.162-0.063,0.322-0.129,0.475-0.205
		C142.294,17.495,142.33,17.368,142.361,17.243L142.361,17.243z M140.693,17.067c-0.189,0.083-0.804,0.316-0.807,0.32
		c-0.299,0.55-0.591,1.066-0.951,1.404c0.01-0.009,0.425,0.012,0.631-0.048c0.102-0.03,0,0,0,0
		C140.312,18.083,140.614,17.274,140.693,17.067L140.693,17.067z M126.492,17.042c0.091,0.127,0.188,0.257,0.29,0.386
		c0.008,0.011,0.017,0.022,0.027,0.034C126.733,17.362,126.635,17.231,126.492,17.042L126.492,17.042z M126.322,16.795
		c0.03,0.047,0.065,0.099,0.101,0.155l0,0c0.025,0.033,0.047,0.063,0.069,0.092C126.434,16.959,126.376,16.877,126.322,16.795
		L126.322,16.795z M143.638,16.48c-0.13,0.105-0.264,0.201-0.398,0.289c-0.015,0.066-0.034,0.129-0.051,0.19l-0.053,0.167l0,0
		c0,0-0.002,0.009-0.008,0.032c-0.061,0.177-0.118,0.332-0.179,0.473c0.147-0.101,0.289-0.212,0.427-0.329
		c0.045-0.112,0.078-0.21,0.109-0.292l0.054-0.169h-0.001l0.003-0.01C143.579,16.721,143.609,16.605,143.638,16.48L143.638,16.48z
		 M126.004,16.303c0.02,0.03,0.035,0.058,0.049,0.084c0.034,0.051,0.07,0.107,0.112,0.173
		C126.11,16.473,126.057,16.388,126.004,16.303L126.004,16.303z M142.513,16.099c-0.118,0.075-0.236,0.149-0.354,0.22
		c-0.017,0.165-0.042,0.332-0.075,0.499c0.129-0.075,0.263-0.156,0.395-0.244C142.497,16.417,142.508,16.256,142.513,16.099
		L142.513,16.099z M125.881,16.096c0.04,0.069,0.082,0.139,0.124,0.207c-0.019-0.031-0.037-0.066-0.058-0.104
		C125.922,16.163,125.901,16.128,125.881,16.096L125.881,16.096z M144.705,15.344c-0.118,0.169-0.241,0.325-0.37,0.471
		c-0.038,0.14-0.083,0.284-0.129,0.421l-0.001,0.003c0,0.003,0,0.003,0,0.003c-0.016,0.024-0.027,0.063-0.037,0.093
		c-0.037,0.097-0.078,0.188-0.12,0.278c0.124-0.148,0.241-0.306,0.357-0.474c0.036-0.082,0.072-0.164,0.106-0.25l0.006-0.01v-0.001
		C144.587,15.703,144.647,15.524,144.705,15.344L144.705,15.344z M143.81,15.095c-0.115,0.106-0.233,0.208-0.353,0.308
		c-0.014,0.171-0.031,0.34-0.054,0.503c0.128-0.104,0.252-0.211,0.377-0.325C143.793,15.425,143.803,15.262,143.81,15.095
		L143.81,15.095z M125.302,14.915c0.051,0.125,0.092,0.224,0.127,0.306c0.006,0.014,0.012,0.022,0.016,0.034
		c0.006,0.01,0.011,0.022,0.017,0.034c-0.018-0.041-0.038-0.085-0.058-0.13c0.007,0.014,0.011,0.028,0.02,0.041
		C125.386,15.11,125.345,15.014,125.302,14.915L125.302,14.915z M125.119,14.466c0.053,0.137,0.118,0.293,0.183,0.449
		c-0.024-0.062-0.054-0.131-0.085-0.208c0.002,0.008,0.005,0.014,0.008,0.021c-0.034-0.083-0.065-0.165-0.096-0.238
		C125.127,14.482,125.122,14.474,125.119,14.466L125.119,14.466z M145.525,13.814c-0.009,0.03-0.017,0.06-0.026,0.092
		C145.506,13.877,145.516,13.844,145.525,13.814L145.525,13.814z M124.874,13.709c0.069,0.262,0.125,0.419,0.245,0.757
		C125.003,14.111,124.928,13.888,124.874,13.709L124.874,13.709z M145.081,13.587c-0.147,0.229-0.307,0.448-0.475,0.66
		c-0.014,0.18-0.034,0.356-0.058,0.53c0.156-0.188,0.306-0.388,0.447-0.6C145.029,13.984,145.058,13.789,145.081,13.587
		L145.081,13.587z M145.656,13.307c0,0.004-0.001,0.005-0.001,0.008c-0.001,0.006-0.003,0.015-0.006,0.023
		C145.652,13.327,145.655,13.318,145.656,13.307L145.656,13.307z M124.68,12.924c0.075,0.355,0.115,0.524,0.194,0.786
		C124.826,13.528,124.771,13.298,124.68,12.924L124.68,12.924z M140.798,12.836c-0.233,0.025-0.47,0.038-0.715,0.038
		c-0.199,0-0.406-0.007-0.614-0.024c0.18,0.309,0.329,0.623,0.45,0.939c0.38-0.045,0.737-0.121,1.075-0.221
		C140.944,13.325,140.88,13.081,140.798,12.836L140.798,12.836z M145.788,12.725c-0.034,0.177-0.083,0.38-0.132,0.582
		c0.032-0.122,0.063-0.255,0.115-0.494C145.778,12.782,145.784,12.752,145.788,12.725L145.788,12.725z M141.588,12.686
		c-0.089,0.025-0.183,0.05-0.278,0.069c0.107,0.19,0.207,0.387,0.299,0.586c0.087-0.037,0.169-0.075,0.251-0.117
		C141.778,13.044,141.687,12.864,141.588,12.686L141.588,12.686z M137.86,12.578c0.153,0.4,0.279,0.806,0.379,1.207
		c0.287,0.032,0.565,0.05,0.834,0.051c-0.019-0.151-0.042-0.312-0.072-0.473c-0.048-0.217-0.096-0.409-0.145-0.583
		C138.529,12.731,138.199,12.663,137.86,12.578L137.86,12.578z M124.548,12.128c0.011,0.09,0.021,0.183,0.037,0.279l0.095,0.517l0,0
		l0,0l-0.065-0.357c0.007,0.038,0.015,0.08,0.024,0.125C124.599,12.456,124.569,12.28,124.548,12.128L124.548,12.128z
		 M124.514,11.798c0.006,0.091,0.016,0.17,0.023,0.247c0.002,0.026,0.008,0.054,0.011,0.084c-0.009-0.078-0.017-0.156-0.02-0.231
		C124.523,11.865,124.518,11.832,124.514,11.798L124.514,11.798z M143.413,11.557c-0.068,0.081-0.14,0.159-0.217,0.234
		c0.03,0.14,0.059,0.279,0.081,0.419c0.081-0.081,0.158-0.163,0.229-0.245C143.477,11.829,143.448,11.693,143.413,11.557
		L143.413,11.557z M145.919,11.469c-0.006,0.034-0.01,0.069-0.017,0.104c-0.004,0.199-0.019,0.407-0.045,0.631
		c0.01-0.045,0.02-0.095,0.029-0.145C145.903,11.863,145.914,11.67,145.919,11.469L145.919,11.469z M124.544,11.229
		c0,0.274,0.011,0.543,0.036,0.81c0.021,0.162,0.045,0.318,0.068,0.465c-0.004-0.025-0.016-0.062-0.02-0.091
		c-0.007-0.02-0.011-0.04-0.016-0.06c0.03,0.243,0.069,0.485,0.119,0.726c0.214,0.84,0.685,2.236,1.675,3.755
		c-0.391-0.55-0.519-0.729-0.761-1.181c0.022,0.046,0.045,0.095,0.072,0.146l0,0c0.094,0.165,0.167,0.294,0.23,0.399
		c0.168,0.267,0.38,0.58,0.551,0.819c0.774,0.952,1.273,1.565,2.13,2.233c-0.053-0.04-0.104-0.08-0.155-0.119
		c0.166,0.136,0.261,0.207,0.45,0.345c0.016,0.01,0.031,0.021,0.048,0.032c-0.036-0.025-0.074-0.052-0.109-0.081
		c0.04,0.031,0.085,0.064,0.135,0.101c0.004,0,0.005,0.003,0.007,0.006c-0.037-0.029-0.072-0.055-0.111-0.084
		c0.086,0.064,0.179,0.129,0.273,0.194c0.01,0.009,0.02,0.013,0.03,0.02c0.101,0.065,0.186,0.122,0.256,0.167
		c0.04,0.026,0.078,0.048,0.119,0.074c-0.938-0.619-1.493-1.101-2.279-1.977c0.075,0.074,0.179,0.177,0.254,0.252
		c1.838,1.68,3.839,2.608,5.692,3.018c0.113,0.011,0.223,0.021,0.33,0.025c-1.487-0.292-2.849-0.873-4.024-1.605
		c-0.637-0.349-1.209-0.791-1.719-1.278c-0.363-0.322-0.696-0.652-0.997-0.984c-0.281-0.387-0.729-1.007-1.17-1.923
		c-0.22-0.417-0.382-0.789-0.482-1.076c-0.013-0.051-0.021-0.106-0.03-0.159c-0.022-0.066-0.045-0.133-0.068-0.2
		c0.019,0.028,0.035,0.059,0.051,0.083c-0.021-0.156-0.033-0.312-0.039-0.463c-0.086-0.163-0.154-0.308-0.206-0.43
		c0.006,0.081,0.016,0.167,0.021,0.238c-0.021-0.111-0.053-0.247-0.078-0.369c-0.013-0.03-0.023-0.06-0.034-0.085
		C124.684,12.443,124.585,11.875,124.544,11.229L124.544,11.229z M124.467,11.201c0.003,0.042,0.004,0.088,0.006,0.129
		c0.006,0.069,0.009,0.135,0.013,0.193c0.004,0.072,0.014,0.167,0.028,0.275C124.5,11.641,124.485,11.45,124.467,11.201
		L124.467,11.201z M145.954,11.188c-0.007,0.043-0.01,0.083-0.016,0.119c0.003,0.058,0.004,0.113,0.004,0.162l-0.015,0.244
		c0.006-0.079,0.013-0.166,0.017-0.255C145.95,11.373,145.951,11.283,145.954,11.188L145.954,11.188z M124.463,11.147l0.014,0.257
		c-0.003-0.023-0.003-0.047-0.004-0.074C124.47,11.273,124.467,11.212,124.463,11.147L124.463,11.147z M125.339,10.899
		c-0.113,0.208-0.209,0.437-0.286,0.687c0.069,0.204,0.152,0.408,0.243,0.612c0.081-0.232,0.181-0.459,0.302-0.672
		C125.498,11.31,125.414,11.102,125.339,10.899L125.339,10.899z M124.529,10.159c-0.021,0.13-0.038,0.272-0.048,0.425
		c0,0.282,0.01,0.549,0.031,0.803c0.001-0.153,0.007-0.288,0.017-0.4C124.52,10.723,124.518,10.448,124.529,10.159L124.529,10.159z
		 M124.479,10.126c-0.015,0.188-0.021,0.356-0.021,0.568c0,0.131,0.004,0.275,0.006,0.453l0,0l0,0
		C124.464,10.675,124.464,10.391,124.479,10.126L124.479,10.126z M126.501,9.539c-0.048,0.038-0.097,0.078-0.146,0.12
		c0.045,0.244,0.102,0.488,0.17,0.736c0.048-0.041,0.094-0.081,0.141-0.121C126.601,10.031,126.547,9.788,126.501,9.539
		L126.501,9.539z M124.581,9.142c-0.061,0.441-0.089,0.704-0.102,0.984C124.495,9.881,124.528,9.601,124.581,9.142L124.581,9.142z
		 M124.894,8.786c-0.041,0.122-0.085,0.252-0.132,0.391c-0.035,0.119-0.077,0.258-0.116,0.413c0.012,0.211,0.033,0.424,0.064,0.637
		c0.05-0.306,0.124-0.61,0.229-0.91C124.917,9.132,124.901,8.953,124.894,8.786L124.894,8.786z M124.805,8.066
		c-0.001,0.005-0.004,0.01-0.006,0.014c-0.023,0.094-0.047,0.186-0.066,0.283c-0.026,0.125-0.056,0.264-0.083,0.4
		c-0.021,0.114-0.045,0.238-0.069,0.378c0.017-0.095,0.036-0.201,0.057-0.31c-0.006,0.033-0.01,0.064-0.017,0.097
		C124.692,8.561,124.744,8.31,124.805,8.066L124.805,8.066z M130.362,7.72c-0.699,0.152-1.325,0.379-1.896,0.646
		c0.001,0.031,0.001,0.063,0.001,0.095c-0.006,0.262,0.001,0.529,0.017,0.794c0.722-0.271,1.519-0.442,2.349-0.513
		c-0.169-0.152-0.339-0.308-0.502-0.465C130.337,8.087,130.348,7.904,130.362,7.72L130.362,7.72z M144.121,7.046
		c0.181,0.904,0.209,1.499,0.227,1.925c0.045,0.07,0.088,0.14,0.133,0.209c-0.045-0.069-0.088-0.139-0.133-0.209
		c-0.027,0.38-0.083,0.729-0.168,1.046c0.055,0.216,0.104,0.427,0.149,0.635c0.167-0.401,0.27-0.811,0.309-1.211l0,0l0,0
		c0.001-0.011,0.037-0.241,0.049-0.624c-0.048-0.194-0.104-0.391-0.159-0.591c0.054,0.058,0.109,0.121,0.16,0.18
		c-0.001-0.186-0.011-0.39-0.03-0.612c-0.125-0.133-0.261-0.276-0.417-0.431C144.213,7.283,144.171,7.178,144.121,7.046
		L144.121,7.046z M125.213,6.821c-0.024,0.055-0.047,0.11-0.071,0.167l0,0c-0.158,0.479-0.254,0.769-0.331,1.05
		c-0.003,0.01-0.004,0.019-0.007,0.027c0.051-0.17,0.107-0.329,0.173-0.471c0.025-0.131,0.054-0.251,0.086-0.361
		C125.108,7.101,125.156,6.965,125.213,6.821L125.213,6.821z M126.437,6.577c-0.047,0.046-0.093,0.093-0.143,0.142
		c-0.024,0.187-0.041,0.377-0.057,0.576c0.041-0.045,0.088-0.088,0.134-0.133C126.387,6.967,126.408,6.771,126.437,6.577
		L126.437,6.577z M125.769,5.617L125.769,5.617L125.769,5.617L125.769,5.617L125.769,5.617z M125.806,5.553
		c-0.001,0.006-0.004,0.008-0.007,0.014c-0.011,0.02-0.022,0.04-0.033,0.06C125.78,5.603,125.793,5.576,125.806,5.553L125.806,5.553
		z M126.775,5.165c-0.065,0.031-0.131,0.061-0.195,0.095c-0.072,0.275-0.14,0.578-0.198,0.903c0.038-0.052,0.063-0.081,0.063-0.082
		c0.004,0,0.032-0.017,0.092-0.04C126.598,5.746,126.679,5.455,126.775,5.165L126.775,5.165z M143.585,5.051
		c0.034,0.095,0.065,0.193,0.098,0.292c0.284,0.376,0.541,0.761,0.77,1.158c-0.027-0.123-0.06-0.247-0.098-0.375
		C144.13,5.775,143.875,5.417,143.585,5.051L143.585,5.051z M126.41,4.594c-0.23,0.342-0.421,0.632-0.604,0.959
		C125.984,5.258,126.207,4.903,126.41,4.594L126.41,4.594z M127.709,4.512c-0.18,0.156-0.361,0.323-0.559,0.512
		c-0.075,0.023-0.147,0.05-0.22,0.075c0.042,0.21,0.106,0.448,0.232,0.749c0.071-0.02,0.149-0.034,0.231-0.051
		c-0.049,0.034-0.115,0.081-0.194,0.141c0.057,0.132,0.129,0.257,0.204,0.378c0.267-0.185,0.553-0.366,0.868-0.55
		c-0.194-0.329-0.339-0.629-0.442-0.899c-0.113,0.02-0.227,0.042-0.346,0.069h-0.007c0.096-0.089,0.191-0.174,0.285-0.254
		C127.741,4.623,127.724,4.567,127.709,4.512L127.709,4.512z M126.579,4.349L126.579,4.349c-0.054,0.078-0.111,0.159-0.169,0.245
		c0.054-0.076,0.108-0.157,0.163-0.241C126.576,4.354,126.577,4.349,126.579,4.349L126.579,4.349L126.579,4.349z M126.581,4.343
		c-0.001,0.002-0.001,0.003-0.002,0.006C126.58,4.346,126.58,4.345,126.581,4.343L126.581,4.343z M131.25,4.172
		c-0.783,0.179-1.273,0.332-1.996,0.621c-0.041-0.002-0.082-0.005-0.123-0.007c-0.105,0.283-0.201,0.577-0.284,0.892
		c0.377,0.009,0.987,0.074,1.778,0.308c0.075-0.317,0.165-0.623,0.264-0.914c-0.202-0.057-0.397-0.104-0.582-0.145
		c0.279-0.082,0.511-0.149,0.706-0.202C131.088,4.534,131.167,4.349,131.25,4.172L131.25,4.172z M127.146,3.647
		c-0.086,0.105-0.187,0.227-0.288,0.348c-0.097,0.124-0.193,0.245-0.277,0.349c0.045-0.055,0.095-0.115,0.145-0.176
		c0.139-0.177,0.271-0.329,0.39-0.463C127.133,3.67,127.141,3.649,127.146,3.647L127.146,3.647z M127.77,2.998
		c-0.021,0.02-0.045,0.042-0.069,0.063l0,0c-0.163,0.173-0.348,0.373-0.527,0.582c-0.02,0.022-0.04,0.046-0.058,0.067
		c-0.026,0.055-0.064,0.145-0.112,0.262c0.346-0.39,0.59-0.594,0.594-0.6c0,0,0.006-0.001,0.01-0.003
		C127.645,3.168,127.717,3.06,127.77,2.998L127.77,2.998z M127.812,2.954L127.812,2.954L127.812,2.954L127.812,2.954z
		 M127.921,2.857c-0.025,0.024-0.054,0.047-0.083,0.072c0.009-0.007,0.016-0.013,0.024-0.02
		C127.883,2.894,127.901,2.875,127.921,2.857L127.921,2.857z M128.508,2.351c-0.177,0.141-0.35,0.291-0.587,0.506
		c0.079-0.07,0.153-0.132,0.218-0.189c0.133-0.12,0.25-0.218,0.363-0.313C128.504,2.354,128.507,2.351,128.508,2.351L128.508,2.351z
		 M141.843,2.297c0.034,0.025,0.066,0.051,0.099,0.077c-0.007-0.006-0.014-0.011-0.021-0.019
		C141.896,2.337,141.87,2.317,141.843,2.297L141.843,2.297z M128.697,2.204c-0.022,0.017-0.048,0.034-0.071,0.051
		c-0.038,0.031-0.075,0.063-0.118,0.096c0.004-0.001,0.004-0.004,0.007-0.004C128.575,2.297,128.635,2.249,128.697,2.204
		L128.697,2.204z M128.795,2.187c-0.081,0.059-0.162,0.119-0.243,0.181c-0.431,0.389-0.713,0.743-0.896,0.984
		c0.02-0.007,0.046-0.015,0.079-0.023C128.067,2.887,128.406,2.517,128.795,2.187L128.795,2.187z M132.619,2.142
		c-0.413,0.071-0.825,0.178-1.239,0.317c-0.372,0.126-0.977,0.374-1.33,0.521c-0.119,0.177-0.235,0.364-0.346,0.56
		c0.279,0.083,0.804,0.261,1.556,0.61c0.048-0.104,0.098-0.204,0.151-0.304c-0.326-0.173-0.79-0.405-1.297-0.616
		c-0.028-0.012-0.066-0.025-0.095-0.04c0.488-0.232,1.338-0.644,2.43-0.865C132.504,2.263,132.561,2.201,132.619,2.142
		L132.619,2.142z M129.444,1.679c-0.331,0.223-0.553,0.375-0.748,0.524c0.132-0.098,0.291-0.208,0.503-0.354
		c0.05-0.037,0.101-0.072,0.153-0.107C129.383,1.722,129.413,1.702,129.444,1.679L129.444,1.679L129.444,1.679z M140.886,1.631
		c0.165,0.108,0.32,0.215,0.468,0.326c0.166,0.107,0.329,0.22,0.489,0.34c-0.169-0.13-0.347-0.264-0.498-0.374l0,0
		C141.209,1.836,141.048,1.731,140.886,1.631L140.886,1.631z M129.542,1.62l-0.098,0.06c0.02-0.012,0.044-0.025,0.063-0.037
		C129.518,1.634,129.529,1.628,129.542,1.62L129.542,1.62z M129.892,1.411c-0.001,0.001-0.002,0.002-0.002,0.002
		c-0.112,0.067-0.237,0.139-0.383,0.229c-0.009,0.004-0.017,0.01-0.026,0.017c0.075-0.045,0.144-0.085,0.207-0.122
		C129.756,1.495,129.824,1.455,129.892,1.411L129.892,1.411z M140.491,1.39c0.122,0.072,0.259,0.156,0.396,0.241
		c-0.109-0.069-0.224-0.142-0.342-0.212C140.525,1.41,140.509,1.398,140.491,1.39L140.491,1.39z M130.027,1.333L130.027,1.333
		L130.027,1.333L130.027,1.333L130.027,1.333z M131.028,0.856c-0.296,0.13-0.503,0.221-0.692,0.318
		c-0.025,0.014-0.049,0.026-0.075,0.04c-0.022,0.01-0.043,0.021-0.063,0.03c-0.037,0.02-0.075,0.042-0.113,0.061
		c0.033-0.016,0.067-0.034,0.1-0.049c-0.007,0.003-0.016,0.007-0.023,0.012c0.101-0.049,0.207-0.102,0.315-0.153
		c-0.009,0.004-0.02,0.008-0.03,0.011c0.065-0.03,0.13-0.061,0.198-0.091C130.772,0.971,130.903,0.913,131.028,0.856L131.028,0.856z
		 M131.278,0.749L131.278,0.749c-0.083,0.034-0.166,0.069-0.25,0.107C131.105,0.822,131.186,0.789,131.278,0.749L131.278,0.749z
		 M132.151,0.448c-0.264,0.075-0.487,0.154-0.874,0.301C131.689,0.604,131.939,0.517,132.151,0.448L132.151,0.448z M135.157,0.341
		c-0.054,0.002-0.108,0.002-0.165,0.005c0.033,0.003,0.074,0.006,0.105,0.008c0.125,0.011,0.245,0.023,0.367,0.039
		c0.024-0.007,0.05-0.016,0.073-0.02C135.408,0.359,135.283,0.349,135.157,0.341L135.157,0.341z M133.073,0.219
		c-0.425,0.093-0.642,0.145-0.921,0.229C132.384,0.383,132.642,0.323,133.073,0.219L133.073,0.219z M133.915,0.082
		c-0.271,0.03-0.465,0.065-0.842,0.137C133.471,0.153,133.715,0.112,133.915,0.082L133.915,0.082z M134.762,0.013
		c-0.384,0.02-0.57,0.032-0.847,0.069C134.117,0.061,134.363,0.042,134.762,0.013L134.762,0.013z M134.85,0.01l-0.088,0.003
		c0.02-0.002,0.041-0.002,0.061-0.002C134.833,0.01,134.84,0.01,134.85,0.01L134.85,0.01z M135.366,0.01c-0.066,0-0.14,0-0.224,0
		c0.373,0.01,0.662,0.061,0.926,0.118c-0.199-0.01-0.393-0.014-0.584-0.014c-0.679,0-1.309,0.051-1.882,0.133
		c-0.251,0.081-0.516,0.184-0.785,0.312c0.612-0.145,1.252-0.231,1.907-0.231c0.145,0,0.288,0.005,0.434,0.013
		c0.206-0.006,0.328,0.008,0.495,0.005c0.265-0.06,0.696-0.142,1.16-0.142c0.326,0,0.641,0.036,0.943,0.104l-0.016-0.006l0,0
		c-0.33-0.067-0.539-0.112-0.7-0.14c-0.163-0.027-0.381-0.057-0.723-0.103l0,0c-0.362-0.025-0.591-0.042-0.773-0.049
		C135.489,0.01,135.431,0.01,135.366,0.01L135.366,0.01z M134.993,0.009c-0.035,0-0.074,0-0.112,0
		c-0.019,0.001-0.037,0.001-0.058,0.002c-0.01,0-0.023,0-0.034,0c0.136,0,0.252-0.001,0.353-0.001
		C135.094,0.009,135.046,0.009,134.993,0.009L134.993,0.009z"/>
	<g>
		<path fill="#777C7F" d="M206.932,45.458H191.44l9.103-10.778c1.08-1.283,1.623-2.375,1.623-3.27c0-0.719-0.227-1.303-0.679-1.746
			s-1.038-0.663-1.76-0.663c-1.801,0-2.701,1.079-2.701,3.241v0.25h-4.878v-0.139c0-2.33,0.67-4.146,2.009-5.453
			c1.34-1.305,3.178-1.961,5.514-1.961c2.143,0,3.887,0.526,5.237,1.58c1.478,1.154,2.218,2.774,2.218,4.861
			c0,1.811-0.915,3.723-2.744,5.736l-3.658,4.029h6.208V45.458z M224.623,35.664c0,2.846-0.555,5.182-1.662,7.011
			c-1.337,2.216-3.338,3.325-5.998,3.325c-2.68,0-4.692-1.141-6.041-3.424c-1.101-1.854-1.649-4.225-1.649-7.105
			c0-2.873,0.549-5.238,1.649-7.095c1.348-2.272,3.361-3.407,6.041-3.407c2.733,0,4.763,1.159,6.082,3.477
			C224.098,30.294,224.623,32.7,224.623,35.664z M214.386,35.471c0,4.26,0.86,6.387,2.577,6.387c1.697,0,2.55-2.127,2.55-6.387
			c0-4.258-0.853-6.388-2.55-6.388c-1.137,0-1.9,0.851-2.286,2.548C214.483,32.484,214.386,33.762,214.386,35.471z M241.971,45.458
			h-15.49l9.105-10.778c1.079-1.283,1.62-2.375,1.62-3.27c0-0.719-0.228-1.303-0.681-1.746s-1.038-0.663-1.758-0.663
			c-1.8,0-2.702,1.079-2.702,3.241v0.25h-4.876v-0.139c0-2.33,0.67-4.146,2.008-5.453c1.338-1.305,3.177-1.961,5.514-1.961
			c2.143,0,3.89,0.526,5.237,1.58c1.479,1.154,2.216,2.774,2.216,4.861c0,1.811-0.917,3.723-2.742,5.736l-3.658,4.029h6.206
			L241.971,45.458L241.971,45.458z M259.664,35.664c0,2.846-0.553,5.182-1.664,7.011c-1.339,2.216-3.338,3.325-5.998,3.325
			c-2.679,0-4.692-1.141-6.042-3.424c-1.097-1.854-1.647-4.225-1.647-7.105c0-2.873,0.55-5.238,1.647-7.095
			c1.35-2.272,3.363-3.407,6.042-3.407c2.734,0,4.76,1.159,6.083,3.477C259.137,30.294,259.664,32.7,259.664,35.664z
			 M249.425,35.471c0,4.26,0.856,6.387,2.576,6.387c1.701,0,2.548-2.127,2.548-6.387c0-4.258-0.848-6.388-2.548-6.388
			c-1.137,0-1.9,0.851-2.285,2.548C249.521,32.484,249.425,33.762,249.425,35.471z"/>
	</g>
</g>
<g>
	<path fill="#777C7F" d="M539.139,0.408v45.185h69.004V0.408H539.139z M586.558,15.338l0.479-1.477l0.482,1.477h1.555l-1.256,0.914
		l0.477,1.486l-1.258-0.918l-1.258,0.918l0.479-1.486L585,15.338H586.558z M556.251,22.613h1.559l0.48-1.486l0.482,1.486h1.555
		l-1.26,0.905l0.48,1.483l-1.258-0.916l-1.26,0.916l0.48-1.483L556.251,22.613z M561.5,33.252l-1.258-0.914l-1.26,0.914l0.479-1.479
		l-1.254-0.916h1.557l0.48-1.477l0.482,1.477h1.555l-1.258,0.916L561.5,33.252z M561.023,16.252l0.479,1.486l-1.258-0.918
		l-1.26,0.918l0.479-1.486l-1.254-0.914h1.557l0.479-1.477l0.482,1.477h1.555L561.023,16.252z M565.251,9.633l0.482-1.479
		l0.479,1.479h1.555l-1.256,0.912l0.482,1.477l-1.26-0.918l-1.258,0.918l0.479-1.477l-1.258-0.912H565.251z M567.416,38.811
		l-1.256-0.914l-1.258,0.914l0.479-1.482l-1.26-0.906h1.563l0.479-1.477l0.479,1.477h1.559l-1.258,0.906L567.416,38.811z
		 M574.99,40.469l-1.26-0.906l-1.262,0.906l0.482-1.477l-1.264-0.916h1.561l0.48-1.477l0.479,1.477h1.553l-1.254,0.916
		L574.99,40.469z M574.505,8.326l0.482,1.479l-1.26-0.918l-1.26,0.918l0.482-1.479l-1.264-0.924h1.561l0.479-1.478l0.479,1.478
		h1.553L574.505,8.326z M582.371,38.811l-1.256-0.914l-1.26,0.914l0.486-1.482l-1.262-0.906h1.553l0.48-1.477l0.479,1.477h1.559
		l-1.262,0.906L582.371,38.811z M582.324,10.545l0.479,1.477l-1.258-0.918l-1.262,0.918l0.479-1.477l-1.252-0.912h1.551l0.484-1.479
		l0.48,1.479h1.555L582.324,10.545z M588.292,33.252l-1.258-0.914l-1.258,0.914l0.479-1.479l-1.258-0.916h1.563l0.479-1.477
		l0.482,1.477h1.553l-1.256,0.916L588.292,33.252z M590.244,25.004l-1.258-0.916l-1.258,0.916l0.48-1.484l-1.26-0.904h1.553
		l0.482-1.486l0.479,1.486h1.557l-1.26,0.904L590.244,25.004z"/>
	<g>
		<path fill="#777C7F" d="M622.458,2.439h0.963v4.199c0,0.732-0.084,1.313-0.248,1.742c-0.166,0.429-0.463,0.777-0.895,1.049
			c-0.434,0.271-0.998,0.402-1.699,0.402c-0.682,0-1.236-0.115-1.67-0.354c-0.434-0.232-0.744-0.57-0.928-1.018
			c-0.188-0.445-0.279-1.053-0.279-1.824V2.438h0.963v4.195c0,0.631,0.063,1.096,0.18,1.396c0.113,0.299,0.316,0.527,0.604,0.689
			s0.637,0.242,1.049,0.242c0.709,0,1.213-0.158,1.512-0.48c0.303-0.318,0.453-0.936,0.453-1.85V2.438h-0.004V2.439z"/>
		<path fill="#777C7F" d="M625.014,9.711V2.439h0.984l3.816,5.707V2.439h0.924v7.271h-0.986l-3.814-5.713v5.713H625.014z"/>
		<path fill="#777C7F" d="M632.522,9.711V2.439h0.961v7.271H632.522z"/>
		<path fill="#777C7F" d="M634.377,9.711l2.793-7.271h1.035l2.977,7.271h-1.098l-0.848-2.203h-3.039l-0.797,2.203H634.377z
			 M636.124,1.994c-0.004-0.346,0.092-0.619,0.283-0.824c0.188-0.203,0.43-0.307,0.723-0.307c0.205,0,0.484,0.088,0.838,0.268
			c0.195,0.1,0.354,0.148,0.471,0.148c0.104,0,0.188-0.027,0.238-0.086c0.061-0.061,0.1-0.176,0.119-0.348h0.646
			c-0.01,0.377-0.105,0.66-0.285,0.852c-0.18,0.188-0.408,0.279-0.688,0.279c-0.209,0-0.48-0.092-0.822-0.275
			c-0.223-0.119-0.385-0.18-0.486-0.18c-0.111,0-0.203,0.039-0.27,0.119c-0.072,0.078-0.107,0.195-0.105,0.354H636.124z
			 M636.477,6.723h2.465l-0.76-2.012c-0.23-0.613-0.402-1.115-0.518-1.506c-0.094,0.465-0.223,0.928-0.393,1.387L636.477,6.723z"/>
		<path fill="#777C7F" d="M641.659,6.168c0-1.205,0.324-2.15,0.971-2.834c0.648-0.68,1.484-1.023,2.508-1.023
			c0.674,0,1.275,0.162,1.816,0.482c0.537,0.32,0.949,0.766,1.232,1.342c0.277,0.572,0.422,1.223,0.422,1.949
			c0,0.738-0.146,1.396-0.445,1.979c-0.297,0.582-0.717,1.023-1.264,1.32c-0.545,0.301-1.137,0.449-1.77,0.449
			c-0.682,0-1.295-0.164-1.832-0.494c-0.541-0.332-0.945-0.783-1.227-1.354C641.795,7.41,641.659,6.807,641.659,6.168z
			 M642.649,6.184c0,0.877,0.234,1.566,0.709,2.068c0.469,0.506,1.059,0.76,1.77,0.76c0.725,0,1.32-0.258,1.787-0.766
			c0.467-0.51,0.701-1.232,0.701-2.166c0-0.594-0.1-1.107-0.299-1.549c-0.199-0.443-0.492-0.785-0.879-1.027
			s-0.816-0.363-1.295-0.363c-0.684,0-1.27,0.234-1.762,0.701C642.893,4.309,642.649,5.09,642.649,6.184z"/>
		<path fill="#777C7F" d="M652.692,9.711V2.439h5.256v0.859h-4.295v2.229h4.02v0.852h-4.02v2.475h4.463v0.859L652.692,9.711
			L652.692,9.711z"/>
		<path fill="#777C7F" d="M664.211,2.439h0.963v4.199c0,0.732-0.084,1.313-0.25,1.742s-0.463,0.777-0.895,1.049
			c-0.434,0.271-0.998,0.402-1.699,0.402c-0.682,0-1.236-0.115-1.67-0.354c-0.432-0.232-0.742-0.57-0.928-1.018
			c-0.186-0.445-0.277-1.053-0.277-1.824V2.438h0.963v4.195c0,0.631,0.063,1.096,0.178,1.396c0.115,0.299,0.318,0.527,0.604,0.689
			c0.287,0.162,0.637,0.242,1.049,0.242c0.707,0,1.213-0.158,1.512-0.48c0.303-0.318,0.453-0.936,0.453-1.85V2.439H664.211z"/>
		<path fill="#777C7F" d="M666.79,9.711V2.439h3.225c0.646,0,1.141,0.066,1.479,0.197c0.336,0.129,0.606,0.361,0.808,0.691
			c0.203,0.33,0.303,0.693,0.303,1.096c0,0.516-0.166,0.951-0.5,1.305c-0.333,0.354-0.849,0.578-1.548,0.674
			c0.258,0.125,0.447,0.242,0.58,0.361c0.281,0.258,0.549,0.58,0.8,0.967l1.262,1.98h-1.209l-0.96-1.514
			c-0.281-0.438-0.514-0.771-0.693-1.002c-0.184-0.23-0.344-0.395-0.488-0.484c-0.145-0.094-0.289-0.158-0.439-0.193
			c-0.105-0.023-0.285-0.035-0.535-0.035h-1.113v3.229H666.79L666.79,9.711z M667.752,5.648h2.066c0.439,0,0.785-0.047,1.031-0.137
			c0.248-0.09,0.436-0.234,0.564-0.436s0.193-0.418,0.193-0.652c0-0.344-0.125-0.627-0.373-0.848
			c-0.252-0.223-0.646-0.332-1.186-0.332h-2.301v2.403L667.752,5.648L667.752,5.648z"/>
		<path fill="#777C7F" d="M673.818,6.168c0-1.205,0.324-2.15,0.971-2.834c0.648-0.68,1.484-1.023,2.508-1.023
			c0.672,0,1.275,0.162,1.816,0.482c0.537,0.32,0.949,0.766,1.229,1.342c0.281,0.572,0.426,1.223,0.426,1.949
			c0,0.738-0.146,1.396-0.445,1.979c-0.297,0.582-0.719,1.023-1.266,1.32c-0.547,0.301-1.135,0.449-1.768,0.449
			c-0.682,0-1.295-0.164-1.832-0.494c-0.541-0.332-0.949-0.783-1.227-1.354C673.955,7.41,673.818,6.807,673.818,6.168z
			 M674.808,6.184c0,0.877,0.234,1.566,0.709,2.068c0.469,0.506,1.059,0.76,1.77,0.76c0.723,0,1.32-0.258,1.787-0.766
			c0.467-0.51,0.701-1.232,0.701-2.166c0-0.594-0.102-1.107-0.299-1.549c-0.199-0.443-0.492-0.785-0.881-1.027
			c-0.385-0.242-0.814-0.363-1.295-0.363c-0.682,0-1.268,0.234-1.76,0.701C675.05,4.309,674.808,5.09,674.808,6.184z"/>
		<path fill="#777C7F" d="M682.005,9.711V2.439h2.742c0.482,0,0.854,0.025,1.105,0.07c0.357,0.063,0.654,0.174,0.896,0.34
			c0.24,0.166,0.438,0.4,0.582,0.701c0.148,0.301,0.221,0.633,0.221,0.99c0,0.621-0.195,1.143-0.588,1.57
			c-0.395,0.43-1.104,0.643-2.135,0.643h-1.863v2.957H682.005z M682.966,5.898h1.883c0.619,0,1.063-0.115,1.322-0.35
			c0.262-0.229,0.393-0.559,0.393-0.977c0-0.305-0.074-0.564-0.23-0.781c-0.154-0.217-0.355-0.359-0.605-0.428
			c-0.162-0.045-0.461-0.064-0.896-0.064h-1.861v2.6H682.966z"/>
		<path fill="#777C7F" d="M688.798,9.711V2.439h5.258v0.859h-4.295v2.229h4.021v0.852h-4.021v2.475h4.465v0.859L688.798,9.711
			L688.798,9.711z"/>
		<path fill="#777C7F" d="M695.714,9.711V2.439h0.961v7.271H695.714z"/>
		<path fill="#777C7F" d="M697.576,9.711l2.791-7.271h1.035l2.977,7.271h-1.098l-0.848-2.203h-3.039l-0.799,2.203H697.576z
			 M699.671,6.723h2.463l-0.758-2.012c-0.229-0.613-0.4-1.115-0.516-1.506c-0.092,0.465-0.225,0.928-0.393,1.387L699.671,6.723z"/>
		<path fill="#777C7F" d="M617.6,34.531v-6.06h4.088v0.715h-3.285v1.877h2.844v0.716h-2.844v2.752H617.6z"/>
		<path fill="#777C7F" d="M625.508,34.531v-0.646c-0.342,0.494-0.807,0.744-1.393,0.744c-0.26,0-0.5-0.052-0.727-0.15
			c-0.225-0.1-0.393-0.223-0.5-0.373c-0.107-0.149-0.186-0.334-0.229-0.553c-0.031-0.146-0.047-0.377-0.047-0.692v-2.718h0.746
			v2.433c0,0.39,0.016,0.649,0.045,0.785c0.047,0.194,0.145,0.35,0.299,0.461c0.148,0.112,0.336,0.168,0.561,0.168
			s0.434-0.06,0.629-0.172c0.193-0.115,0.334-0.271,0.414-0.468c0.082-0.196,0.121-0.483,0.121-0.858v-2.349h0.744v4.388H625.508z"
			/>
		<path fill="#777C7F" d="M627.336,34.531v-4.388h0.67v0.623c0.322-0.481,0.789-0.724,1.396-0.724c0.266,0,0.508,0.048,0.729,0.142
			c0.225,0.097,0.393,0.222,0.498,0.375c0.111,0.154,0.189,0.338,0.232,0.55c0.025,0.139,0.039,0.379,0.039,0.723v2.699h-0.742
			v-2.668c0-0.306-0.029-0.531-0.086-0.683c-0.061-0.149-0.16-0.271-0.309-0.358c-0.148-0.09-0.32-0.136-0.52-0.136
			c-0.316,0-0.59,0.103-0.82,0.304c-0.229,0.201-0.344,0.582-0.344,1.146v2.396H627.336z"/>
		<path fill="#777C7F" d="M634.893,34.531v-0.554c-0.277,0.435-0.689,0.652-1.23,0.652c-0.348,0-0.67-0.099-0.963-0.289
			c-0.295-0.193-0.523-0.461-0.684-0.81c-0.16-0.347-0.242-0.742-0.242-1.19c0-0.438,0.074-0.837,0.221-1.193
			s0.363-0.629,0.656-0.819c0.291-0.188,0.619-0.283,0.979-0.283c0.268,0,0.5,0.056,0.707,0.166
			c0.207,0.111,0.375,0.259,0.506,0.437v-2.174h0.738v6.06L634.893,34.531L634.893,34.531z M632.54,32.342
			c0,0.563,0.119,0.982,0.357,1.26c0.234,0.279,0.516,0.416,0.838,0.416c0.326,0,0.602-0.131,0.828-0.396s0.342-0.67,0.342-1.217
			c0-0.602-0.117-1.039-0.35-1.322c-0.23-0.279-0.516-0.42-0.854-0.42c-0.332,0-0.607,0.135-0.83,0.402
			C632.655,31.334,632.54,31.76,632.54,32.342z"/>
		<path fill="#777C7F" d="M636.473,32.338c0-0.814,0.229-1.416,0.68-1.807c0.377-0.326,0.838-0.486,1.381-0.486
			c0.604,0,1.096,0.195,1.479,0.592c0.385,0.396,0.574,0.941,0.574,1.641c0,0.563-0.086,1.008-0.252,1.33
			c-0.17,0.324-0.418,0.576-0.742,0.756c-0.322,0.18-0.676,0.27-1.059,0.27c-0.615,0-1.111-0.199-1.49-0.592
			C636.663,33.646,636.473,33.076,636.473,32.338z M637.239,32.338c0,0.561,0.125,0.982,0.369,1.262
			c0.244,0.281,0.553,0.418,0.926,0.418c0.367,0,0.676-0.137,0.92-0.42c0.246-0.281,0.369-0.711,0.369-1.285
			c0-0.543-0.123-0.951-0.371-1.232c-0.246-0.279-0.553-0.418-0.918-0.418c-0.373,0-0.682,0.139-0.926,0.416
			S637.239,31.775,637.239,32.338z"/>
		<path fill="#777C7F" d="M643.918,34.531v-6.06h4.379v0.715h-3.572v1.854h3.35v0.711h-3.35v2.062h3.717v0.718H643.918z"/>
		<path fill="#777C7F" d="M652.327,34.531v-0.646c-0.342,0.494-0.807,0.744-1.393,0.744c-0.26,0-0.5-0.052-0.727-0.15
			c-0.223-0.1-0.391-0.223-0.498-0.373c-0.109-0.149-0.188-0.334-0.23-0.553c-0.029-0.146-0.045-0.377-0.045-0.692v-2.718h0.742
			v2.433c0,0.39,0.018,0.649,0.047,0.785c0.047,0.194,0.146,0.35,0.299,0.461c0.15,0.112,0.338,0.168,0.561,0.168
			c0.225,0,0.436-0.06,0.629-0.172c0.195-0.115,0.334-0.271,0.414-0.468c0.082-0.196,0.123-0.483,0.123-0.858v-2.349h0.742v4.388
			H652.327z"/>
		<path fill="#777C7F" d="M654.153,34.531v-4.388h0.668v0.662c0.172-0.312,0.328-0.517,0.473-0.612
			c0.146-0.101,0.307-0.148,0.48-0.148c0.248,0,0.504,0.08,0.762,0.238l-0.256,0.688c-0.18-0.104-0.363-0.16-0.543-0.16
			c-0.164,0-0.313,0.048-0.439,0.146c-0.131,0.099-0.223,0.234-0.277,0.408c-0.08,0.264-0.123,0.553-0.123,0.864v2.3L654.153,34.531
			L654.153,34.531z"/>
		<path fill="#777C7F" d="M656.7,32.338c0-0.814,0.227-1.416,0.68-1.807c0.377-0.326,0.836-0.486,1.379-0.486
			c0.605,0,1.096,0.195,1.48,0.592c0.383,0.396,0.574,0.941,0.574,1.641c0,0.563-0.086,1.008-0.254,1.33
			c-0.172,0.324-0.416,0.576-0.74,0.756s-0.676,0.27-1.063,0.27c-0.611,0-1.107-0.199-1.486-0.592
			C656.891,33.646,656.7,33.076,656.7,32.338z M657.463,32.338c0,0.561,0.121,0.982,0.367,1.262
			c0.244,0.281,0.553,0.418,0.926,0.418c0.367,0,0.68-0.137,0.924-0.42c0.242-0.281,0.365-0.711,0.365-1.285
			c0-0.543-0.123-0.951-0.369-1.232c-0.246-0.279-0.555-0.418-0.92-0.418c-0.373,0-0.682,0.139-0.926,0.416
			C657.584,31.355,657.463,31.775,657.463,32.338z"/>
		<path fill="#777C7F" d="M661.682,36.213v-6.068h0.68v0.568c0.158-0.223,0.34-0.391,0.539-0.502
			c0.203-0.111,0.443-0.166,0.729-0.166c0.375,0,0.705,0.094,0.992,0.289c0.287,0.189,0.502,0.465,0.65,0.813
			c0.145,0.354,0.219,0.736,0.219,1.154c0,0.451-0.08,0.854-0.244,1.213c-0.16,0.361-0.395,0.639-0.699,0.826
			c-0.309,0.191-0.631,0.289-0.971,0.289c-0.248,0-0.469-0.053-0.668-0.156c-0.195-0.104-0.359-0.236-0.484-0.396v2.135h-0.742
			V36.213z M662.358,32.361c0,0.565,0.111,0.981,0.344,1.254c0.227,0.269,0.504,0.401,0.828,0.401c0.33,0,0.615-0.137,0.85-0.418
			c0.236-0.278,0.354-0.713,0.354-1.301c0-0.558-0.113-0.978-0.344-1.257c-0.23-0.276-0.508-0.416-0.826-0.416
			c-0.314,0-0.596,0.147-0.84,0.443C662.479,31.367,662.358,31.797,662.358,32.361z"/>
		<path fill="#777C7F" d="M669.393,33.119l0.77,0.094c-0.121,0.447-0.346,0.799-0.672,1.045c-0.328,0.25-0.748,0.373-1.256,0.373
			c-0.646,0-1.152-0.199-1.527-0.594c-0.377-0.396-0.564-0.949-0.564-1.662c0-0.738,0.188-1.313,0.57-1.721
			c0.379-0.406,0.873-0.609,1.48-0.609c0.586,0,1.063,0.197,1.436,0.598s0.559,0.963,0.559,1.688c0,0.043,0,0.107-0.002,0.195
			h-3.271c0.025,0.482,0.162,0.854,0.406,1.109c0.246,0.256,0.551,0.383,0.918,0.383c0.271,0,0.506-0.068,0.697-0.213
			S669.282,33.432,669.393,33.119z M666.952,31.916h2.451c-0.033-0.371-0.127-0.646-0.281-0.832c-0.238-0.285-0.543-0.43-0.92-0.43
			c-0.342,0-0.631,0.113-0.861,0.344C667.106,31.227,666.979,31.533,666.952,31.916z"/>
		<path fill="#777C7F" d="M673.972,34.531v-0.646c-0.344,0.494-0.809,0.744-1.395,0.744c-0.262,0-0.502-0.052-0.726-0.15
			c-0.225-0.099-0.393-0.223-0.5-0.373c-0.107-0.149-0.186-0.334-0.229-0.553c-0.031-0.146-0.047-0.377-0.047-0.692v-2.718h0.746
			v2.433c0,0.39,0.014,0.649,0.045,0.785c0.047,0.194,0.144,0.35,0.298,0.461c0.148,0.112,0.336,0.168,0.563,0.168
			c0.223,0,0.432-0.06,0.627-0.172c0.193-0.115,0.334-0.271,0.414-0.468c0.082-0.196,0.121-0.483,0.121-0.858v-2.349h0.744v4.388
			H673.972z"/>
		<path fill="#777C7F" d="M620.311,43.557v-0.553c-0.277,0.436-0.689,0.652-1.23,0.652c-0.348,0-0.67-0.098-0.963-0.289
			c-0.295-0.193-0.52-0.461-0.684-0.811c-0.16-0.346-0.242-0.742-0.242-1.189c0-0.438,0.076-0.836,0.221-1.191
			c0.146-0.355,0.363-0.631,0.656-0.82c0.291-0.188,0.619-0.283,0.979-0.283c0.268,0,0.5,0.057,0.707,0.168
			c0.207,0.107,0.375,0.256,0.506,0.434v-2.172h0.738v6.057L620.311,43.557L620.311,43.557z M617.958,41.367
			c0,0.563,0.119,0.981,0.357,1.26c0.234,0.279,0.516,0.418,0.838,0.418c0.326,0,0.602-0.133,0.828-0.399
			c0.227-0.264,0.342-0.67,0.342-1.215c0-0.601-0.117-1.041-0.35-1.321c-0.23-0.281-0.516-0.423-0.854-0.423
			c-0.33,0-0.605,0.138-0.828,0.406C618.073,40.359,617.958,40.785,617.958,41.367z"/>
		<path fill="#777C7F" d="M625.172,42.145l0.771,0.098c-0.121,0.445-0.346,0.797-0.674,1.045s-0.746,0.371-1.256,0.371
			c-0.645,0-1.15-0.197-1.527-0.594c-0.375-0.396-0.564-0.949-0.564-1.664c0-0.736,0.193-1.311,0.572-1.719
			c0.381-0.408,0.871-0.609,1.479-0.609c0.588,0,1.066,0.197,1.438,0.598c0.373,0.4,0.561,0.963,0.561,1.686
			c0,0.045-0.004,0.111-0.006,0.199h-3.27c0.027,0.482,0.162,0.854,0.41,1.109c0.242,0.254,0.551,0.383,0.916,0.383
			c0.27,0,0.504-0.07,0.695-0.215S625.063,42.457,625.172,42.145z M622.733,40.941h2.451c-0.035-0.369-0.131-0.646-0.283-0.83
			c-0.234-0.287-0.543-0.431-0.92-0.431c-0.346,0-0.629,0.114-0.861,0.345C622.885,40.252,622.754,40.559,622.733,40.941z"/>
		<path fill="#777C7F" d="M629.323,43.557V37.5h2.086c0.473,0,0.83,0.029,1.08,0.086c0.346,0.082,0.643,0.225,0.889,0.434
			c0.318,0.271,0.557,0.615,0.715,1.035c0.16,0.422,0.238,0.9,0.238,1.439c0,0.461-0.053,0.869-0.16,1.223
			c-0.107,0.357-0.244,0.65-0.414,0.885c-0.168,0.23-0.352,0.414-0.551,0.551c-0.201,0.135-0.441,0.232-0.723,0.303
			c-0.283,0.066-0.607,0.104-0.979,0.104L629.323,43.557L629.323,43.557z M630.122,42.842h1.295c0.398,0,0.713-0.035,0.939-0.111
			c0.229-0.072,0.406-0.178,0.543-0.313c0.188-0.189,0.34-0.445,0.443-0.77c0.105-0.316,0.16-0.709,0.16-1.162
			c0-0.637-0.104-1.123-0.313-1.463c-0.207-0.34-0.461-0.568-0.758-0.684c-0.217-0.084-0.563-0.127-1.037-0.127h-1.273V42.842
			L630.122,42.842z"/>
		<path fill="#777C7F" d="M638.34,42.145l0.771,0.098c-0.121,0.445-0.348,0.797-0.672,1.045c-0.328,0.248-0.748,0.371-1.256,0.371
			c-0.646,0-1.152-0.197-1.527-0.594c-0.377-0.396-0.564-0.949-0.564-1.664c0-0.736,0.189-1.311,0.57-1.719
			c0.379-0.408,0.873-0.609,1.48-0.609c0.586,0,1.063,0.197,1.436,0.598s0.559,0.963,0.559,1.686c0,0.045,0,0.111-0.002,0.199
			h-3.271c0.025,0.482,0.162,0.854,0.406,1.109c0.244,0.254,0.551,0.383,0.918,0.383c0.271,0,0.506-0.07,0.697-0.215
			S638.229,42.457,638.34,42.145z M635.901,40.941h2.449c-0.033-0.369-0.125-0.646-0.279-0.83c-0.238-0.287-0.545-0.431-0.922-0.431
			c-0.342,0-0.629,0.114-0.861,0.345C636.051,40.252,635.924,40.559,635.901,40.941z"/>
		<path fill="#777C7F" d="M639.745,42.248l0.736-0.115c0.043,0.295,0.156,0.521,0.346,0.676c0.189,0.158,0.453,0.236,0.791,0.236
			c0.342,0,0.596-0.068,0.762-0.207c0.164-0.143,0.246-0.305,0.246-0.492c0-0.168-0.07-0.301-0.219-0.396
			c-0.1-0.065-0.354-0.149-0.76-0.252c-0.547-0.138-0.924-0.259-1.135-0.356c-0.211-0.101-0.369-0.24-0.479-0.418
			c-0.111-0.177-0.164-0.373-0.164-0.589c0-0.192,0.045-0.377,0.135-0.543c0.088-0.166,0.209-0.307,0.363-0.416
			c0.117-0.084,0.275-0.155,0.475-0.217c0.199-0.06,0.414-0.088,0.645-0.088c0.344,0,0.645,0.049,0.906,0.147
			c0.26,0.101,0.451,0.233,0.576,0.401c0.123,0.17,0.209,0.396,0.256,0.681l-0.729,0.101c-0.033-0.226-0.127-0.402-0.287-0.529
			c-0.158-0.125-0.383-0.188-0.672-0.188c-0.342,0-0.586,0.058-0.73,0.17c-0.146,0.111-0.219,0.244-0.219,0.396
			c0,0.097,0.031,0.183,0.09,0.261c0.063,0.08,0.156,0.146,0.285,0.198c0.074,0.027,0.295,0.091,0.658,0.188
			c0.525,0.142,0.895,0.255,1.1,0.347c0.209,0.088,0.373,0.222,0.49,0.39c0.119,0.172,0.18,0.385,0.18,0.637
			c0,0.248-0.074,0.479-0.217,0.701c-0.146,0.219-0.355,0.39-0.627,0.508c-0.271,0.121-0.582,0.181-0.926,0.181
			c-0.57,0-1.004-0.119-1.305-0.354C640.02,43.064,639.829,42.713,639.745,42.248z"/>
		<path fill="#777C7F" d="M647.28,42.145l0.77,0.098c-0.121,0.445-0.346,0.797-0.672,1.045c-0.33,0.248-0.748,0.371-1.258,0.371
			c-0.643,0-1.152-0.197-1.525-0.594c-0.377-0.396-0.564-0.949-0.564-1.664c0-0.736,0.189-1.311,0.57-1.719
			c0.379-0.408,0.873-0.609,1.479-0.609c0.588,0,1.068,0.197,1.439,0.598s0.557,0.963,0.557,1.686c0,0.045,0,0.111-0.002,0.199
			h-3.273c0.027,0.482,0.164,0.854,0.408,1.109c0.244,0.254,0.551,0.383,0.918,0.383c0.271,0,0.506-0.07,0.697-0.215
			S647.165,42.457,647.28,42.145z M644.836,40.941h2.449c-0.033-0.369-0.125-0.646-0.279-0.83c-0.234-0.287-0.545-0.431-0.922-0.431
			c-0.34,0-0.629,0.114-0.857,0.345C644.993,40.252,644.864,40.559,644.836,40.941z"/>
		<path fill="#777C7F" d="M648.983,43.557V39.17h0.67v0.623c0.32-0.482,0.787-0.723,1.395-0.723c0.266,0,0.51,0.047,0.73,0.143
			c0.223,0.094,0.387,0.219,0.498,0.373c0.107,0.154,0.188,0.338,0.229,0.549c0.027,0.139,0.041,0.379,0.041,0.723v2.699h-0.744
			v-2.668c0-0.305-0.025-0.531-0.086-0.68c-0.059-0.15-0.162-0.271-0.309-0.359c-0.146-0.092-0.32-0.135-0.52-0.135
			c-0.316,0-0.59,0.102-0.818,0.301c-0.23,0.201-0.348,0.582-0.348,1.146v2.396L648.983,43.557L648.983,43.557z"/>
		<path fill="#777C7F" d="M654.907,43.557l-1.668-4.387h0.783l0.941,2.627c0.104,0.285,0.193,0.58,0.279,0.883
			c0.066-0.229,0.158-0.508,0.277-0.832l0.975-2.678h0.764l-1.658,4.387H654.907z"/>
		<path fill="#777C7F" d="M657.643,41.363c0-0.813,0.225-1.416,0.678-1.806c0.375-0.325,0.836-0.487,1.379-0.487
			c0.604,0,1.098,0.196,1.479,0.594c0.383,0.396,0.574,0.94,0.574,1.638c0,0.563-0.084,1.01-0.254,1.334
			c-0.17,0.323-0.416,0.573-0.74,0.754c-0.32,0.179-0.676,0.269-1.061,0.269c-0.611,0-1.109-0.197-1.486-0.59
			C657.831,42.672,657.643,42.104,657.643,41.363z M658.409,41.363c0,0.562,0.121,0.981,0.365,1.262
			c0.246,0.281,0.555,0.42,0.926,0.42c0.369,0,0.676-0.139,0.924-0.422c0.244-0.278,0.365-0.709,0.365-1.284
			c0-0.541-0.121-0.953-0.369-1.234c-0.246-0.278-0.553-0.418-0.92-0.418c-0.371,0-0.68,0.14-0.926,0.416
			C658.53,40.383,658.409,40.801,658.409,41.363z"/>
		<path fill="#777C7F" d="M662.61,43.557V37.5h0.742v6.057H662.61z"/>
		<path fill="#777C7F" d="M665.723,43.557l-1.67-4.387h0.785l0.941,2.627c0.102,0.285,0.193,0.58,0.281,0.883
			c0.064-0.229,0.158-0.508,0.275-0.832l0.977-2.678h0.764l-1.662,4.387H665.723z"/>
		<path fill="#777C7F" d="M668.741,38.355v-0.854h0.744v0.854H668.741z M668.741,43.557V39.17h0.744v4.387H668.741z"/>
		<path fill="#777C7F" d="M670.616,43.557V39.17h0.666v0.615c0.139-0.217,0.322-0.391,0.551-0.52
			c0.228-0.133,0.485-0.195,0.778-0.195c0.324,0,0.592,0.064,0.801,0.199c0.207,0.139,0.355,0.324,0.439,0.566
			c0.348-0.512,0.799-0.768,1.354-0.768c0.438,0,0.771,0.117,1.004,0.359c0.234,0.24,0.352,0.611,0.352,1.113v3.012h-0.738v-2.764
			c0-0.299-0.021-0.512-0.072-0.645c-0.049-0.133-0.137-0.232-0.262-0.314c-0.129-0.08-0.275-0.119-0.447-0.119
			c-0.309,0-0.563,0.104-0.768,0.309s-0.307,0.533-0.307,0.984v2.549h-0.746v-2.85c0-0.332-0.059-0.578-0.18-0.744
			c-0.121-0.164-0.32-0.248-0.596-0.248c-0.209,0-0.402,0.055-0.577,0.164c-0.18,0.111-0.309,0.271-0.389,0.484
			c-0.08,0.213-0.119,0.518-0.119,0.918v2.273h-0.744V43.557L670.616,43.557z"/>
		<path fill="#777C7F" d="M680.666,42.145l0.771,0.098c-0.121,0.445-0.348,0.797-0.672,1.045c-0.33,0.248-0.748,0.371-1.258,0.371
			c-0.643,0-1.152-0.197-1.525-0.594c-0.377-0.396-0.564-0.949-0.564-1.664c0-0.736,0.189-1.311,0.57-1.719
			c0.379-0.408,0.873-0.609,1.479-0.609c0.586,0,1.066,0.197,1.439,0.598c0.371,0.4,0.557,0.963,0.557,1.686
			c0,0.045,0,0.111-0.002,0.199h-3.271c0.025,0.482,0.164,0.854,0.406,1.109c0.244,0.254,0.553,0.383,0.918,0.383
			c0.271,0,0.508-0.07,0.697-0.215C680.404,42.688,680.554,42.457,680.666,42.145z M678.226,40.941h2.447
			c-0.029-0.369-0.125-0.646-0.275-0.83c-0.238-0.287-0.545-0.431-0.922-0.431c-0.344,0-0.631,0.114-0.861,0.345
			C678.378,40.252,678.251,40.559,678.226,40.941z"/>
		<path fill="#777C7F" d="M682.371,43.557V39.17h0.67v0.623c0.32-0.482,0.785-0.723,1.396-0.723c0.266,0,0.51,0.047,0.729,0.143
			c0.225,0.094,0.389,0.219,0.498,0.373c0.111,0.154,0.189,0.338,0.232,0.549c0.025,0.139,0.041,0.379,0.041,0.723v2.699h-0.742
			v-2.668c0-0.305-0.031-0.531-0.088-0.68c-0.061-0.15-0.162-0.271-0.313-0.359c-0.145-0.092-0.316-0.135-0.518-0.135
			c-0.316,0-0.59,0.102-0.82,0.301c-0.229,0.201-0.346,0.582-0.346,1.146v2.396L682.371,43.557L682.371,43.557z"/>
		<path fill="#777C7F" d="M688.701,42.893l0.107,0.656c-0.209,0.045-0.396,0.066-0.564,0.066c-0.27,0-0.479-0.043-0.629-0.129
			c-0.148-0.088-0.252-0.197-0.314-0.338c-0.059-0.139-0.09-0.432-0.09-0.877v-2.523h-0.545V39.17h0.545v-1.088l0.74-0.445v1.533
			h0.746v0.578h-0.746v2.563c0,0.213,0.014,0.352,0.039,0.41c0.027,0.061,0.068,0.107,0.129,0.146
			c0.059,0.035,0.143,0.053,0.252,0.053C688.457,42.92,688.566,42.912,688.701,42.893z"/>
		<path fill="#777C7F" d="M689.152,41.363c0-0.813,0.225-1.416,0.678-1.806c0.377-0.325,0.836-0.487,1.379-0.487
			c0.604,0,1.098,0.196,1.48,0.594c0.381,0.396,0.57,0.94,0.57,1.638c0,0.563-0.084,1.01-0.254,1.334
			c-0.17,0.323-0.416,0.573-0.736,0.754c-0.322,0.179-0.68,0.269-1.064,0.269c-0.611,0-1.107-0.197-1.486-0.59
			C689.339,42.672,689.152,42.104,689.152,41.363z M689.916,41.363c0,0.562,0.121,0.981,0.365,1.262
			c0.246,0.281,0.555,0.42,0.926,0.42s0.676-0.139,0.924-0.422c0.244-0.278,0.365-0.709,0.365-1.284
			c0-0.541-0.121-0.953-0.367-1.234c-0.248-0.278-0.555-0.418-0.922-0.418c-0.371,0-0.68,0.14-0.926,0.416
			C690.037,40.383,689.916,40.801,689.916,41.363z"/>
		<path fill="#777C7F" d="M696.591,43.557V37.5h2.688c0.541,0,0.953,0.055,1.229,0.162c0.283,0.107,0.508,0.303,0.678,0.578
			c0.168,0.273,0.252,0.58,0.252,0.912c0,0.43-0.143,0.791-0.418,1.086c-0.279,0.297-0.709,0.48-1.289,0.563
			c0.213,0.104,0.373,0.203,0.48,0.303c0.234,0.217,0.457,0.482,0.666,0.809l1.055,1.646h-1.008l-0.803-1.26
			c-0.232-0.363-0.428-0.642-0.58-0.834c-0.146-0.193-0.287-0.33-0.406-0.406c-0.117-0.078-0.238-0.131-0.361-0.16
			c-0.092-0.018-0.24-0.028-0.447-0.028h-0.932v2.688L696.591,43.557L696.591,43.557z M697.394,40.172h1.723
			c0.367,0,0.654-0.037,0.859-0.111c0.207-0.078,0.361-0.197,0.473-0.361c0.107-0.168,0.16-0.352,0.16-0.545
			c0-0.287-0.105-0.521-0.313-0.707c-0.211-0.186-0.539-0.275-0.984-0.275h-1.918V40.172z"/>
		<path fill="#777C7F" d="M705.601,42.145l0.768,0.098c-0.121,0.445-0.346,0.797-0.674,1.045s-0.746,0.371-1.256,0.371
			c-0.645,0-1.15-0.197-1.527-0.594c-0.375-0.396-0.564-0.949-0.564-1.664c0-0.736,0.193-1.311,0.572-1.719
			c0.381-0.408,0.871-0.609,1.479-0.609c0.588,0,1.066,0.197,1.438,0.598c0.373,0.4,0.561,0.963,0.561,1.686
			c0,0.045-0.002,0.111-0.004,0.199h-3.271c0.027,0.482,0.162,0.854,0.408,1.109c0.246,0.254,0.553,0.383,0.918,0.383
			c0.271,0,0.504-0.07,0.697-0.215C705.332,42.688,705.488,42.457,705.601,42.145z M703.158,40.941h2.449
			c-0.033-0.369-0.127-0.646-0.281-0.83c-0.236-0.287-0.545-0.431-0.922-0.431c-0.342,0-0.627,0.114-0.861,0.345
			C703.314,40.252,703.183,40.559,703.158,40.941z"/>
		<path fill="#777C7F" d="M707.164,43.922l0.727,0.107c0.027,0.223,0.111,0.383,0.252,0.484c0.186,0.141,0.436,0.207,0.756,0.207
			c0.344,0,0.607-0.066,0.797-0.207c0.188-0.139,0.313-0.33,0.381-0.578c0.039-0.15,0.057-0.471,0.055-0.955
			c-0.326,0.385-0.729,0.574-1.215,0.574c-0.604,0-1.07-0.217-1.402-0.648c-0.328-0.438-0.494-0.959-0.494-1.568
			c0-0.418,0.074-0.803,0.227-1.158c0.152-0.354,0.373-0.629,0.66-0.818c0.289-0.193,0.625-0.289,1.014-0.289
			c0.52,0,0.945,0.211,1.281,0.629v-0.529h0.686v3.793c0,0.684-0.066,1.166-0.209,1.451c-0.139,0.285-0.355,0.51-0.658,0.676
			c-0.305,0.164-0.676,0.248-1.113,0.248c-0.523,0-0.945-0.119-1.271-0.352C707.31,44.75,707.154,44.395,707.164,43.922z
			 M707.783,41.285c0,0.576,0.113,0.994,0.342,1.258c0.229,0.266,0.516,0.396,0.859,0.396c0.34,0,0.627-0.129,0.855-0.395
			c0.232-0.264,0.352-0.676,0.352-1.236c0-0.539-0.119-0.941-0.357-1.215s-0.525-0.41-0.861-0.41c-0.33,0-0.613,0.139-0.844,0.404
			C707.896,40.357,707.783,40.756,707.783,41.285z"/>
		<path fill="#777C7F" d="M712.013,38.355v-0.854h0.742v0.854H712.013z M712.013,43.557V39.17h0.742v4.387H712.013z"/>
		<path fill="#777C7F" d="M713.613,41.363c0-0.813,0.225-1.416,0.676-1.806c0.377-0.325,0.838-0.487,1.381-0.487
			c0.604,0,1.098,0.196,1.48,0.594c0.381,0.396,0.572,0.94,0.572,1.638c0,0.563-0.084,1.01-0.256,1.334
			c-0.17,0.323-0.416,0.573-0.738,0.754c-0.32,0.179-0.678,0.269-1.063,0.269c-0.609,0-1.107-0.197-1.484-0.59
			C713.8,42.672,713.613,42.104,713.613,41.363z M714.376,41.363c0,0.562,0.121,0.981,0.365,1.262
			c0.246,0.281,0.555,0.42,0.926,0.42c0.369,0,0.678-0.139,0.924-0.422c0.244-0.278,0.365-0.709,0.365-1.284
			c0-0.541-0.121-0.953-0.369-1.234c-0.246-0.278-0.553-0.418-0.92-0.418c-0.371,0-0.68,0.14-0.926,0.416
			C714.498,40.383,714.376,40.801,714.376,41.363z"/>
		<path fill="#777C7F" d="M718.593,43.557V39.17h0.674v0.623c0.318-0.482,0.783-0.723,1.395-0.723c0.264,0,0.508,0.047,0.729,0.143
			c0.223,0.094,0.389,0.219,0.498,0.373s0.188,0.338,0.23,0.549c0.029,0.139,0.043,0.379,0.043,0.723v2.699h-0.744v-2.668
			c0-0.305-0.029-0.531-0.088-0.68c-0.057-0.15-0.16-0.271-0.309-0.359c-0.146-0.092-0.318-0.135-0.52-0.135
			c-0.314,0-0.592,0.102-0.818,0.301c-0.23,0.201-0.348,0.582-0.348,1.146v2.396L718.593,43.557L718.593,43.557z"/>
		<path fill="#777C7F" d="M726.164,43.016c-0.273,0.234-0.543,0.398-0.797,0.496c-0.254,0.096-0.527,0.146-0.818,0.146
			c-0.48,0-0.854-0.119-1.111-0.354c-0.258-0.233-0.391-0.537-0.391-0.901c0-0.216,0.053-0.412,0.148-0.589
			c0.098-0.178,0.225-0.321,0.383-0.428s0.338-0.188,0.535-0.244c0.146-0.041,0.367-0.075,0.662-0.112
			c0.6-0.07,1.043-0.156,1.326-0.257c0.002-0.102,0.002-0.165,0.002-0.192c0-0.305-0.068-0.517-0.209-0.642
			c-0.191-0.168-0.475-0.252-0.85-0.252c-0.348,0-0.605,0.063-0.771,0.185c-0.168,0.123-0.291,0.34-0.371,0.651l-0.729-0.1
			c0.066-0.313,0.176-0.563,0.326-0.757c0.152-0.188,0.369-0.338,0.656-0.44s0.621-0.153,0.996-0.153s0.68,0.045,0.916,0.133
			c0.23,0.088,0.404,0.199,0.516,0.33c0.109,0.136,0.188,0.306,0.23,0.508c0.021,0.128,0.037,0.354,0.037,0.687v0.99
			c0,0.692,0.016,1.131,0.047,1.313s0.096,0.358,0.188,0.524h-0.775C726.236,43.404,726.187,43.223,726.164,43.016z M726.103,41.354
			c-0.271,0.111-0.68,0.205-1.219,0.283c-0.305,0.043-0.52,0.092-0.645,0.146c-0.129,0.055-0.23,0.137-0.293,0.24
			c-0.068,0.107-0.105,0.227-0.105,0.354c0,0.197,0.074,0.363,0.227,0.496c0.148,0.132,0.369,0.197,0.658,0.197
			c0.285,0,0.543-0.062,0.764-0.188c0.223-0.125,0.389-0.297,0.492-0.514c0.08-0.168,0.121-0.416,0.121-0.744V41.354L726.103,41.354
			z"/>
		<path fill="#777C7F" d="M727.992,43.557V37.5h0.742v6.057H727.992z"/>
	</g>
</g>
</svg>
