<?xml version="1.0" encoding="utf-8"?>
<!-- Generator: Adobe Illustrator 16.0.0, SVG Export Plug-In . SVG Version: 6.00 Build 0)  -->
<!DOCTYPE svg PUBLIC "-//W3C//DTD SVG 1.1//EN" "http://www.w3.org/Graphics/SVG/1.1/DTD/svg11.dtd">
<svg version="1.1" id="Layer_1" xmlns="http://www.w3.org/2000/svg" xmlns:xlink="http://www.w3.org/1999/xlink" x="0px" y="0px"
	 width="279.265px" height="75.513px" viewBox="0 0 279.265 75.513" enable-background="new 0 0 279.265 75.513"
	 xml:space="preserve">
<rect fill="#002D73" width="279.265" height="75.513"/>
<path id="borda_2_" fill="#FFFFFF" d="M273.801,5.464v64.584H5.464V5.464H273.801z M278.352,0.911H0.91v73.69h277.441V0.911z"/>
<g id="UNIVERSAL_3_">
	<path id="U_4_" fill="#FFFFFF" d="M28.119,58.413c-2.1,0-3.987-0.357-5.665-1.073c-1.68-0.715-3.106-1.817-4.279-3.305
		c-1.177-1.489-2.078-3.371-2.708-5.653c-0.631-2.278-0.944-4.963-0.944-8.051V18.119h8.31v21.986c0,2.862,0.484,4.982,1.455,6.356
		c0.973,1.377,2.275,2.064,3.913,2.064c1.641,0,2.943-0.659,3.916-1.978c0.971-1.321,1.456-3.372,1.456-6.16v-22.27h8.309v21.93
		c0,3.201-0.329,5.96-0.986,8.28c-0.656,2.315-1.579,4.217-2.768,5.706c-1.189,1.487-2.633,2.59-4.322,3.305
		C32.111,58.056,30.215,58.413,28.119,58.413"/>
	<polygon id="N_3_" fill="#FFFFFF" points="46.707,18.119 54.318,18.119 66.43,39.03 66.43,18.119 74.443,18.119 74.443,57.679 
		67.295,57.679 54.721,35.979 54.721,57.679 46.707,57.679 	"/>
	<rect id="I_4_" x="79.813" y="18.119" fill="#FFFFFF" width="8.186" height="39.56"/>
	<polygon id="V_3_" fill="#FFFFFF" points="91.02,18.119 100.123,18.119 106.797,43.153 113.469,18.119 122.406,18.119 
		110.489,57.962 102.937,57.962 	"/>
	<polygon id="E_4_" fill="#FFFFFF" points="125.26,18.119 148.84,18.119 148.84,28.047 133.273,28.047 133.273,32.81 147.371,32.81 
		147.371,42.771 133.273,42.771 133.273,47.459 149.051,47.459 149.051,57.679 125.26,57.679 	"/>
	<path id="R_3_" fill="#FFFFFF" d="M153.246,18.119h13.889c2.266,0,4.184,0.375,5.752,1.128c1.563,0.757,2.838,1.809,3.818,3.167
		c1.73,2.26,2.6,5.329,2.6,9.213v0.111c0,3.053-0.545,5.578-1.637,7.574c-1.09,1.998-2.559,3.522-4.404,4.577l7.004,13.788h-9.398
		L164.951,45.7h-0.081h-3.486v11.979h-8.138V18.119z M166.658,36.173c1.123,0,1.988-0.341,2.592-1.021
		c0.607-0.682,0.907-1.594,0.907-2.744v-0.093c0-1.269-0.313-2.213-0.938-2.835c-0.628-0.617-1.496-0.926-2.596-0.926h-4.273v7.619
		H166.658z"/>
	<path id="S_3_" fill="#FFFFFF" d="M194.956,58.357c-2.632,0-5.126-0.55-7.491-1.646c-2.363-1.102-4.455-2.752-6.271-4.951
		l4.53-7.305c2.938,3.165,6.112,4.749,9.528,4.749c1.088,0,1.919-0.237,2.496-0.706c0.57-0.47,0.86-1.137,0.86-2.003v-0.112
		c0-0.411-0.071-0.78-0.211-1.1c-0.14-0.321-0.398-0.63-0.775-0.933c-0.377-0.299-0.884-0.59-1.509-0.875
		c-0.633-0.283-1.453-0.574-2.457-0.874c-1.569-0.488-3.02-1.026-4.365-1.606c-1.342-0.582-2.51-1.337-3.502-2.257
		c-0.996-0.923-1.779-2.067-2.35-3.441c-0.576-1.374-0.861-3.075-0.861-5.105v-0.112c0-1.844,0.258-3.535,0.777-5.08
		c0.515-1.541,1.271-2.874,2.266-4.004c0.991-1.13,2.186-2.002,3.586-2.625c1.398-0.619,2.982-0.931,4.742-0.931
		c2.516,0,4.765,0.447,6.737,1.338c1.97,0.892,3.753,2.208,5.351,3.955l-4.072,7.766c-1.345-1.281-2.724-2.249-4.132-2.911
		c-1.416-0.659-2.779-0.99-4.093-0.99c-0.98,0-1.714,0.244-2.201,0.733c-0.491,0.493-0.736,1.093-0.736,1.806v0.112
		c0,0.454,0.076,0.849,0.232,1.184c0.152,0.343,0.416,0.651,0.796,0.933c0.377,0.283,0.894,0.564,1.551,0.849
		c0.659,0.28,1.489,0.572,2.497,0.872c1.678,0.488,3.196,1.06,4.555,1.719c1.353,0.659,2.51,1.459,3.462,2.398
		c0.949,0.941,1.68,2.079,2.184,3.414c0.501,1.335,0.751,2.927,0.751,4.768v0.11c0,2.033-0.284,3.84-0.859,5.417
		c-0.574,1.579-1.377,2.927-2.412,4.034c-1.034,1.108-2.279,1.955-3.732,2.537C198.368,58.064,196.746,58.357,194.956,58.357"/>
	<path id="A_3_" fill="#FFFFFF" d="M220.931,17.837h7.845l12.508,39.842h-8.729l-1.674-5.531h-12.252l-1.641,5.531h-8.563
		L220.931,17.837z M228.918,45.117l-4.127-14.224l-4.188,14.224H228.918z"/>
	<polygon id="L_3_" fill="#FFFFFF" points="244.135,18.119 252.274,18.119 252.274,46.288 264.742,46.288 264.742,57.679 
		244.135,57.679 	"/>
</g>
<g id="_x28_R_x29__3_">
	<path fill="#FFFFFF" d="M267.562,23.513c0,1.102-0.442,2.04-1.335,2.818c-0.889,0.776-1.964,1.166-3.217,1.166
		c-1.255,0-2.331-0.389-3.223-1.166c-0.889-0.778-1.331-1.716-1.331-2.818s0.442-2.037,1.331-2.818
		c0.892-0.775,1.968-1.166,3.223-1.166c1.253,0,2.328,0.39,3.217,1.166C267.119,21.476,267.562,22.411,267.562,23.513
		 M266.557,23.513c0-0.856-0.348-1.591-1.039-2.206c-0.695-0.613-1.531-0.923-2.508-0.923c-0.98,0-1.814,0.31-2.51,0.923
		c-0.691,0.615-1.039,1.35-1.039,2.206s0.348,1.591,1.039,2.206c0.695,0.614,1.529,0.923,2.51,0.923
		c0.977,0,1.813-0.309,2.508-0.923C266.209,25.104,266.557,24.369,266.557,23.513"/>
	<path fill="#FFFFFF" d="M263.822,23.691c0.287-0.105,0.521-0.248,0.701-0.434c0.174-0.181,0.27-0.419,0.27-0.714
		c0-0.221-0.045-0.401-0.138-0.54c-0.089-0.145-0.239-0.261-0.442-0.369c-0.183-0.087-0.369-0.143-0.555-0.166
		c-0.184-0.02-0.432-0.032-0.738-0.032h-1.656V25.4h1.076v-1.453h0.436l1.318,1.453h1.379L263.822,23.691z M263.543,22.9
		c-0.037,0.079-0.09,0.14-0.172,0.188c-0.079,0.061-0.188,0.095-0.318,0.121c-0.141,0.021-0.291,0.033-0.449,0.033h-0.264v-1.117
		h0.34c0.158,0,0.291,0.001,0.394,0.017c0.095,0.012,0.192,0.038,0.271,0.078c0.09,0.042,0.155,0.1,0.198,0.166
		c0.034,0.069,0.055,0.148,0.055,0.229C263.598,22.731,263.577,22.828,263.543,22.9z"/>
</g>
</svg>
