<?xml version="1.0" encoding="utf-8"?>
<!-- Generator: Adobe Illustrator 16.0.0, SVG Export Plug-In . SVG Version: 6.00 Build 0)  -->
<!DOCTYPE svg PUBLIC "-//W3C//DTD SVG 1.1//EN" "http://www.w3.org/Graphics/SVG/1.1/DTD/svg11.dtd">
<svg version="1.1" id="Layer_1" xmlns="http://www.w3.org/2000/svg" xmlns:xlink="http://www.w3.org/1999/xlink" x="0px" y="0px"
	 width="391.702px" height="30.981px" viewBox="0 0 391.702 30.981" enable-background="new 0 0 391.702 30.981"
	 xml:space="preserve">
<g>
	<path fill="#FFFFFF" d="M0,21.101c0-0.287,0.242-0.441,0.507-0.441l0.99,0.066c3.63,0,4.532-7.943,4.862-11.353
		c0.065-0.616,0.065-1.1,0.065-1.694c0-0.374-0.176-0.704-0.176-1.056c0-0.616,1.078-1.188,1.606-1.188
		c0.506,0,0.638,0.506,0.704,0.902l0.066,0.528c0.109,0.66,0.264,1.32,0.439,1.958c0.418,1.562,2.729,9.395,4.4,9.395
		c0.353,0,0.594-0.727,0.683-0.99c0.704-2.134,1.101-7.063,1.101-7.063c0.088-1.431,0.153-2.772,0.153-4.093
		c0-0.462,0.154-0.703,0.638-0.703c0.396,0,0.418,0.461,0.418,0.748c0,2.111-0.549,13.839-3.124,13.839
		c-3.521,0-6.095-9.175-6.095-9.175S6.315,21.673,1.54,21.673C1.167,21.673,0,21.628,0,21.101z"/>
	<path fill="#FFFFFF" d="M22.44,11.178c1.629,0,2.068,1.693,2.068,3.014c0,1.937-0.682,4.048-2.354,5.171
		c-0.506,0.33-1.101,0.572-1.717,0.572c-1.584,0-2.111-1.607-2.111-2.928C18.327,14.809,19.823,11.178,22.44,11.178z M19.911,17.052
		c0,0.703,0.197,1.805,1.1,1.805c0.374,0,0.727-0.199,1.012-0.418c1.101-0.859,1.563-2.486,1.563-3.83
		c0-0.726-0.197-1.98-1.145-1.98C20.791,12.629,19.911,15.732,19.911,17.052z"/>
	<path fill="#FFFFFF" d="M43.275,9.307c-0.704,3.081-1.188,6.228-1.364,9.396c0,0.527,0.022,0.857,0.022,1.166
		c0,0.373-0.088,0.836-0.572,0.836c-0.638,0-0.66-2.311-0.66-2.992c0-1.804,0.089-3.586,0.308-5.369
		c-1.144,2.223-3.872,6.974-6.732,6.974c-2.244,0-2.332-2.947-2.332-4.554c0-2.376,0.55-6.205,0.88-7.173
		c0,0,0.572-1.958,1.232-2.244c0.176-0.088,0.374-0.088,0.571-0.088c0.418,0,0.837,0.065,0.837,0.594
		c0,0.154-0.044,0.286-0.089,0.418c-0.813,2.706-1.319,6.249-1.319,9.044c0,0.748,0.022,2.289,0.989,2.289
		c2.245,0,5.81-7.24,6.712-9.132c0.198-0.418,0.571-1.056,0.659-1.496c0.154-0.682,0.309-1.387,1.188-1.387
		c0.33,0,0.551,0.221,0.551,0.551C44.156,6.557,43.43,8.669,43.275,9.307z"/>
	<path fill="#FFFFFF" d="M44.484,19.759c0-2.156,0.571-4.533,1.012-6.646c0.132-0.682,0.242-1.386,0.396-2.068
		c0.109-0.527,0.726-1.056,1.275-1.056c0.507,0,0.66,0.286,0.66,0.748c0,0.748-0.308,1.65-0.572,2.354
		c-0.308,0.814-0.483,1.672-0.594,2.53c0,0,2.685-3.917,3.829-3.917c0.857,0,0.88,1.496,0.88,2.135v3.08
		c0,0.506,0.021,1.32,0.704,1.32c1.166,0,2.53-2.068,3.036-3.036c0.11-0.198,0.286-0.507,0.528-0.507
		c0.22,0,0.374,0.242,0.374,0.441c0,0.109-0.11,0.329-0.154,0.439c-0.638,1.365-2.574,3.74-4.225,3.74
		c-1.364,0-1.606-1.475-1.606-2.574c0-0.109,0-0.219,0-0.33l0.089-2.507c0-0.11-0.022-0.44-0.198-0.44
		c-0.154,0-0.396,0.242-0.506,0.353c-0.727,0.703-1.387,1.716-1.915,2.574c-0.638,1.033-1.144,2.111-1.65,3.213
		c-0.176,0.352-0.483,0.703-0.901,0.703C44.638,20.308,44.484,20.044,44.484,19.759z"/>
	<path fill="#FFFFFF" d="M57.311,18.9c1.188,0,2.904-2.529,3.564-3.564c0.132-0.197,0.308-0.462,0.55-0.462
		c0.286,0,0.286,0.265,0.286,0.483c0,0.287-0.418,0.88-0.594,1.123C60.28,17.667,58.41,20,56.849,20
		c-1.738,0-2.003-2.486-2.003-3.762c0-0.814,0.22-1.936,0.462-2.707c0.265-0.791,0.66-1.408,1.585-1.408
		c0.33,0,0.506,0.133,0.506,0.484c0,0.594-0.506,1.672-0.66,2.332c-0.132,0.639-0.198,1.298-0.198,1.958
		C56.54,17.404,56.563,18.9,57.311,18.9z M58.19,9.594c0,0.571-0.462,1.166-1.057,1.166c-0.462,0-0.748-0.396-0.748-0.836
		c0-0.551,0.44-1.167,1.034-1.167C57.882,8.757,58.19,9.153,58.19,9.594z"/>
	<path fill="#FFFFFF" d="M61.028,11.596c0.286,0,0.483,0.176,0.66,0.374c1.144,1.231,2.068,3.675,2.442,5.303
		c1.034-1.849,1.979-3.785,3.212-5.523c0.132-0.177,0.309-0.463,0.572-0.463s0.594,0.221,0.594,0.506
		c0,0.133-0.088,0.221-0.153,0.309c-0.683,0.902-3.851,6.25-4.071,7.107c0,0-0.132,0.748-0.66,0.748c-0.571,0-0.66-0.814-0.66-0.814
		c-0.396-1.584-1.518-4.951-2.486-6.226c0,0-0.308-0.287-0.308-0.463C60.17,12.08,60.654,11.596,61.028,11.596z"/>
	<path fill="#FFFFFF" d="M69.146,16.81c0-1.98,1.606-6.183,3.982-6.183c0.792,0,1.232,0.551,1.232,1.32
		c0,1.475-2.068,3.807-3.411,4.291c-0.065,0.309-0.109,0.615-0.109,0.924c0,0.99,0.396,1.607,1.43,1.607
		c1.849,0,3.322-1.586,4.203-3.059c0.132-0.22,0.352-0.571,0.66-0.571c0.132,0,0.308,0.088,0.308,0.241
		c0,0.286-0.066,0.418-0.198,0.661c-1.144,2.002-3.256,3.762-5.654,3.762C69.85,19.802,69.146,18.373,69.146,16.81z M71.016,15.402
		c0.946-0.572,2.376-2.068,2.376-3.234c0-0.242-0.088-0.506-0.374-0.506C72.138,11.662,71.147,14.632,71.016,15.402z"/>
	<path fill="#FFFFFF" d="M78.407,13.466c-0.462,1.276-1.145,2.948-2.112,3.938c-0.154,0.154-0.353,0.33-0.594,0.33
		c-0.177,0-0.286-0.109-0.286-0.285s0.088-0.33,0.197-0.484c0.837-1.21,1.717-2.486,1.893-3.983
		c-0.396-0.528-0.572-1.188-0.572-1.849c0-0.682,0.418-2.464,1.299-2.464c0.616,0,0.726,1.276,0.726,1.716
		c0,0.353-0.021,0.705-0.065,1.057c0.682,1.034,2.618,1.122,2.618,3.08c0,0.287-0.044,0.572-0.11,0.858
		c-0.242,1.034-0.439,2.045-0.439,3.102c0,0.287,0,0.814,0.418,0.814c1.012,0,2.816-2.289,3.388-3.146
		c0.133-0.197,0.33-0.484,0.572-0.484c0.265,0,0.309,0.242,0.309,0.462c0,0.176-0.088,0.33-0.177,0.461
		c-0.704,1.145-2.926,3.74-4.334,3.74c-1.452,0-1.54-2.045-1.54-3.08c0-0.814,0.109-1.605,0.109-2.419
		C79.705,14.104,79.045,13.664,78.407,13.466z"/>
	<path fill="#FFFFFF" d="M90.178,17.58c0,0.594-0.154,1.189-0.506,1.695c1.012,0,3.08-2.268,3.652-3.125
		c0.132-0.197,0.33-0.484,0.572-0.484c0.264,0,0.33,0.221,0.33,0.439c0,0.154-0.132,0.33-0.198,0.463
		c-1.65,2.596-3.543,4.115-6.733,4.115c-0.836,0-1.958-0.111-2.596-0.727c-0.133-0.133-0.242-0.287-0.242-0.484
		c0-0.221,0.154-0.33,0.352-0.33c0.177,0,0.44,0.199,0.396,0.154c0.462,0.352,0.99,0.418,1.563,0.418
		c1.166,0,1.782-0.793,1.782-1.914c0-1.32-0.814-3.191-1.541-4.269c-0.418,1.188-1.275,2.994-2.156,3.873
		c-0.132,0.133-0.352,0.352-0.571,0.352c-0.177,0-0.309-0.131-0.309-0.307c0-0.221,0.132-0.396,0.265-0.572
		c0.989-1.232,1.76-2.685,2.244-4.203c-0.133-0.374-0.198-0.771-0.198-1.166c0-0.858,0.572-2.574,1.628-2.574
		c0.551,0,0.704,0.748,0.704,1.188c0,0.727-0.242,1.496-0.506,2.179C88.813,13.994,90.178,15.688,90.178,17.58z"/>
	<path fill="#FFFFFF" d="M97.812,11.178c1.628,0,2.068,1.693,2.068,3.014c0,1.937-0.683,4.048-2.354,5.171
		c-0.507,0.33-1.101,0.572-1.717,0.572c-1.584,0-2.112-1.607-2.112-2.928C93.696,14.809,95.192,11.178,97.812,11.178z
		 M95.281,17.052c0,0.703,0.197,1.805,1.1,1.805c0.374,0,0.727-0.199,1.013-0.418c1.1-0.859,1.562-2.486,1.562-3.83
		c0-0.726-0.198-1.98-1.144-1.98C96.161,12.629,95.281,15.732,95.281,17.052z"/>
	<path fill="#FFFFFF" d="M108.349,19.318c-0.946,0-1.32-1.32-1.32-2.068c0-2.375,1.804-5.457,4.093-5.457
		c0.439,0,0.836,0.177,1.122,0.507c0-3.146,1.738-10.43,4.202-10.43c1.057,0,1.232,1.606,1.232,2.376
		c0,3.08-2.267,8.317-3.696,11.09c0,0.638,0.044,3.41,0.946,3.41c2.024,0,3.477-3.74,4.07-3.74c0.264,0,0.374,0.154,0.374,0.352
		c0,0.309-0.264,0.705-0.44,0.968c-0.99,1.475-2.464,3.564-4.356,3.564c-1.519,0-2.024-2.178-2.223-3.344
		C111.539,17.449,109.625,19.318,108.349,19.318z M108.261,17.91c0,0.154,0,0.441,0.22,0.441c0.924,0,3.345-2.443,3.74-3.191
		c-0.044-0.639-0.044-1.254-0.044-1.893C110.196,13.268,108.261,16.083,108.261,17.91z M113.85,13.51
		c1.166-2.486,2.882-6.82,2.882-9.549c0-0.11,0-0.617-0.22-0.617c-1.232,0-2.662,7.899-2.662,9.945V13.51z"/>
	<path fill="#FFFFFF" d="M122.539,11.178c1.628,0,2.068,1.693,2.068,3.014c0,1.937-0.683,4.048-2.354,5.171
		c-0.506,0.33-1.101,0.572-1.717,0.572c-1.584,0-2.112-1.607-2.112-2.928C118.424,14.809,119.92,11.178,122.539,11.178z
		 M120.009,17.052c0,0.703,0.197,1.805,1.1,1.805c0.374,0,0.727-0.199,1.013-0.418c1.1-0.859,1.562-2.486,1.562-3.83
		c0-0.726-0.198-1.98-1.144-1.98C120.889,12.629,120.009,15.732,120.009,17.052z"/>
	<path fill="#FFFFFF" d="M131.559,17.58c0,0.594-0.154,1.189-0.506,1.695c1.012,0,3.08-2.268,3.652-3.125
		c0.132-0.197,0.33-0.484,0.572-0.484c0.264,0,0.33,0.221,0.33,0.439c0,0.154-0.132,0.33-0.198,0.463
		c-1.65,2.596-3.543,4.115-6.733,4.115c-0.836,0-1.958-0.111-2.596-0.727c-0.133-0.133-0.242-0.287-0.242-0.484
		c0-0.221,0.154-0.33,0.352-0.33c0.177,0,0.44,0.199,0.396,0.154c0.462,0.352,0.99,0.418,1.563,0.418
		c1.166,0,1.782-0.793,1.782-1.914c0-1.32-0.814-3.191-1.541-4.269c-0.418,1.188-1.275,2.994-2.156,3.873
		c-0.132,0.133-0.352,0.352-0.571,0.352c-0.177,0-0.309-0.131-0.309-0.307c0-0.221,0.132-0.396,0.265-0.572
		c0.989-1.232,1.76-2.685,2.244-4.203c-0.133-0.374-0.198-0.771-0.198-1.166c0-0.858,0.572-2.574,1.628-2.574
		c0.551,0,0.704,0.748,0.704,1.188c0,0.727-0.242,1.496-0.506,2.179C130.194,13.994,131.559,15.688,131.559,17.58z"/>
	<path fill="#FFFFFF" d="M143.988,19.539c0.396-1.365,0.901-2.707,1.275-4.093c-0.483,1.013-2.046,3.675-3.102,4.048
		c-0.221,0.066-0.44,0.133-0.683,0.133c-1.034,0-1.298-1.188-1.298-2.023c0-2.267,1.122-4.402,2.75-5.941
		c0.66-0.617,1.54-1.299,2.486-1.299c0.374,0,0.66,0.132,0.66,0.551c0,0.527-0.704,0.791-1.056,1.056
		c-1.408,1.012-3.477,3.851-3.477,5.633c0,0.24,0.021,0.813,0.374,0.813c0.857,0,2.86-4.29,3.344-5.126
		c0.221-0.373,0.551-0.879,1.034-0.879c0.353,0,0.902,0.241,0.902,0.66c0,0.748-0.396,1.649-0.572,2.375
		c-0.286,1.123-0.483,2.267-0.748,3.388c0.221,0.066,0.44,0.111,0.683,0.111c1.672,0,3.103-1.717,3.828-3.081
		c0.11-0.22,0.286-0.66,0.595-0.66c0.285,0,0.352,0.22,0.352,0.462c0,0.33-0.22,0.681-0.374,0.968
		c-0.924,1.584-2.662,3.344-4.643,3.344c-0.132,0-0.264,0-0.396-0.021c0.221,0.945,0.221,1.98,0.221,2.949
		c0,1.869-0.177,5.104-1.057,6.755c-0.264,0.484-0.792,1.32-1.408,1.32c-1.012,0-1.188-2.025-1.188-2.75
		C142.491,25.282,143.174,22.355,143.988,19.539z M144.098,25.524c-0.198,1.1-0.374,2.199-0.374,3.322c0,0.176,0,0.902,0.242,0.902
		c0.154,0,0.286-0.287,0.353-0.396c0.66-1.32,0.88-4.665,0.88-6.206c0-0.725-0.022-1.473-0.154-2.199
		C144.692,22.464,144.362,23.984,144.098,25.524z"/>
	<path fill="#FFFFFF" d="M151.049,12.629c0.221-0.659,0.814-1.078,1.497-1.078c0.33,0,0.506,0.154,0.506,0.484
		c0,0.242-0.088,0.484-0.154,0.727c-0.462,1.452-1.034,3.673-1.034,5.193c0,0.285,0,0.879,0.418,0.879
		c1.475,0,4.115-4.509,4.687-5.808c0.242-0.55,0.44-1.408,1.188-1.408c0.264,0,0.484,0.066,0.484,0.375
		c0,0.285-0.132,0.571-0.221,0.836c-0.483,1.275-0.88,3.41-0.88,4.775c0,0.418,0.066,1.561,0.66,1.561
		c0.88,0,2.904-2.816,3.41-3.629c0.133-0.22,0.419-0.616,0.66-0.616c0.265,0,0.309,0.198,0.309,0.418
		c0,0.154-0.088,0.33-0.154,0.462c-0.704,1.385-3.015,4.334-4.687,4.334c-1.342,0-1.452-2.135-1.452-3.102
		c0-0.287,0-0.551,0.044-0.836c-0.858,1.23-2.641,3.564-4.291,3.564c-1.562,0-1.584-1.98-1.584-3.104
		C150.455,15.336,150.631,13.884,151.049,12.629z"/>
	<path fill="#FFFFFF" d="M161.235,16.81c0-1.98,1.606-6.183,3.982-6.183c0.792,0,1.232,0.551,1.232,1.32
		c0,1.475-2.068,3.807-3.411,4.291c-0.065,0.309-0.109,0.615-0.109,0.924c0,0.99,0.396,1.607,1.43,1.607
		c1.849,0,3.322-1.586,4.203-3.059c0.132-0.22,0.352-0.571,0.66-0.571c0.132,0,0.308,0.088,0.308,0.241
		c0,0.286-0.066,0.418-0.198,0.661c-1.144,2.002-3.256,3.762-5.654,3.762C161.939,19.802,161.235,18.373,161.235,16.81z
		 M163.105,15.402c0.946-0.572,2.376-2.068,2.376-3.234c0-0.242-0.088-0.506-0.374-0.506
		C164.228,11.662,163.237,14.632,163.105,15.402z"/>
	<path fill="#FFFFFF" d="M171.025,18.9c1.188,0,2.904-2.529,3.564-3.564c0.132-0.197,0.308-0.462,0.55-0.462
		c0.286,0,0.286,0.265,0.286,0.483c0,0.287-0.418,0.88-0.594,1.123c-0.837,1.188-2.707,3.52-4.269,3.52
		c-1.738,0-2.003-2.486-2.003-3.762c0-0.814,0.22-1.936,0.462-2.707c0.265-0.791,0.66-1.408,1.585-1.408
		c0.33,0,0.506,0.133,0.506,0.484c0,0.594-0.506,1.672-0.66,2.332c-0.132,0.639-0.198,1.298-0.198,1.958
		C170.255,17.404,170.277,18.9,171.025,18.9z M171.905,9.594c0,0.571-0.462,1.166-1.057,1.166c-0.462,0-0.748-0.396-0.748-0.836
		c0-0.551,0.44-1.167,1.034-1.167C171.597,8.757,171.905,9.153,171.905,9.594z"/>
	<path fill="#FFFFFF" d="M175.557,17.162c0-0.637-0.021-1.275-0.044-1.892c-0.22,0.572-1.298,2.464-1.958,2.464
		c-0.176,0-0.286-0.109-0.286-0.285c0-0.199,0.088-0.33,0.198-0.484c0.065-0.111,0.154-0.199,0.22-0.287
		c0.792-1.121,1.299-2.023,1.563-3.167c0.11-0.484,0.418-1.805,1.364-1.805c0.55,0,0.594,0.727,0.594,1.232
		c0,3.873-0.153,10.892-3.059,13.84c-0.616,0.639-1.518,1.211-2.442,1.211c-1.319,0-1.914-1.211-1.914-2.377
		c0-3.015,3.081-5.677,5.347-7.196l0.396-0.264L175.557,17.162z M170.738,25.678c0,0.549,0.242,1.275,0.902,1.275
		c2.244,0,3.542-6.095,3.784-7.854C173.73,20.462,170.738,23.279,170.738,25.678z M176.195,8.339c0.572,0,0.924,0.55,0.924,1.078
		s-0.352,1.101-0.924,1.101s-0.925-0.572-0.925-1.101S175.623,8.339,176.195,8.339z"/>
	<path fill="#FFFFFF" d="M183.609,11.178c1.628,0,2.068,1.693,2.068,3.014c0,1.937-0.683,4.048-2.354,5.171
		c-0.506,0.33-1.101,0.572-1.717,0.572c-1.584,0-2.112-1.607-2.112-2.928C179.494,14.809,180.99,11.178,183.609,11.178z
		 M181.079,17.052c0,0.703,0.197,1.805,1.1,1.805c0.374,0,0.727-0.199,1.013-0.418c1.1-0.859,1.562-2.486,1.562-3.83
		c0-0.726-0.198-1.98-1.144-1.98C181.959,12.629,181.079,15.732,181.079,17.052z"/>
	<path fill="#FFFFFF" d="M192.629,17.58c0,0.594-0.154,1.189-0.506,1.695c1.012,0,3.08-2.268,3.652-3.125
		c0.132-0.197,0.33-0.484,0.572-0.484c0.264,0,0.33,0.221,0.33,0.439c0,0.154-0.132,0.33-0.198,0.463
		c-1.65,2.596-3.543,4.115-6.733,4.115c-0.836,0-1.958-0.111-2.596-0.727c-0.133-0.133-0.242-0.287-0.242-0.484
		c0-0.221,0.154-0.33,0.352-0.33c0.177,0,0.44,0.199,0.396,0.154c0.462,0.352,0.99,0.418,1.563,0.418
		c1.166,0,1.782-0.793,1.782-1.914c0-1.32-0.814-3.191-1.541-4.269c-0.418,1.188-1.275,2.994-2.156,3.873
		c-0.132,0.133-0.352,0.352-0.571,0.352c-0.177,0-0.309-0.131-0.309-0.307c0-0.221,0.132-0.396,0.265-0.572
		c0.989-1.232,1.76-2.685,2.244-4.203c-0.133-0.374-0.198-0.771-0.198-1.166c0-0.858,0.572-2.574,1.628-2.574
		c0.551,0,0.704,0.748,0.704,1.188c0,0.727-0.242,1.496-0.506,2.179C191.265,13.994,192.629,15.688,192.629,17.58z"/>
	<path fill="#FFFFFF" d="M203.342,19.121l-0.021,0.066c-0.242,0.506-0.595,1.232-1.232,1.232s-0.748-0.838-0.748-1.32
		c0-0.748,0.154-1.52,0.242-2.268C201.89,14.39,202.968,0,206.225,0c0.968,0,1.188,1.342,1.188,2.068
		c0,3.278-1.122,6.425-2.574,9.307c-0.352,0.705-0.748,1.365-1.1,2.047c-0.177,0.352-0.572,3.013-0.66,3.609
		c0.813-1.739,3.454-6.58,5.522-6.58c0.99,0,1.254,1.188,1.254,1.98l-0.418,5.523c0,0.418,0.022,0.99,0.595,0.99
		c1.364,0,2.794-2.135,3.564-3.279c0.132-0.198,0.286-0.484,0.528-0.484c0.264,0,0.329,0.221,0.329,0.44
		c0,0.132-0.088,0.242-0.132,0.352c-0.857,1.693-3.059,4.291-5.127,4.291c-1.166,0-1.166-2.047-1.166-3.016
		c0-1.583,0.198-3.167,0.353-4.927c0-0.133,0-0.529-0.22-0.529C207.192,11.793,203.87,17.998,203.342,19.121z M203.606,11.508
		c1.319-2.398,2.992-6.623,2.992-9.352c0-0.198,0-1.034-0.265-1.034C204.97,1.122,203.694,10.012,203.606,11.508z"/>
	<path fill="#FFFFFF" d="M219.095,20c-1.453,0-1.629-2.375-1.629-3.41c-0.572,0.902-1.914,2.904-3.08,2.904
		c-1.078,0-1.32-1.451-1.32-2.287c0-2.31,2.398-6.337,4.973-6.337c0.309,0,0.727,0.374,0.727,0.682c0,0.133-0.11,0.221-0.221,0.265
		c-2.002,0.836-4.026,3.345-4.026,5.94c0,0.178,0.022,0.529,0.286,0.529c0.99,0,2.838-3.895,3.257-4.796
		c0.153-0.33,0.33-0.66,0.748-0.66c0.22,0,0.506,0.065,0.506,0.352c0,0.309-0.286,0.946-0.396,1.276
		c-0.242,0.748-0.33,1.672-0.33,2.442c0,0.463,0.022,2.156,0.704,2.156c1.034,0,2.685-2.178,3.279-2.971
		c0,0,0.308-0.549,0.615-0.549c0.265,0,0.353,0.176,0.353,0.418C223.539,16.347,221.141,20,219.095,20z M217.026,9.682
		c0-0.154,0.088-0.309,0.153-0.44l1.276-2.245c0.33-0.571,0.594-1.451,1.299-1.451c0.396,0,0.703,0.308,0.703,0.703
		c0,0.484-0.682,1.145-1.078,1.629c-0.704,0.857-1.605,2.135-2.046,2.135C217.158,10.012,217.026,9.857,217.026,9.682z"/>
	<path fill="#FFFFFF" d="M228.839,12.629c0.221-0.659,0.814-1.078,1.497-1.078c0.33,0,0.506,0.154,0.506,0.484
		c0,0.242-0.088,0.484-0.154,0.727c-0.462,1.452-1.034,3.673-1.034,5.193c0,0.285,0,0.879,0.418,0.879
		c1.475,0,4.115-4.509,4.687-5.808c0.242-0.55,0.44-1.408,1.188-1.408c0.264,0,0.484,0.066,0.484,0.375
		c0,0.285-0.132,0.571-0.221,0.836c-0.483,1.275-0.88,3.41-0.88,4.775c0,0.418,0.066,1.561,0.66,1.561
		c0.88,0,2.904-2.816,3.41-3.629c0.133-0.22,0.419-0.616,0.66-0.616c0.265,0,0.309,0.198,0.309,0.418
		c0,0.154-0.088,0.33-0.154,0.462c-0.704,1.385-3.015,4.334-4.687,4.334c-1.342,0-1.452-2.135-1.452-3.102
		c0-0.287,0-0.551,0.044-0.836c-0.858,1.23-2.641,3.564-4.291,3.564c-1.562,0-1.584-1.98-1.584-3.104
		C228.245,15.336,228.421,13.884,228.839,12.629z"/>
	<path fill="#FFFFFF" d="M244.724,14.302v-1.364c0-0.132,0-0.462-0.22-0.462c-0.902,0-3.938,5.479-4.4,6.491
		c-0.154,0.33-0.374,0.66-0.792,0.66c-0.286,0-0.44-0.221-0.44-0.484c0-1.342,1.232-7.701,1.805-8.779
		c0.308-0.572,1.1-0.88,1.716-0.88c0.33,0,0.462,0.22,0.462,0.528c0,0.615-0.55,1.716-0.792,2.311
		c-0.33,0.791-0.528,1.649-0.66,2.508c0,0,2.377-3.763,3.564-3.763c0.704,0,0.925,1.013,0.925,1.65l-0.045,3.103
		c0,0-0.021,1.144,0.177,1.144c0.088,0,0.264-0.309,0.308-0.396c0.528-0.88,1.145-1.716,1.738-2.552
		c0.704-0.99,1.87-2.971,3.234-2.971c0.946,0,1.364,1.013,1.364,1.826c0,1.695-0.308,3.388-0.308,5.083c0,0.418,0,1.188,0.594,1.188
		c0.99,0,2.685-1.848,3.257-2.617c0.153-0.199,0.396-0.572,0.682-0.572c0.265,0,0.309,0.264,0.309,0.461
		c0,0.154-0.133,0.33-0.221,0.439c-0.857,1.189-3.08,3.455-4.62,3.455c-1.452,0-1.519-1.893-1.519-2.947
		c0-1.32,0.198-2.641,0.198-3.983c0-0.242,0-0.902-0.374-0.902c-1.057,0-3.895,5.479-4.555,6.536
		c-0.132,0.219-0.309,0.395-0.594,0.395C244.812,19.406,244.724,16.238,244.724,14.302z"/>
	<path fill="#FFFFFF" d="M265.734,19.539c0.396-1.365,0.901-2.707,1.275-4.093c-0.483,1.013-2.046,3.675-3.102,4.048
		c-0.221,0.066-0.44,0.133-0.683,0.133c-1.034,0-1.298-1.188-1.298-2.023c0-2.267,1.122-4.402,2.75-5.941
		c0.66-0.617,1.54-1.299,2.486-1.299c0.374,0,0.66,0.132,0.66,0.551c0,0.527-0.704,0.791-1.056,1.056
		c-1.408,1.012-3.477,3.851-3.477,5.633c0,0.24,0.021,0.813,0.374,0.813c0.857,0,2.86-4.29,3.344-5.126
		c0.221-0.373,0.551-0.879,1.034-0.879c0.353,0,0.902,0.241,0.902,0.66c0,0.748-0.396,1.649-0.572,2.375
		c-0.286,1.123-0.483,2.267-0.748,3.388c0.221,0.066,0.44,0.111,0.683,0.111c1.672,0,3.103-1.717,3.828-3.081
		c0.11-0.22,0.286-0.66,0.595-0.66c0.285,0,0.352,0.22,0.352,0.462c0,0.33-0.22,0.681-0.374,0.968
		c-0.924,1.584-2.662,3.344-4.643,3.344c-0.132,0-0.264,0-0.396-0.021c0.221,0.945,0.221,1.98,0.221,2.949
		c0,1.869-0.177,5.104-1.057,6.755c-0.264,0.484-0.792,1.32-1.408,1.32c-1.012,0-1.188-2.025-1.188-2.75
		C264.237,25.282,264.92,22.355,265.734,19.539z M265.844,25.524c-0.198,1.1-0.374,2.199-0.374,3.322c0,0.176,0,0.902,0.242,0.902
		c0.154,0,0.286-0.287,0.353-0.396c0.66-1.32,0.88-4.665,0.88-6.206c0-0.725-0.022-1.473-0.154-2.199
		C266.438,22.464,266.108,23.984,265.844,25.524z"/>
	<path fill="#FFFFFF" d="M272.795,12.629c0.221-0.659,0.814-1.078,1.497-1.078c0.33,0,0.506,0.154,0.506,0.484
		c0,0.242-0.088,0.484-0.154,0.727c-0.462,1.452-1.034,3.673-1.034,5.193c0,0.285,0,0.879,0.418,0.879
		c1.475,0,4.115-4.509,4.687-5.808c0.242-0.55,0.44-1.408,1.188-1.408c0.264,0,0.484,0.066,0.484,0.375
		c0,0.285-0.132,0.571-0.221,0.836c-0.483,1.275-0.88,3.41-0.88,4.775c0,0.418,0.066,1.561,0.66,1.561
		c0.88,0,2.904-2.816,3.41-3.629c0.133-0.22,0.419-0.616,0.66-0.616c0.265,0,0.309,0.198,0.309,0.418
		c0,0.154-0.088,0.33-0.154,0.462c-0.704,1.385-3.015,4.334-4.687,4.334c-1.342,0-1.452-2.135-1.452-3.102
		c0-0.287,0-0.551,0.044-0.836c-0.858,1.23-2.641,3.564-4.291,3.564c-1.562,0-1.584-1.98-1.584-3.104
		C272.201,15.336,272.377,13.884,272.795,12.629z"/>
	<path fill="#FFFFFF" d="M282.981,16.81c0-1.98,1.606-6.183,3.982-6.183c0.792,0,1.232,0.551,1.232,1.32
		c0,1.475-2.068,3.807-3.411,4.291c-0.065,0.309-0.109,0.615-0.109,0.924c0,0.99,0.396,1.607,1.43,1.607
		c1.849,0,3.322-1.586,4.203-3.059c0.132-0.22,0.352-0.571,0.66-0.571c0.132,0,0.308,0.088,0.308,0.241
		c0,0.286-0.066,0.418-0.198,0.661c-1.144,2.002-3.256,3.762-5.654,3.762C283.686,19.802,282.981,18.373,282.981,16.81z
		 M284.852,15.402c0.946-0.572,2.376-2.068,2.376-3.234c0-0.242-0.088-0.506-0.374-0.506
		C285.974,11.662,284.983,14.632,284.852,15.402z"/>
	<path fill="#FFFFFF" d="M300.934,17.58c0,0.594-0.154,1.189-0.506,1.695c1.012,0,3.08-2.268,3.652-3.125
		c0.132-0.197,0.33-0.484,0.572-0.484c0.264,0,0.33,0.221,0.33,0.439c0,0.154-0.132,0.33-0.198,0.463
		c-1.65,2.596-3.543,4.115-6.733,4.115c-0.836,0-1.958-0.111-2.596-0.727c-0.133-0.133-0.242-0.287-0.242-0.484
		c0-0.221,0.154-0.33,0.352-0.33c0.177,0,0.44,0.199,0.396,0.154c0.462,0.352,0.99,0.418,1.563,0.418
		c1.166,0,1.782-0.793,1.782-1.914c0-1.32-0.814-3.191-1.541-4.269c-0.418,1.188-1.275,2.994-2.156,3.873
		c-0.132,0.133-0.352,0.352-0.571,0.352c-0.177,0-0.309-0.131-0.309-0.307c0-0.221,0.132-0.396,0.265-0.572
		c0.989-1.232,1.76-2.685,2.244-4.203c-0.133-0.374-0.198-0.771-0.198-1.166c0-0.858,0.572-2.574,1.628-2.574
		c0.551,0,0.704,0.748,0.704,1.188c0,0.727-0.242,1.496-0.506,2.179C299.569,13.994,300.934,15.688,300.934,17.58z"/>
	<path fill="#FFFFFF" d="M304.101,16.81c0-1.98,1.606-6.183,3.982-6.183c0.792,0,1.232,0.551,1.232,1.32
		c0,1.475-2.068,3.807-3.411,4.291c-0.065,0.309-0.109,0.615-0.109,0.924c0,0.99,0.396,1.607,1.43,1.607
		c1.849,0,3.322-1.586,4.203-3.059c0.132-0.22,0.352-0.571,0.66-0.571c0.132,0,0.308,0.088,0.308,0.241
		c0,0.286-0.066,0.418-0.198,0.661c-1.144,2.002-3.256,3.762-5.654,3.762C304.805,19.802,304.101,18.373,304.101,16.81z
		 M305.971,15.402c0.946-0.572,2.376-2.068,2.376-3.234c0-0.242-0.088-0.506-0.374-0.506
		C307.093,11.662,306.103,14.632,305.971,15.402z"/>
	<path fill="#FFFFFF" d="M318.07,19.318c-0.946,0-1.32-1.32-1.32-2.068c0-2.375,1.804-5.457,4.093-5.457
		c0.439,0,0.836,0.177,1.122,0.507c0-3.146,1.738-10.43,4.202-10.43c1.057,0,1.232,1.606,1.232,2.376
		c0,3.08-2.267,8.317-3.696,11.09c0,0.638,0.044,3.41,0.946,3.41c2.023,0,3.477-3.74,4.07-3.74c0.264,0,0.374,0.154,0.374,0.352
		c0,0.309-0.264,0.705-0.44,0.968c-0.99,1.475-2.464,3.564-4.356,3.564c-1.519,0-2.024-2.178-2.223-3.344
		C321.261,17.449,319.347,19.318,318.07,19.318z M317.982,17.91c0,0.154,0,0.441,0.22,0.441c0.924,0,3.345-2.443,3.74-3.191
		c-0.044-0.639-0.044-1.254-0.044-1.893C319.918,13.268,317.982,16.083,317.982,17.91z M323.571,13.51
		c1.166-2.486,2.882-6.82,2.882-9.549c0-0.11,0-0.617-0.22-0.617c-1.232,0-2.662,7.899-2.662,9.945V13.51z"/>
	<path fill="#FFFFFF" d="M327.794,16.81c0-1.98,1.606-6.183,3.982-6.183c0.792,0,1.232,0.551,1.232,1.32
		c0,1.475-2.068,3.807-3.411,4.291c-0.065,0.309-0.109,0.615-0.109,0.924c0,0.99,0.396,1.607,1.43,1.607
		c1.849,0,3.322-1.586,4.203-3.059c0.132-0.22,0.352-0.571,0.66-0.571c0.132,0,0.308,0.088,0.308,0.241
		c0,0.286-0.066,0.418-0.198,0.661c-1.144,2.002-3.256,3.762-5.654,3.762C328.498,19.802,327.794,18.373,327.794,16.81z
		 M329.664,15.402c0.946-0.572,2.376-2.068,2.376-3.234c0-0.242-0.088-0.506-0.374-0.506
		C330.786,11.662,329.796,14.632,329.664,15.402z"/>
	<path fill="#FFFFFF" d="M340.246,17.58c0,0.594-0.154,1.189-0.506,1.695c1.012,0,3.08-2.268,3.652-3.125
		c0.132-0.197,0.33-0.484,0.572-0.484c0.264,0,0.33,0.221,0.33,0.439c0,0.154-0.132,0.33-0.198,0.463
		c-1.65,2.596-3.543,4.115-6.733,4.115c-0.836,0-1.958-0.111-2.596-0.727c-0.133-0.133-0.242-0.287-0.242-0.484
		c0-0.221,0.154-0.33,0.352-0.33c0.177,0,0.44,0.199,0.396,0.154c0.462,0.352,0.99,0.418,1.563,0.418
		c1.166,0,1.782-0.793,1.782-1.914c0-1.32-0.814-3.191-1.541-4.269c-0.418,1.188-1.275,2.994-2.156,3.873
		c-0.132,0.133-0.352,0.352-0.571,0.352c-0.177,0-0.309-0.131-0.309-0.307c0-0.221,0.132-0.396,0.265-0.572
		c0.989-1.232,1.76-2.685,2.244-4.203c-0.133-0.374-0.198-0.771-0.198-1.166c0-0.858,0.572-2.574,1.628-2.574
		c0.551,0,0.704,0.748,0.704,1.188c0,0.727-0.242,1.496-0.506,2.179C338.882,13.994,340.246,15.688,340.246,17.58z"/>
	<path fill="#FFFFFF" d="M346.449,13.048c-0.264,0.462-0.924,1.342-0.924,1.342c-0.022,0.11-0.044,0.374-0.044,0.484
		c0,0.88,0.197,4.18,1.386,4.18c1.364,0,2.971-2.332,3.631-3.388c0.11-0.198,0.33-0.506,0.572-0.506c0.176,0,0.308,0.154,0.308,0.33
		c0,0.33-0.176,0.615-0.352,0.902c-0.837,1.408-2.795,4.004-4.577,4.004c-2.288,0-2.729-4.664-2.729-6.314
		c0-1.431,0.088-2.904,0.374-4.313c-0.153,0.043-0.308,0.065-0.462,0.065c-0.352,0-0.528-0.176-0.528-0.528
		c0-0.594,0.66-0.682,1.122-0.726c0.484-1.585,1.761-5.963,3.829-5.963c0.924,0,0.99,1.32,0.99,1.98
		c0,1.144-0.154,2.354-0.484,3.454c0.506-0.066,0.99-0.176,1.496-0.176c0.198,0,0.309,0.066,0.309,0.286s-0.11,0.308-0.286,0.418
		c-0.221,0.132-1.475,0.44-1.805,0.506C347.924,10.43,347.176,11.859,346.449,13.048z M345.305,13.113
		c0.66-0.836,1.65-2.75,1.937-3.784c-0.528,0.11-1.056,0.11-1.563,0.265C345.415,10.737,345.394,11.947,345.305,13.113z
		 M345.812,8.404c0.594-0.088,1.21-0.109,1.804-0.241c0.353-1.122,0.616-2.618,0.616-3.784c0-0.133,0-0.66-0.22-0.66
		C346.999,3.719,345.921,7.525,345.812,8.404z"/>
	<path fill="#FFFFFF" d="M360.002,16.853c-0.813,1.145-2.42,3.146-3.96,3.146c-1.453,0-1.629-2.375-1.629-3.41
		c-0.572,0.902-1.914,2.904-3.08,2.904c-1.078,0-1.32-1.451-1.32-2.287c0-2.31,2.398-6.337,4.973-6.337
		c0.309,0,0.727,0.374,0.727,0.682c0,0.133-0.11,0.199-0.221,0.265c-0.792,0.462-1.518,0.968-2.156,1.628
		c-1.144,1.166-1.87,2.662-1.87,4.312c0,0.178,0.022,0.529,0.286,0.529c0.99,0,2.838-3.895,3.257-4.796
		c0.153-0.33,0.33-0.66,0.748-0.66c0.22,0,0.506,0.065,0.506,0.352c0,0.309-0.286,0.946-0.396,1.276
		c-0.242,0.748-0.33,1.672-0.33,2.442c0,0.463,0.022,2.156,0.704,2.156c1.034,0,2.685-2.178,3.279-2.971
		c0,0,0.308-0.549,0.615-0.549c0.265,0,0.353,0.176,0.353,0.418C360.486,16.216,360.156,16.634,360.002,16.853z"/>
	<path fill="#FFFFFF" d="M359.736,16.259c0-2.288,1.452-5.566,4.114-5.566c1.101,0,1.783,0.506,1.783,1.672
		c0,0.683-0.177,1.871-1.078,1.871c-0.133,0-0.242-0.066-0.242-0.221c0-0.33,0.396-0.857,0.396-1.496
		c0-0.396-0.021-0.857-0.528-0.857c-1.672,0-2.596,3.542-2.596,4.839c0,1.123,0.439,2.289,1.76,2.289
		c1.959,0,3.521-1.518,4.467-3.103c0.132-0.22,0.374-0.571,0.66-0.571c0.198,0,0.353,0.153,0.353,0.352
		c0,0.154-0.089,0.308-0.177,0.461c-1.231,2.223-3.477,4.07-6.072,4.07C360.551,20,359.736,17.998,359.736,16.259z"/>
	<path fill="#FFFFFF" d="M377.382,16.853c-0.813,1.145-2.42,3.146-3.96,3.146c-1.452,0-1.629-2.375-1.629-3.41
		c-0.572,0.902-1.914,2.904-3.08,2.904c-1.078,0-1.32-1.451-1.32-2.287c0-2.31,2.398-6.337,4.973-6.337
		c0.308,0,0.727,0.374,0.727,0.682c0,0.133-0.11,0.199-0.221,0.265c-0.792,0.462-1.518,0.968-2.156,1.628
		c-1.144,1.166-1.87,2.662-1.87,4.312c0,0.178,0.022,0.529,0.286,0.529c0.99,0,2.839-3.895,3.257-4.796
		c0.153-0.33,0.33-0.66,0.748-0.66c0.22,0,0.506,0.065,0.506,0.352c0,0.309-0.286,0.946-0.396,1.276
		c-0.242,0.748-0.33,1.672-0.33,2.442c0,0.463,0.022,2.156,0.704,2.156c1.034,0,2.685-2.178,3.278-2.971
		c0,0,0.309-0.549,0.616-0.549c0.265,0,0.353,0.176,0.353,0.418C377.866,16.216,377.536,16.634,377.382,16.853z"/>
	<path fill="#FFFFFF" d="M378.854,18.636c0-0.484,0.176-1.123,0.771-1.123c0.462,0,0.946,0.396,0.946,0.881
		c0,0.594-0.11,1.123-0.814,1.123C379.251,19.517,378.854,19.164,378.854,18.636z"/>
	<path fill="#FFFFFF" d="M384.42,18.636c0-0.484,0.176-1.123,0.771-1.123c0.462,0,0.946,0.396,0.946,0.881
		c0,0.594-0.11,1.123-0.814,1.123C384.816,19.517,384.42,19.164,384.42,18.636z"/>
	<path fill="#FFFFFF" d="M389.985,18.636c0-0.484,0.176-1.123,0.771-1.123c0.462,0,0.946,0.396,0.946,0.881
		c0,0.594-0.11,1.123-0.814,1.123C390.382,19.517,389.985,19.164,389.985,18.636z"/>
</g>
</svg>
