<?xml version="1.0" encoding="utf-8"?>
<!-- Generator: Adobe Illustrator 16.0.0, SVG Export Plug-In . SVG Version: 6.00 Build 0)  -->
<!DOCTYPE svg PUBLIC "-//W3C//DTD SVG 1.1//EN" "http://www.w3.org/Graphics/SVG/1.1/DTD/svg11.dtd">
<svg version="1.1" id="Layer_1" xmlns="http://www.w3.org/2000/svg" xmlns:xlink="http://www.w3.org/1999/xlink" x="0px" y="0px"
	 width="90px" height="90px" viewBox="0 0 90 90" enable-background="new 0 0 90 90" xml:space="preserve">
<g>
	<g>
		<circle fill="#0084B6" cx="45" cy="45" r="45"/>
	</g>
	<g>
		<g>
			<path fill="#FFFFFF" d="M45,51.974c-8.497,0-15.41-6.915-15.41-15.412c0-8.498,6.913-15.413,15.41-15.413
				s15.409,6.915,15.409,15.413C60.409,45.059,53.497,51.974,45,51.974z M45,25.649c-6.016,0-10.91,4.896-10.91,10.913
				c0,6.016,4.895,10.911,10.91,10.911s10.909-4.895,10.909-10.911C55.909,30.544,51.016,25.649,45,25.649z"/>
		</g>
		<g>
			<path fill="#FFFFFF" d="M64.955,68.85c-0.633,0-1.263-0.264-1.705-0.782c-4.587-5.326-11.238-8.381-18.25-8.381
				s-13.663,3.055-18.249,8.381c-0.811,0.942-2.23,1.05-3.172,0.239c-0.942-0.812-1.049-2.232-0.237-3.175
				c5.44-6.32,13.334-9.945,21.659-9.945c8.325,0,16.218,3.625,21.66,9.945c0.81,0.942,0.703,2.363-0.239,3.175
				C65.997,68.673,65.475,68.85,64.955,68.85z"/>
		</g>
	</g>
</g>
</svg>
