<?xml version="1.0" encoding="utf-8"?>
<!-- Generator: Adobe Illustrator 16.0.0, SVG Export Plug-In . SVG Version: 6.00 Build 0)  -->
<!DOCTYPE svg PUBLIC "-//W3C//DTD SVG 1.1//EN" "http://www.w3.org/Graphics/SVG/1.1/DTD/svg11.dtd">
<svg version="1.1" id="Layer_1" xmlns="http://www.w3.org/2000/svg" xmlns:xlink="http://www.w3.org/1999/xlink" x="0px" y="0px"
	 width="648.313px" height="40.25px" viewBox="0 0 648.313 40.25" enable-background="new 0 0 648.313 40.25" xml:space="preserve">
<g>
	<g>
		<g>
			<path fill="#333333" d="M317.046,36.17l8.698-7.385c0.868-0.723,1.6-1.375,2.201-1.963c0.604-0.591,1.088-1.147,1.462-1.676
				c0.374-0.529,0.643-1.047,0.811-1.55c0.17-0.502,0.253-1.044,0.253-1.621c0-1.245-0.39-2.212-1.171-2.897
				s-1.75-1.024-2.906-1.024c-1.153,0-2.172,0.312-3.05,0.937c-0.876,0.627-1.809,1.575-2.796,2.853l-3.141-2.453
				c0.602-0.844,1.214-1.601,1.842-2.268c0.624-0.668,1.304-1.227,2.037-1.673c0.732-0.45,1.538-0.798,2.421-1.04
				c0.874-0.241,1.882-0.362,3.011-0.362c1.228,0,2.353,0.177,3.376,0.539c1.021,0.36,1.898,0.872,2.633,1.534
				c0.733,0.663,1.306,1.459,1.715,2.384c0.408,0.928,0.613,1.954,0.613,3.087v0.071c0,0.984-0.132,1.883-0.398,2.688
				c-0.264,0.808-0.666,1.582-1.205,2.326c-0.543,0.75-1.229,1.501-2.061,2.255c-0.828,0.759-1.798,1.596-2.906,2.509l-5.195,4.329
				h12.018v3.895h-18.263L317.046,36.17L317.046,36.17z"/>
			<path fill="#333333" d="M350.537,39.664c-1.947,0-3.73-0.341-5.342-1.024c-1.611-0.686-2.994-1.616-4.151-2.8
				c-1.153-1.178-2.057-2.555-2.705-4.132c-0.651-1.577-0.975-3.255-0.975-5.035v-0.071c0-1.78,0.323-3.46,0.975-5.035
				c0.648-1.575,1.564-2.957,2.742-4.151c1.179-1.19,2.574-2.133,4.188-2.832c1.612-0.697,3.391-1.047,5.34-1.047
				s3.728,0.343,5.342,1.029c1.613,0.686,2.995,1.614,4.149,2.796c1.158,1.179,2.058,2.556,2.708,4.133
				c0.65,1.576,0.975,3.254,0.975,5.036v0.07c0,1.781-0.324,3.46-0.975,5.033c-0.65,1.576-1.563,2.96-2.743,4.151
				c-1.178,1.191-2.577,2.133-4.187,2.831C354.269,39.316,352.488,39.664,350.537,39.664 M350.61,35.589
				c1.247,0,2.39-0.237,3.433-0.706c1.04-0.468,1.934-1.104,2.676-1.911c0.742-0.807,1.322-1.75,1.742-2.835
				c0.423-1.082,0.632-2.237,0.632-3.468v-0.07c0-1.229-0.209-2.388-0.632-3.481c-0.42-1.093-1.005-2.048-1.762-2.854
				c-0.754-0.806-1.658-1.449-2.711-1.93c-1.055-0.481-2.205-0.723-3.451-0.723s-2.388,0.234-3.431,0.701
				c-1.042,0.469-1.932,1.106-2.676,1.912c-0.743,0.806-1.324,1.752-1.744,2.835c-0.419,1.083-0.629,2.239-0.629,3.466v0.072
				c0,1.226,0.21,2.389,0.629,3.48c0.42,1.098,1.007,2.047,1.761,2.853c0.756,0.804,1.659,1.45,2.716,1.931
				C348.214,35.346,349.363,35.589,350.61,35.589"/>
			<path fill="#333333" d="M365.514,36.17l8.698-7.385c0.866-0.723,1.597-1.375,2.202-1.963c0.605-0.591,1.093-1.147,1.465-1.676
				c0.372-0.529,0.644-1.047,0.811-1.55c0.168-0.502,0.252-1.044,0.252-1.621c0-1.245-0.389-2.212-1.172-2.897
				s-1.75-1.024-2.904-1.024c-1.157,0-2.174,0.312-3.05,0.937c-0.878,0.627-1.812,1.575-2.799,2.853l-3.142-2.453
				c0.606-0.844,1.214-1.601,1.841-2.268c0.627-0.668,1.306-1.227,2.04-1.673c0.732-0.45,1.54-0.798,2.419-1.04
				c0.875-0.241,1.88-0.362,3.011-0.362c1.23,0,2.355,0.177,3.375,0.539c1.021,0.36,1.907,0.872,2.634,1.534
				c0.736,0.663,1.309,1.459,1.719,2.384c0.411,0.928,0.612,1.954,0.612,3.087v0.071c0,0.984-0.13,1.883-0.394,2.688
				c-0.27,0.808-0.673,1.582-1.208,2.326c-0.54,0.75-1.228,1.501-2.059,2.255c-0.835,0.759-1.799,1.596-2.908,2.509l-5.198,4.329
				h12.017v3.895h-18.261L365.514,36.17L365.514,36.17L365.514,36.17z"/>
			<path fill="#333333" d="M399.007,39.664c-1.95,0-3.731-0.341-5.342-1.024c-1.614-0.686-2.997-1.616-4.151-2.8
				c-1.158-1.178-2.058-2.555-2.705-4.132c-0.648-1.577-0.979-3.255-0.979-5.035v-0.071c0-1.78,0.324-3.46,0.979-5.035
				c0.65-1.575,1.563-2.957,2.742-4.151c1.172-1.19,2.576-2.133,4.182-2.832c1.613-0.697,3.395-1.047,5.345-1.047
				c1.946,0,3.728,0.343,5.339,1.029c1.614,0.686,2.991,1.614,4.152,2.796c1.152,1.179,2.057,2.556,2.703,4.133
				c0.649,1.576,0.979,3.254,0.979,5.036v0.07c0,1.781-0.325,3.46-0.979,5.033c-0.65,1.576-1.564,2.96-2.739,4.151
				c-1.179,1.191-2.577,2.133-4.188,2.831C402.735,39.316,400.955,39.664,399.007,39.664 M399.078,35.589
				c1.244,0,2.39-0.237,3.431-0.706c1.046-0.468,1.937-1.104,2.681-1.911c0.742-0.807,1.32-1.75,1.742-2.835
				c0.421-1.082,0.629-2.237,0.629-3.468v-0.07c0-1.229-0.208-2.388-0.629-3.481c-0.422-1.093-1.005-2.048-1.759-2.854
				c-0.762-0.806-1.66-1.449-2.717-1.93c-1.058-0.481-2.206-0.723-3.447-0.723c-1.249,0-2.395,0.234-3.433,0.701
				c-1.044,0.469-1.938,1.106-2.682,1.912c-0.741,0.806-1.322,1.752-1.743,2.835c-0.42,1.083-0.628,2.239-0.628,3.466v0.072
				c0,1.226,0.208,2.389,0.628,3.48c0.421,1.098,1.007,2.047,1.761,2.853c0.762,0.804,1.66,1.45,2.72,1.931
				C396.682,35.346,397.828,35.589,399.078,35.589"/>
			<path fill="#333333" d="M319.779,5.782c-0.129,0-0.287,0-0.455-0.019v1.522c0.316,0.02,0.644,0.072,0.916,0.128v0.85h-3.195
				V7.412c0.273-0.056,0.6-0.106,0.914-0.128V2.149c-0.314-0.021-0.641-0.073-0.914-0.129v-0.85h0.824
				c0.332,0,1.258-0.043,1.993-0.043c1.731,0,2.688,0.811,2.688,2.197C322.55,4.7,321.503,5.782,319.779,5.782 M319.8,2.246
				c-0.166,0-0.314,0-0.474,0.007v2.363c0.139,0.019,0.272,0.033,0.396,0.033c0.832-0.016,1.411-0.473,1.411-1.239
				C321.134,2.696,320.734,2.246,319.8,2.246 M326.384,8.375c-2.166,0-3.226-1.374-3.226-3.568c0-2.344,1.564-3.752,3.467-3.752
				c1.889,0,3.225,1.135,3.225,3.561C329.85,6.957,328.305,8.375,326.384,8.375 M326.498,2.289c-0.977,0-1.878,0.778-1.878,2.37
				c0,1.502,0.589,2.476,1.86,2.476c0.923,0,1.908-0.713,1.908-2.413C328.387,3.148,327.719,2.289,326.498,2.289 M334.529,8.26
				l-1.735-2.924h-0.187v1.948c0.201,0.021,0.43,0.054,0.642,0.116V8.26h-2.92V7.412c0.274-0.056,0.601-0.106,0.913-0.128V2.149
				c-0.313-0.021-0.639-0.073-0.913-0.129v-0.85h0.82c0.274,0,1.257-0.043,2.129-0.043c1.566,0,2.574,0.545,2.574,1.995
				c0,0.987-0.673,1.713-1.67,1.924c0.131,0.166,0.251,0.345,0.358,0.512l1.094,1.711c0.198,0.032,0.449,0.073,0.692,0.117v0.871
				L334.529,8.26L334.529,8.26z M333.128,2.246c-0.187,0-0.384,0.007-0.522,0.026v2.053c0.095,0.009,0.274,0.019,0.484,0.019
				c0.829,0,1.321-0.418,1.321-1.081C334.412,2.581,334.002,2.246,333.128,2.246 M341.171,3.169
				c-0.05-0.321-0.104-0.607-0.122-0.871h-1.096v4.987c0.316,0.02,0.64,0.072,0.917,0.128v0.849h-3.194v-0.85
				c0.275-0.056,0.6-0.106,0.915-0.128V2.296h-1.082c-0.021,0.268-0.074,0.55-0.124,0.872h-1.012V1.172h5.806v1.996L341.171,3.169
				L341.171,3.169z M349.072,2.149v3.393c0,1.878-1.04,2.835-2.929,2.835c-2.239,0-2.739-1.217-2.739-2.569V2.149
				c-0.229-0.021-0.463-0.06-0.664-0.114V1.172h2.782v0.863c-0.239,0.061-0.513,0.093-0.757,0.115v3.571
				c0,0.894,0.287,1.522,1.464,1.522c1.049,0,1.5-0.441,1.5-1.649V2.149c-0.253-0.021-0.524-0.054-0.755-0.114V1.172h2.748v0.863
				C349.523,2.089,349.304,2.129,349.072,2.149 M356.115,5.522V7.93c-0.703,0.278-1.583,0.435-2.444,0.435
				c-2.235,0-3.562-1.323-3.562-3.481c0-2.258,1.514-3.814,3.928-3.814c0.664,0,1.322,0.093,1.979,0.265v1.9h-1.058
				c-0.058-0.304-0.093-0.574-0.125-0.853c-0.281-0.075-0.589-0.107-0.872-0.107c-1.375,0-2.369,0.875-2.369,2.48
				c0,1.504,0.815,2.383,2.257,2.383c0.334,0,0.627-0.04,0.897-0.127V5.532c-0.312-0.022-0.638-0.073-0.897-0.138V4.543h2.857v0.871
				C356.513,5.458,356.313,5.489,356.115,5.522 M361.045,8.26V7.412c0.223-0.042,0.505-0.095,0.744-0.114l-0.303-0.84h-2.582
				l-0.295,0.84c0.243,0.02,0.529,0.072,0.748,0.114V8.26h-2.666V7.412c0.169-0.056,0.376-0.095,0.556-0.106l2.161-6.134h1.671
				l2.207,6.134c0.178,0.012,0.39,0.054,0.557,0.106V8.26H361.045z M360.52,3.652c-0.131-0.39-0.236-0.724-0.323-1.113h-0.011
				c-0.088,0.353-0.189,0.769-0.336,1.164l-0.61,1.69h1.91L360.52,3.652z M364.158,8.26V7.412c0.276-0.056,0.603-0.106,0.916-0.128
				V2.149c-0.315-0.021-0.642-0.073-0.916-0.129v-0.85h3.195v0.85c-0.274,0.056-0.598,0.105-0.914,0.129v4.986h1.355
				c0.02-0.253,0.073-0.556,0.129-0.87h1.004v1.992L364.158,8.26L364.158,8.26z"/>
			<path fill="#333333" d="M295.791,1.356c-6.248,2.472-10.137,8.994-10.137,19.036v15.244c0,0,1.279-9.801,10.137-12.625V1.356z"/>
			<path fill="#333333" d="M298.816,24.521c-3.63,0.725-8.95,3.637-10.517,7.734c7.797-9.468,23.71-0.314,24.418-18.119
				c0.222-5.637,0.242-12.578,0.242-12.578c-8.308,0.467-14.144,2.682-14.144,2.682V24.521z"/>
			<path fill="#333333" d="M297.805,29.661c0,0-8.461,0.687-9.181,5.515c-0.567,3.774,9.181,3.876,9.181,3.876V29.661z"/>
		</g>
	</g>
	<g>
		<path fill="#333333" d="M552.992,2.058h0.857v3.737c0,0.652-0.074,1.17-0.221,1.551c-0.147,0.383-0.411,0.693-0.797,0.935
			c-0.389,0.241-0.889,0.357-1.513,0.357c-0.605,0-1.1-0.103-1.486-0.314c-0.39-0.207-0.66-0.508-0.824-0.906
			c-0.169-0.396-0.25-0.937-0.25-1.624V2.055h0.857V5.79c0,0.562,0.057,0.976,0.158,1.242c0.103,0.268,0.282,0.47,0.538,0.614
			s0.567,0.215,0.935,0.215c0.632,0,1.08-0.141,1.346-0.428c0.272-0.282,0.403-0.832,0.403-1.646V2.055h-0.004V2.058L552.992,2.058z
			"/>
		<path fill="#333333" d="M555.267,8.53V2.058h0.879l3.396,5.08v-5.08h0.822V8.53h-0.877l-3.394-5.086V8.53H555.267z"/>
		<path fill="#333333" d="M561.95,8.53V2.058h0.855V8.53H561.95z"/>
		<path fill="#333333" d="M563.604,8.53l2.487-6.473h0.922l2.647,6.473h-0.976l-0.755-1.961h-2.705l-0.709,1.961H563.604z
			 M565.158,1.661c-0.004-0.308,0.082-0.551,0.25-0.733c0.17-0.181,0.385-0.273,0.646-0.273c0.182,0,0.43,0.079,0.745,0.238
			c0.174,0.089,0.315,0.132,0.419,0.132c0.094,0,0.168-0.022,0.212-0.076c0.054-0.055,0.089-0.157,0.106-0.31h0.574
			c-0.012,0.336-0.093,0.587-0.254,0.759c-0.159,0.167-0.361,0.248-0.613,0.248c-0.186,0-0.426-0.082-0.729-0.244
			c-0.2-0.106-0.345-0.161-0.433-0.161c-0.099,0-0.181,0.034-0.239,0.106c-0.065,0.069-0.097,0.173-0.095,0.314H565.158z
			 M565.474,5.87h2.193l-0.679-1.79c-0.203-0.547-0.354-0.993-0.457-1.341c-0.085,0.413-0.2,0.825-0.352,1.233L565.474,5.87z"/>
		<path fill="#333333" d="M570.084,5.377c0-1.073,0.289-1.914,0.865-2.523c0.576-0.605,1.32-0.911,2.232-0.911
			c0.604,0,1.135,0.145,1.617,0.43c0.477,0.284,0.844,0.682,1.096,1.194c0.247,0.509,0.376,1.089,0.376,1.735
			c0,0.656-0.13,1.242-0.397,1.762c-0.264,0.518-0.638,0.911-1.124,1.175c-0.485,0.269-1.012,0.399-1.574,0.399
			c-0.608,0-1.153-0.146-1.632-0.439c-0.481-0.296-0.842-0.696-1.093-1.206C570.208,6.483,570.084,5.944,570.084,5.377z
			 M570.968,5.391c0,0.78,0.208,1.395,0.629,1.841c0.418,0.451,0.942,0.677,1.578,0.677c0.646,0,1.173-0.23,1.589-0.682
			c0.416-0.454,0.624-1.098,0.624-1.928c0-0.53-0.088-0.986-0.267-1.38c-0.178-0.395-0.438-0.698-0.781-0.914
			c-0.345-0.216-0.728-0.323-1.153-0.323c-0.61,0-1.132,0.209-1.569,0.624C571.183,3.721,570.968,4.417,570.968,5.391z"/>
		<path fill="#333333" d="M579.906,8.53V2.058h4.679v0.765h-3.823v1.984h3.581v0.758h-3.581v2.203h3.973v0.766L579.906,8.53
			L579.906,8.53z"/>
		<path fill="#333333" d="M590.163,2.058h0.857v3.737c0,0.652-0.075,1.17-0.223,1.551c-0.148,0.383-0.413,0.693-0.798,0.935
			c-0.39,0.241-0.889,0.357-1.512,0.357c-0.606,0-1.101-0.103-1.487-0.314c-0.385-0.207-0.658-0.508-0.825-0.906
			c-0.167-0.396-0.246-0.937-0.246-1.624V2.055h0.856V5.79c0,0.562,0.057,0.976,0.155,1.242c0.106,0.268,0.287,0.47,0.539,0.614
			c0.256,0.145,0.569,0.215,0.935,0.215c0.629,0,1.08-0.141,1.346-0.428c0.271-0.282,0.404-0.832,0.404-1.646L590.163,2.058
			L590.163,2.058z"/>
		<path fill="#333333" d="M592.457,8.53V2.058h2.87c0.577,0,1.019,0.06,1.317,0.175s0.539,0.322,0.721,0.616
			c0.181,0.294,0.272,0.616,0.272,0.975c0,0.46-0.147,0.848-0.444,1.163c-0.297,0.314-0.76,0.514-1.383,0.599
			c0.233,0.111,0.398,0.216,0.517,0.322c0.25,0.229,0.492,0.516,0.717,0.86l1.124,1.763h-1.075l-0.857-1.349
			c-0.25-0.389-0.458-0.686-0.617-0.891c-0.163-0.205-0.306-0.353-0.435-0.431c-0.129-0.084-0.258-0.141-0.39-0.173
			c-0.094-0.02-0.254-0.031-0.477-0.031h-0.991V8.53H592.457L592.457,8.53z M593.314,4.914h1.839c0.391,0,0.699-0.042,0.914-0.122
			c0.222-0.079,0.392-0.208,0.503-0.388c0.114-0.179,0.17-0.371,0.17-0.581c0-0.306-0.108-0.558-0.33-0.754
			c-0.225-0.199-0.574-0.295-1.056-0.295h-2.049v2.138L593.314,4.914L593.314,4.914z"/>
		<path fill="#333333" d="M598.714,5.377c0-1.073,0.288-1.914,0.863-2.523c0.577-0.605,1.322-0.911,2.234-0.911
			c0.597,0,1.134,0.145,1.614,0.43c0.479,0.284,0.846,0.682,1.096,1.194c0.249,0.509,0.379,1.089,0.379,1.735
			c0,0.656-0.13,1.242-0.394,1.762c-0.267,0.518-0.641,0.911-1.13,1.175c-0.486,0.269-1.01,0.399-1.573,0.399
			c-0.607,0-1.153-0.146-1.63-0.439c-0.482-0.296-0.846-0.696-1.094-1.206C598.837,6.483,598.714,5.944,598.714,5.377z
			 M599.596,5.391c0,0.78,0.21,1.395,0.631,1.841c0.419,0.451,0.944,0.677,1.576,0.677c0.644,0,1.175-0.23,1.591-0.682
			c0.415-0.454,0.624-1.098,0.624-1.928c0-0.53-0.092-0.986-0.27-1.38c-0.174-0.395-0.435-0.698-0.78-0.914
			c-0.347-0.216-0.728-0.323-1.155-0.323c-0.607,0-1.129,0.209-1.567,0.624C599.813,3.721,599.596,4.417,599.596,5.391z"/>
		<path fill="#333333" d="M606.004,8.53V2.058h2.441c0.428,0,0.76,0.022,0.982,0.063c0.316,0.057,0.581,0.154,0.797,0.302
			c0.214,0.148,0.392,0.357,0.518,0.625c0.133,0.268,0.197,0.563,0.197,0.882c0,0.553-0.172,1.017-0.522,1.397
			c-0.353,0.382-0.983,0.571-1.901,0.571h-1.658V8.53H606.004z M606.859,5.137h1.675c0.553,0,0.946-0.102,1.18-0.312
			c0.229-0.204,0.348-0.497,0.348-0.87c0-0.271-0.065-0.501-0.204-0.694c-0.137-0.192-0.314-0.32-0.538-0.382
			c-0.144-0.04-0.411-0.057-0.797-0.057h-1.657v2.314H606.859z"/>
		<path fill="#333333" d="M612.052,8.53V2.058h4.679v0.765h-3.822v1.984h3.579v0.758h-3.579v2.203h3.976v0.766L612.052,8.53
			L612.052,8.53z"/>
		<path fill="#333333" d="M618.208,8.53V2.058h0.854V8.53H618.208z"/>
		<path fill="#333333" d="M619.863,8.53l2.484-6.473h0.922l2.65,6.473h-0.979l-0.754-1.961h-2.705l-0.712,1.961H619.863z
			 M621.73,5.87h2.193l-0.676-1.79c-0.204-0.547-0.357-0.993-0.46-1.341c-0.081,0.413-0.203,0.825-0.352,1.233L621.73,5.87z"/>
	</g>
	<g>
		<g>
			<rect x="180.636" y="21.154" fill="#333333" width="20.755" height="6.473"/>
			<path fill="#333333" d="M190.824,14.322c4.823-3.483,7.589-11.795,0.632-11.795c5.639,0,9.683,3.376,9.683,8.061v0.066
				c0,3.768-2.007,5.807-4.963,7.713l-0.25,0.158h-11.385L190.824,14.322z"/>
			<path fill="#333333" d="M207.144,6.099c-2.525,2.334-4.06,5.618-4.06,9.274v0.07c0,4.662,2.466,8.679,6.28,10.919
				c6.69,2.365,13.484-0.96,13.484-7.216c0-1.566-0.414-3.01-1.155-4.191c0.007,0.138,0.018,0.279,0.018,0.419v0.07
				c0,1.984-0.925,3.829-2.521,4.799c-5.835,4.433-13.386,0.319-13.386-8.513C205.805,9.773,206.265,7.823,207.144,6.099"/>
			<path fill="#333333" d="M230.029,15.373c0,7.04-5.683,12.679-13.117,12.87c5.027-0.159,8.17-4.398,8.17-9.095v-0.123
				c0-4.843-3.32-9.21-8.563-9.224c-3.147,0.018-5.112,2.617-5.112,5.504v0.069c0,2.908,1.983,5.538,5.112,5.576
				c-5.199-0.056-8.487-4.404-8.487-9.221v-0.122c0-4.79,3.273-9.111,8.466-9.111h0.096c7.616,0,13.436,5.646,13.436,12.811V15.373
				L230.029,15.373z"/>
			<path fill="#333333" d="M143.02,6.746c0.538-2.929-2.466-4.404-5.494-3.844c-3.042,0.722-5.174,2.44-7.282,5.047l5.415,4.613
				c2.043-2.184,3.344-3.07,4.749-3.07c0.527,0,0.963,0.109,1.311,0.301C142.383,8.76,142.847,7.677,143.02,6.746"/>
			<rect x="130.299" y="21.154" fill="#333333" width="20.751" height="6.473"/>
			<path fill="#333333" d="M134.201,18.525h11.39l0.242-0.158c2.955-1.899,4.97-3.945,4.97-7.713v-0.071
				c0-4.68-4.05-8.056-9.684-8.056c6.951,0,4.191,8.312-0.631,11.795L134.201,18.525z"/>
			<path fill="#333333" d="M155.464,11.728c0,8.834,7.549,12.945,13.385,8.513c1.596-0.971,2.521-2.813,2.521-4.799V15.37
				c0-0.14-0.005-0.279-0.018-0.418c0.741,1.181,1.161,2.624,1.161,4.19c0,6.254-6.794,9.582-13.484,7.214
				c-3.826-2.237-6.286-6.252-6.286-10.914v-0.071c0-3.655,1.538-6.94,4.056-9.275C155.926,7.823,155.464,9.773,155.464,11.728"/>
			<path fill="#333333" d="M179.691,15.303c0-7.158-5.818-12.809-13.439-12.809h-0.097c-5.199,0-8.46,4.32-8.46,9.11v0.122
				c0,4.816,3.284,9.167,8.487,9.221c-3.13-0.036-5.118-2.668-5.118-5.577v-0.069c0-2.883,1.966-5.485,5.118-5.502
				c5.243,0.017,8.557,4.38,8.557,9.225v0.119c0,4.693-3.141,8.946-8.164,9.097c7.424-0.19,13.116-5.827,13.116-12.87V15.303
				L179.691,15.303z"/>
			<path fill="#333333" d="M192.063,9.79c-0.351-0.191-0.792-0.301-1.31-0.301c-1.409,0-2.71,0.887-4.75,3.07l-5.423-4.617
				c2.113-2.603,4.24-4.322,7.289-5.043c3.021-0.56,6.03,0.916,5.493,3.844C193.188,7.677,192.725,8.76,192.063,9.79"/>
		</g>
		<g>
			<path fill="#333333" d="M0.001,34.413h1.474c0.836,0,1.296,0.494,1.296,1.165c0,0.67-0.461,1.156-1.296,1.156H0.721v1.268h0.398
				v0.279H0.001v-0.279h0.347v-3.315H0.001V34.413z M1.443,36.439c0.628,0,0.94-0.341,0.94-0.861c0-0.528-0.316-0.867-0.94-0.867
				H0.721v1.726L1.443,36.439L1.443,36.439z"/>
			<path fill="#333333" d="M4.572,36.691H3.728v1.311h0.397v0.279H3.009v-0.279h0.344v-3.315H3.009v-0.273h1.497
				c0.837,0,1.29,0.501,1.29,1.155c0,0.521-0.292,0.925-0.848,1.058L5.806,38h0.358v0.276H5.555L4.572,36.691z M4.456,36.394
				c0.657,0,0.952-0.321,0.952-0.834c0-0.515-0.301-0.849-0.952-0.849H3.728v1.683H4.456z"/>
			<path fill="#333333" d="M6.34,36.344c0-1.142,0.89-1.975,1.984-1.975c1.102,0,1.986,0.833,1.986,1.975
				c0,1.14-0.885,1.975-1.986,1.975C7.228,38.318,6.34,37.483,6.34,36.344z M9.916,36.344c0-0.943-0.676-1.652-1.594-1.652
				c-0.921,0-1.596,0.712-1.596,1.652c0,0.942,0.675,1.649,1.596,1.649C9.24,37.995,9.916,37.286,9.916,36.344z"/>
			<path fill="#333333" d="M13.966,37.848c-0.278,0.279-0.698,0.471-1.261,0.471c-1.067,0-1.951-0.761-1.951-1.975
				c0-1.142,0.879-1.975,1.941-1.975c0.533,0,0.941,0.171,1.169,0.487v-0.443h0.309v0.994h-0.291
				c-0.142-0.472-0.55-0.711-1.163-0.711c-0.921,0-1.578,0.704-1.578,1.647c0,0.965,0.686,1.649,1.598,1.649
				c0.604,0,0.979-0.232,1.212-0.463v-0.813h-1.165v-0.297h1.516v1.854h-0.335V37.848z"/>
			<path fill="#333333" d="M16.41,36.691h-0.847v1.311h0.397v0.279h-1.116v-0.279h0.345v-3.315h-0.345v-0.273h1.498
				c0.835,0,1.289,0.501,1.289,1.155c0,0.521-0.289,0.925-0.845,1.058L17.643,38h0.359v0.276h-0.608L16.41,36.691z M16.291,36.394
				c0.659,0,0.954-0.321,0.954-0.834c0-0.515-0.302-0.849-0.954-0.849h-0.728v1.683H16.291z"/>
			<path fill="#333333" d="M21.926,38.276h-1.059V38h0.37l-0.278-0.765h-1.731L18.943,38h0.377v0.276h-1.027V38h0.294l1.211-3.317
				h-0.28v-0.276H20.7v0.276h-0.284l1.209,3.319h0.301V38.276L21.926,38.276z M19.331,36.923h1.524l-0.76-2.152L19.331,36.923"/>
			<path fill="#333333" d="M26.551,38.276h-1.1V38h0.392v-3.009l-1.368,2.111H24.32l-1.367-2.132V38h0.396v0.276h-1.077V38h0.348
				v-3.314h-0.358v-0.273h0.737l1.408,2.197l1.413-2.197h0.744v0.273h-0.359v3.316h0.347V38.276L26.551,38.276z"/>
			<path fill="#333333" d="M30.531,38.276h-1.057V38h0.37l-0.278-0.765h-1.731L27.551,38h0.376v0.276H26.9V38h0.295l1.206-3.317
				h-0.277v-0.276h1.181v0.276h-0.284l1.208,3.319h0.301L30.531,38.276L30.531,38.276z M27.938,36.923h1.53l-0.763-2.152
				L27.938,36.923z"/>
			<path fill="#333333" d="M31.828,36.344c0-1.142,0.89-1.975,1.982-1.975c1.101,0,1.987,0.833,1.987,1.975
				c0,1.14-0.887,1.975-1.987,1.975C32.718,38.318,31.828,37.483,31.828,36.344z M35.404,36.344c0-0.943-0.675-1.652-1.596-1.652
				c-0.92,0-1.595,0.712-1.595,1.652c0,0.942,0.675,1.649,1.595,1.649C34.729,37.995,35.404,37.286,35.404,36.344z"/>
			<path fill="#333333" d="M36.169,34.413h1.476c0.832,0,1.291,0.494,1.291,1.165c0,0.67-0.461,1.156-1.291,1.156h-0.758v1.268
				h0.398v0.279h-1.117v-0.279h0.345v-3.315h-0.345L36.169,34.413L36.169,34.413z M37.609,36.439c0.629,0,0.942-0.341,0.942-0.861
				c0-0.528-0.319-0.867-0.942-0.867h-0.723v1.726L37.609,36.439L37.609,36.439z"/>
			<path fill="#333333" d="M41.552,34.721h-1.657v1.463h1.55v0.297h-1.55v1.491h1.737v-0.538h0.3v0.843h-2.758V38h0.346v-3.314
				h-0.346v-0.273h2.678v0.837h-0.3V34.721z"/>
			<path fill="#333333" d="M43.947,36.691h-0.846v1.311h0.396v0.279h-1.119v-0.279h0.349v-3.315h-0.349v-0.273h1.501
				c0.835,0,1.286,0.501,1.286,1.155c0,0.521-0.288,0.925-0.844,1.058L45.179,38h0.357v0.276h-0.608L43.947,36.691z M43.827,36.394
				c0.658,0,0.952-0.321,0.952-0.834c0-0.515-0.299-0.849-0.952-0.849h-0.726v1.683H43.827z"/>
			<path fill="#333333" d="M49.461,38.276h-1.055V38h0.365l-0.277-0.765h-1.73L46.48,38h0.373v0.276h-1.027V38h0.295l1.209-3.317
				h-0.276v-0.276h1.179v0.276h-0.284l1.208,3.319h0.303L49.461,38.276L49.461,38.276z M46.864,36.923h1.526l-0.757-2.152
				L46.864,36.923z"/>
			<path fill="#333333" d="M51.447,34.361c0.563,0,0.971,0.201,1.204,0.531v-0.475h0.306v1.076h-0.276
				c-0.137-0.539-0.63-0.798-1.211-0.798c-0.92,0-1.569,0.711-1.569,1.65c0,0.96,0.675,1.65,1.583,1.65
				c0.56,0,1.016-0.241,1.316-0.649l0.283,0.203c-0.376,0.502-0.915,0.771-1.608,0.771c-1.106,0-1.967-0.825-1.967-1.975
				C49.515,35.194,50.37,34.361,51.447,34.361z"/>
			<path fill="#333333" d="M53.438,34.413H54.5v0.273h-0.345v3.315H54.5v0.279h-1.061v-0.279h0.348v-3.315h-0.348L53.438,34.413
				L53.438,34.413z"/>
			<path fill="#333333" d="M54.864,36.344c0-1.142,0.885-1.975,1.98-1.975c1.103,0,1.985,0.833,1.985,1.975
				c0,1.14-0.884,1.975-1.985,1.975C55.75,38.318,54.864,37.483,54.864,36.344z M58.438,36.344c0-0.943-0.675-1.652-1.595-1.652
				c-0.919,0-1.596,0.712-1.596,1.652c0,0.942,0.677,1.649,1.596,1.649C57.764,37.995,58.438,37.286,58.438,36.344z"/>
			<path fill="#333333" d="M62.877,34.687h-0.348v3.59h-0.243l-2.396-3.327v3.053h0.381v0.279h-1.066v-0.279h0.345v-3.315h-0.345
				v-0.273h0.721l2.264,3.149v-2.876h-0.387v-0.273h1.075L62.877,34.687L62.877,34.687z"/>
			<path fill="#333333" d="M66.667,38.276h-1.055V38h0.367l-0.276-0.765H63.97L63.687,38h0.375v0.276h-1.027V38h0.297l1.209-3.317
				h-0.279v-0.276h1.179v0.276h-0.281l1.208,3.319h0.301V38.276z M64.074,36.923h1.526l-0.758-2.152L64.074,36.923z"/>
			<path fill="#333333" d="M67.009,34.413h1.067v0.273H67.73v3.283h1.521v-0.538h0.303v0.844h-2.546v-0.277h0.349v-3.317h-0.349
				V34.413z"/>
			<path fill="#333333" d="M72.478,36.691h-0.844v1.311h0.396v0.279h-1.122v-0.279h0.351v-3.315h-0.351v-0.273h1.5
				c0.836,0,1.291,0.501,1.291,1.155c0,0.521-0.291,0.925-0.848,1.058L73.709,38h0.356v0.276h-0.608L72.478,36.691z M72.355,36.394
				c0.66,0,0.955-0.321,0.955-0.834c0-0.515-0.301-0.849-0.955-0.849h-0.722v1.683H72.355z"/>
			<path fill="#333333" d="M76.799,34.721h-1.658v1.463h1.547v0.297h-1.547v1.491h1.736v-0.538h0.301v0.843h-2.759V38h0.347v-3.314
				h-0.347v-0.273h2.678v0.837h-0.298V34.721z"/>
			<path fill="#333333" d="M80.807,37.848c-0.278,0.279-0.696,0.471-1.259,0.471c-1.067,0-1.951-0.761-1.951-1.975
				c0-1.142,0.877-1.975,1.938-1.975c0.535,0,0.942,0.171,1.169,0.487v-0.443h0.308v0.994h-0.291
				c-0.142-0.472-0.547-0.711-1.163-0.711c-0.919,0-1.578,0.704-1.578,1.647c0,0.965,0.688,1.649,1.604,1.649
				c0.6,0,0.975-0.232,1.206-0.463v-0.813h-1.164v-0.297h1.514v1.854h-0.332V37.848L80.807,37.848z"/>
			<path fill="#333333" d="M81.688,34.413h1.063v0.273h-0.347v3.315h0.347v0.279h-1.063v-0.279h0.348v-3.315h-0.348V34.413z"/>
			<path fill="#333333" d="M83.111,36.344c0-1.142,0.886-1.975,1.983-1.975c1.1,0,1.986,0.833,1.986,1.975
				c0,1.14-0.887,1.975-1.986,1.975C83.997,38.318,83.111,37.483,83.111,36.344z M86.688,36.344c0-0.943-0.674-1.652-1.594-1.652
				c-0.918,0-1.596,0.712-1.596,1.652c0,0.942,0.677,1.649,1.596,1.649C86.015,37.995,86.688,37.286,86.688,36.344z"/>
			<path fill="#333333" d="M91.124,34.687h-0.348v3.59h-0.242l-2.396-3.327v3.053h0.38v0.279h-1.065v-0.279h0.348v-3.315h-0.348
				v-0.273h0.723l2.262,3.149v-2.876h-0.385v-0.273h1.072L91.124,34.687L91.124,34.687z"/>
			<path fill="#333333" d="M94.919,38.276h-1.058V38h0.369l-0.278-0.765h-1.73L91.938,38h0.372v0.276h-1.024V38h0.296l1.206-3.317
				h-0.276v-0.276h1.18v0.276h-0.283l1.207,3.319h0.303L94.919,38.276L94.919,38.276z M92.324,36.923h1.527l-0.759-2.152
				L92.324,36.923z"/>
			<path fill="#333333" d="M95.259,34.413h1.067v0.273h-0.35v3.283h1.521v-0.538h0.309v0.844h-2.549v-0.277h0.346v-3.317h-0.346
				L95.259,34.413L95.259,34.413z"/>
			<path fill="#333333" d="M99.161,34.413h1.308c1.279,0,2.041,0.789,2.041,1.931c0,1.138-0.756,1.933-2.041,1.933h-1.308V38h0.345
				v-3.314h-0.345V34.413z M100.435,37.969c1.143,0,1.687-0.68,1.687-1.625c0-0.948-0.543-1.623-1.687-1.623h-0.552v3.248H100.435z"
				/>
			<path fill="#333333" d="M102.959,36.344c0-1.142,0.886-1.975,1.982-1.975c1.1,0,1.984,0.833,1.984,1.975
				c0,1.14-0.885,1.975-1.984,1.975C103.845,38.318,102.959,37.483,102.959,36.344z M106.534,36.344
				c0-0.943-0.675-1.652-1.595-1.652c-0.921,0-1.595,0.712-1.595,1.652c0,0.942,0.674,1.649,1.595,1.649
				C105.861,37.995,106.534,37.286,106.534,36.344z"/>
			<path fill="#333333" d="M112.021,34.687h-0.346v3.59h-0.245l-2.396-3.327v3.053h0.383v0.279h-1.067v-0.279h0.347v-3.315h-0.347
				v-0.273h0.721l2.265,3.149v-2.876h-0.388v-0.273h1.074L112.021,34.687L112.021,34.687z"/>
			<path fill="#333333" d="M112.361,36.344c0-1.142,0.885-1.975,1.984-1.975s1.984,0.833,1.984,1.975
				c0,1.14-0.886,1.975-1.984,1.975S112.361,37.483,112.361,36.344z M115.938,36.344c0-0.943-0.675-1.652-1.595-1.652
				c-0.918,0-1.597,0.712-1.597,1.652c0,0.942,0.679,1.649,1.597,1.649C115.264,37.995,115.938,37.286,115.938,36.344z"/>
			<path fill="#333333" d="M118.268,36.691h-0.845v1.311h0.396v0.279h-1.117v-0.279h0.345v-3.315h-0.345v-0.273h1.498
				c0.835,0,1.289,0.501,1.289,1.155c0,0.521-0.291,0.925-0.846,1.058L119.499,38h0.358v0.276h-0.607L118.268,36.691z
				 M118.149,36.394c0.657,0,0.953-0.321,0.953-0.834c0-0.515-0.3-0.849-0.953-0.849h-0.725v1.683H118.149z"/>
			<path fill="#333333" d="M122.604,34.721h-0.963v3.281h0.372v0.279h-1.117v-0.279h0.373v-3.281h-0.964v0.533h-0.306v-0.836h2.904
				v0.836h-0.3V34.721L122.604,34.721z"/>
			<path fill="#333333" d="M125.669,34.721h-1.657v1.463h1.551v0.297h-1.551v1.491h1.735v-0.538h0.303v0.843h-2.759V38h0.345v-3.314
				h-0.345v-0.273h2.679v0.837h-0.302L125.669,34.721L125.669,34.721z"/>
		</g>
		<path fill="#333333" d="M29.621,11.654c0,8.826,7.542,12.931,13.365,8.505c1.586-0.964,2.514-2.821,2.514-4.785v-0.077
			c0-0.136-0.006-0.28-0.019-0.418c0.749,1.174,1.161,2.617,1.161,4.178c0,6.251-6.785,9.575-13.461,7.205
			c-3.807-2.234-6.269-6.242-6.269-10.889v-0.077c0-3.65,1.534-6.92,4.042-9.257C30.09,7.763,29.621,9.701,29.621,11.654
			 M67.903,9.542c1.907,0,3.134,0.945,3.134,2.565c1.933-0.599,2.595-1.856,2.595-3.238c0-3.837-4.271-5.906-8.987-5.906h-8.573
			v6.579H67.903z M53.805,15.297c0,7.029-5.678,12.659-13.087,12.851c5.01-0.159,8.151-4.399,8.151-9.088v-0.117
			c0-4.836-3.314-9.19-8.551-9.207c-3.143,0.017-5.101,2.614-5.101,5.494v0.067c0,2.903,1.973,5.528,5.101,5.568
			c-5.189-0.057-8.471-4.397-8.471-9.211v-0.117c0-4.777,3.259-9.088,8.448-9.088h0.09c7.61,0,13.419,5.63,13.419,12.776V15.297
			L53.805,15.297z M8.165,2.964H0l16.478,24.658h8.167L8.165,2.964z M16.477,2.964h8.168V22.84l-8.168-12.045V2.964z M0.001,8.01
			v19.612h8.166v-7.562L0.001,8.01z M75.658,21.106l4.463,6.516h-9.398l-3.224-4.878c2.722-0.14,5.61-0.496,7.788-1.474
			C75.418,21.224,75.535,21.16,75.658,21.106 M74.382,19.242c2.893-1.283,4.858-3.947,4.858-7.535v-0.074
			c0-2.531-0.771-4.365-2.248-5.838c-1.562-1.567-3.986-2.611-7.664-2.792c-0.354-0.026-0.715-0.042-1.094-0.042h-0.116
			c0.419,0,0.816,0.021,1.21,0.042c4.001,0.281,6.53,2.159,6.53,5.699v0.165c0,3.686-2.909,5.838-7.706,5.838h-2.075v5.878
			C66.077,20.583,71.493,20.529,74.382,19.242 M80.291,2.964h22.77v6.483h-22.77V2.964z M104.957,9.447h20.981V2.973h-20.981V9.447z
			 M104.957,21.182h20.981v6.475h-20.981V21.182z M56.074,27.624h8.175v-15.55h-8.175V27.624z M95.809,27.624h-8.175v-15.55h8.175
			V27.624z M104.957,18.541h16.369v-6.47h-16.369V18.541z"/>
	</g>
	<g>
		<polygon fill="#333333" points="548.328,30.814 548.328,25.231 552.094,25.231 552.094,25.895 549.069,25.895 549.069,27.616 
			551.688,27.616 551.688,28.277 549.069,28.277 549.069,30.814 		"/>
		<path fill="#333333" d="M555.613,30.814v-0.597c-0.313,0.453-0.742,0.687-1.28,0.687c-0.24,0-0.465-0.048-0.67-0.14
			c-0.208-0.094-0.359-0.205-0.461-0.345c-0.104-0.139-0.17-0.307-0.21-0.508c-0.026-0.135-0.045-0.348-0.045-0.645v-2.497h0.687
			v2.24c0,0.356,0.014,0.601,0.046,0.724c0.039,0.181,0.126,0.319,0.269,0.425c0.142,0.1,0.316,0.151,0.521,0.151
			s0.4-0.052,0.578-0.154c0.175-0.108,0.307-0.252,0.38-0.434c0.076-0.179,0.111-0.439,0.111-0.787v-2.164h0.686v4.043H555.613z"/>
		<path fill="#333333" d="M557.295,30.814v-4.043h0.618v0.575c0.301-0.445,0.726-0.668,1.283-0.668c0.245,0,0.471,0.044,0.673,0.131
			c0.203,0.089,0.36,0.203,0.455,0.346c0.107,0.143,0.178,0.312,0.22,0.501c0.023,0.128,0.035,0.352,0.035,0.672v2.486h-0.684V28.35
			c0-0.276-0.028-0.483-0.084-0.622c-0.052-0.142-0.145-0.248-0.278-0.328c-0.143-0.084-0.298-0.127-0.481-0.127
			c-0.293,0-0.541,0.092-0.754,0.279c-0.213,0.179-0.317,0.53-0.317,1.054v2.209H557.295z"/>
		<path fill="#333333" d="M564.253,30.814v-0.513c-0.256,0.401-0.635,0.604-1.132,0.604c-0.321,0-0.614-0.092-0.885-0.271
			c-0.275-0.179-0.478-0.427-0.629-0.743c-0.15-0.319-0.221-0.687-0.221-1.096c0-0.404,0.065-0.773,0.202-1.099
			c0.13-0.329,0.332-0.579,0.602-0.759c0.271-0.17,0.573-0.258,0.902-0.258c0.244,0,0.46,0.054,0.649,0.146
			c0.192,0.108,0.351,0.243,0.466,0.411v-2.007h0.682v5.583H564.253z M562.086,28.797c0,0.517,0.107,0.904,0.329,1.161
			c0.219,0.253,0.474,0.386,0.771,0.386c0.302,0,0.555-0.125,0.76-0.37c0.217-0.241,0.318-0.619,0.318-1.119
			c0-0.556-0.107-0.957-0.318-1.22c-0.216-0.257-0.477-0.39-0.79-0.39c-0.307,0-0.559,0.124-0.763,0.372
			C562.188,27.869,562.086,28.261,562.086,28.797"/>
		<path fill="#333333" d="M565.712,28.79c0-0.747,0.208-1.3,0.62-1.659c0.347-0.304,0.771-0.449,1.271-0.449
			c0.553,0,1.013,0.178,1.362,0.544c0.357,0.36,0.529,0.866,0.529,1.503c0,0.523-0.075,0.935-0.23,1.232
			c-0.159,0.298-0.386,0.528-0.686,0.694c-0.299,0.163-0.62,0.249-0.976,0.249c-0.563,0-1.019-0.188-1.368-0.548
			C565.885,29.995,565.712,29.471,565.712,28.79 M566.412,28.79c0,0.516,0.111,0.909,0.341,1.168
			c0.228,0.253,0.508,0.386,0.851,0.386c0.342,0,0.624-0.135,0.852-0.393c0.226-0.259,0.338-0.65,0.338-1.18
			c0-0.503-0.112-0.873-0.338-1.135c-0.228-0.257-0.512-0.391-0.852-0.391c-0.343,0-0.623,0.133-0.851,0.388
			C566.523,27.884,566.412,28.273,566.412,28.79"/>
		<path fill="#333333" d="M570.021,29.603l0.68-0.106c0.039,0.271,0.143,0.479,0.318,0.627c0.172,0.143,0.415,0.219,0.727,0.219
			c0.316,0,0.549-0.066,0.702-0.195c0.149-0.127,0.227-0.281,0.227-0.449c0-0.154-0.065-0.281-0.204-0.368
			c-0.092-0.06-0.325-0.138-0.699-0.231c-0.502-0.128-0.847-0.234-1.043-0.326c-0.195-0.094-0.339-0.221-0.443-0.389
			c-0.099-0.166-0.15-0.342-0.15-0.545c0-0.177,0.044-0.346,0.126-0.499c0.085-0.147,0.194-0.279,0.337-0.382
			c0.104-0.081,0.25-0.147,0.432-0.201c0.188-0.051,0.386-0.078,0.594-0.078c0.318,0,0.596,0.044,0.836,0.131
			c0.241,0.092,0.418,0.221,0.531,0.378c0.116,0.151,0.191,0.361,0.237,0.624l-0.666,0.091c-0.038-0.207-0.122-0.37-0.269-0.488
			c-0.147-0.116-0.35-0.174-0.617-0.174c-0.315,0-0.541,0.053-0.678,0.157c-0.129,0.104-0.198,0.224-0.198,0.362
			c0,0.093,0.028,0.169,0.078,0.242c0.059,0.072,0.147,0.135,0.268,0.184c0.069,0.021,0.273,0.079,0.604,0.173
			c0.485,0.131,0.827,0.234,1.015,0.316c0.193,0.08,0.344,0.204,0.454,0.358c0.104,0.159,0.164,0.352,0.164,0.585
			c0,0.232-0.065,0.445-0.202,0.649c-0.132,0.199-0.326,0.354-0.576,0.467c-0.248,0.107-0.534,0.168-0.853,0.168
			c-0.523,0-0.92-0.112-1.198-0.331C570.273,30.354,570.097,30.031,570.021,29.603"/>
		<polygon fill="#333333" points="576.465,30.814 576.465,25.231 580.496,25.231 580.496,25.895 577.202,25.895 577.202,27.598 
			580.286,27.598 580.286,28.249 577.202,28.249 577.202,30.15 580.624,30.15 580.624,30.814 		"/>
		<path fill="#333333" d="M584.203,30.814v-0.597c-0.316,0.453-0.739,0.687-1.28,0.687c-0.242,0-0.464-0.048-0.664-0.14
			c-0.21-0.094-0.363-0.205-0.468-0.345c-0.094-0.139-0.168-0.307-0.206-0.508c-0.03-0.135-0.044-0.348-0.044-0.645v-2.497h0.688
			v2.24c0,0.356,0.007,0.601,0.034,0.724c0.045,0.181,0.135,0.319,0.279,0.425c0.136,0.1,0.309,0.151,0.515,0.151
			c0.205,0,0.396-0.052,0.576-0.154c0.183-0.108,0.31-0.252,0.385-0.434c0.076-0.179,0.11-0.439,0.11-0.787v-2.164h0.688v4.043
			H584.203z"/>
		<path fill="#333333" d="M585.884,30.814v-4.043h0.613v0.612c0.161-0.285,0.304-0.481,0.438-0.573
			c0.132-0.088,0.282-0.13,0.437-0.13c0.234,0,0.463,0.075,0.702,0.218l-0.234,0.634c-0.166-0.096-0.336-0.146-0.503-0.146
			c-0.144,0-0.28,0.043-0.401,0.135c-0.12,0.088-0.203,0.215-0.255,0.373c-0.077,0.241-0.112,0.509-0.112,0.801v2.118
			L585.884,30.814L585.884,30.814z"/>
		<path fill="#333333" d="M588.229,28.79c0-0.747,0.207-1.3,0.626-1.659c0.349-0.304,0.77-0.449,1.269-0.449
			c0.556,0,1.012,0.178,1.36,0.544c0.355,0.36,0.534,0.866,0.534,1.503c0,0.523-0.079,0.935-0.237,1.232s-0.383,0.528-0.684,0.694
			c-0.293,0.163-0.619,0.249-0.978,0.249c-0.567,0-1.021-0.188-1.372-0.548C588.404,29.995,588.229,29.471,588.229,28.79
			 M588.935,28.79c0,0.516,0.115,0.909,0.334,1.168c0.227,0.253,0.511,0.386,0.854,0.386c0.343,0,0.621-0.135,0.848-0.393
			c0.227-0.259,0.338-0.65,0.338-1.18c0-0.503-0.111-0.873-0.338-1.135c-0.229-0.257-0.512-0.391-0.848-0.391
			c-0.344,0-0.628,0.133-0.854,0.388C589.05,27.884,588.935,28.273,588.935,28.79"/>
		<path fill="#333333" d="M592.819,32.358v-5.585h0.622v0.524c0.145-0.21,0.314-0.361,0.498-0.464
			c0.186-0.099,0.413-0.152,0.677-0.152c0.343,0,0.647,0.088,0.912,0.266c0.261,0.178,0.464,0.429,0.599,0.751
			c0.13,0.32,0.2,0.68,0.2,1.059c0,0.418-0.073,0.792-0.224,1.117c-0.146,0.334-0.361,0.588-0.646,0.766
			c-0.281,0.175-0.58,0.267-0.893,0.267c-0.228,0-0.433-0.057-0.612-0.146c-0.183-0.097-0.331-0.219-0.448-0.367v1.965H592.819z
			 M593.439,28.813c0,0.516,0.102,0.905,0.316,1.151c0.209,0.249,0.465,0.377,0.764,0.377c0.305,0,0.569-0.131,0.783-0.386
			c0.213-0.259,0.321-0.663,0.321-1.202c0-0.514-0.101-0.899-0.315-1.158c-0.208-0.257-0.465-0.381-0.76-0.381
			c-0.29,0-0.549,0.134-0.77,0.404C593.551,27.896,593.439,28.293,593.439,28.813"/>
		<path fill="#333333" d="M599.913,29.511l0.71,0.085c-0.107,0.411-0.314,0.74-0.614,0.964c-0.309,0.228-0.688,0.347-1.162,0.347
			c-0.59,0-1.06-0.188-1.405-0.549c-0.344-0.369-0.516-0.875-0.516-1.532c0-0.679,0.172-1.208,0.524-1.584
			c0.351-0.374,0.802-0.56,1.361-0.56c0.539,0,0.981,0.183,1.324,0.551c0.338,0.365,0.514,0.885,0.514,1.549
			c0,0.044-0.002,0.104-0.002,0.184h-3.014c0.021,0.443,0.149,0.782,0.376,1.02c0.224,0.24,0.502,0.357,0.843,0.357
			c0.251,0,0.464-0.067,0.64-0.205C599.671,30.007,599.813,29.801,599.913,29.511 M597.673,28.404h2.253
			c-0.03-0.347-0.119-0.596-0.26-0.768c-0.221-0.261-0.502-0.396-0.85-0.396c-0.308,0-0.576,0.106-0.791,0.317
			C597.807,27.764,597.691,28.052,597.673,28.404"/>
		<path fill="#333333" d="M604.132,30.814v-0.597c-0.313,0.453-0.741,0.687-1.281,0.687c-0.241,0-0.46-0.048-0.667-0.14
			c-0.206-0.094-0.359-0.205-0.464-0.345c-0.097-0.139-0.168-0.307-0.206-0.508c-0.031-0.135-0.04-0.348-0.04-0.645v-2.497h0.683
			v2.24c0,0.356,0.011,0.601,0.043,0.724c0.04,0.181,0.132,0.319,0.277,0.425c0.136,0.1,0.313,0.151,0.516,0.151
			c0.202,0,0.396-0.052,0.578-0.154c0.178-0.108,0.305-0.252,0.381-0.434c0.077-0.179,0.116-0.439,0.116-0.787v-2.164h0.682v4.043
			H604.132z"/>
		<path fill="#333333" d="M605.545,29.603l0.678-0.106c0.039,0.271,0.143,0.479,0.322,0.627c0.169,0.143,0.41,0.219,0.724,0.219
			c0.312,0,0.55-0.066,0.699-0.195c0.153-0.127,0.229-0.281,0.229-0.449c0-0.154-0.069-0.281-0.201-0.368
			c-0.095-0.06-0.329-0.138-0.703-0.231c-0.504-0.128-0.845-0.234-1.041-0.326c-0.199-0.094-0.346-0.221-0.441-0.389
			c-0.102-0.166-0.149-0.342-0.149-0.545c0-0.177,0.039-0.346,0.124-0.499c0.08-0.147,0.193-0.279,0.332-0.382
			c0.107-0.081,0.25-0.147,0.438-0.201c0.181-0.051,0.382-0.078,0.596-0.078c0.315,0,0.59,0.044,0.829,0.131
			c0.243,0.092,0.42,0.221,0.534,0.378c0.111,0.151,0.193,0.361,0.235,0.624l-0.669,0.091c-0.029-0.207-0.116-0.37-0.263-0.488
			c-0.15-0.116-0.356-0.174-0.617-0.174c-0.316,0-0.542,0.053-0.673,0.157c-0.138,0.104-0.204,0.224-0.204,0.362
			c0,0.093,0.027,0.169,0.081,0.242c0.06,0.072,0.146,0.135,0.271,0.184c0.062,0.021,0.271,0.079,0.604,0.173
			c0.485,0.131,0.823,0.234,1.013,0.316c0.192,0.08,0.343,0.204,0.449,0.358c0.108,0.159,0.166,0.352,0.166,0.585
			c0,0.232-0.066,0.445-0.201,0.649c-0.135,0.199-0.323,0.354-0.577,0.467c-0.249,0.107-0.53,0.168-0.849,0.168
			c-0.526,0-0.931-0.112-1.203-0.331C605.798,30.357,605.621,30.031,605.545,29.603"/>
		<polygon fill="#333333" points="548.306,40.163 548.306,34.584 552.34,34.584 552.34,35.241 549.046,35.241 549.046,36.949 
			552.129,36.949 552.129,37.608 549.046,37.608 549.046,39.507 552.471,39.507 552.471,40.163 		"/>
		<path fill="#333333" d="M553.129,38.95l0.676-0.104c0.043,0.271,0.143,0.481,0.32,0.628c0.17,0.143,0.412,0.215,0.725,0.215
			c0.316,0,0.548-0.063,0.703-0.19c0.15-0.13,0.225-0.278,0.225-0.455c0-0.152-0.063-0.277-0.2-0.362
			c-0.094-0.061-0.327-0.135-0.704-0.233c-0.496-0.127-0.846-0.236-1.04-0.327c-0.191-0.093-0.343-0.222-0.442-0.388
			c-0.1-0.159-0.15-0.346-0.15-0.544c0-0.173,0.043-0.344,0.126-0.496c0.083-0.154,0.194-0.28,0.337-0.384
			c0.102-0.081,0.252-0.144,0.434-0.201c0.184-0.056,0.386-0.083,0.593-0.083c0.316,0,0.595,0.047,0.836,0.139
			c0.238,0.091,0.417,0.21,0.534,0.373c0.109,0.156,0.189,0.36,0.233,0.623l-0.671,0.093c-0.03-0.206-0.116-0.371-0.262-0.488
			c-0.148-0.117-0.352-0.18-0.62-0.18c-0.314,0-0.54,0.057-0.678,0.158c-0.129,0.108-0.198,0.229-0.198,0.37
			c0,0.088,0.03,0.164,0.086,0.238c0.055,0.077,0.144,0.131,0.261,0.181c0.069,0.024,0.272,0.087,0.606,0.177
			c0.485,0.131,0.823,0.236,1.013,0.317c0.195,0.08,0.346,0.201,0.45,0.361c0.108,0.154,0.168,0.35,0.168,0.579
			c0,0.235-0.065,0.448-0.202,0.646c-0.13,0.204-0.325,0.358-0.574,0.468c-0.253,0.112-0.536,0.164-0.854,0.164
			c-0.523,0-0.919-0.106-1.199-0.325C553.379,39.704,553.204,39.383,553.129,38.95"/>
		<path fill="#333333" d="M558.791,39.55l0.1,0.604c-0.193,0.038-0.363,0.063-0.518,0.063c-0.252,0-0.442-0.044-0.578-0.123
			c-0.137-0.076-0.232-0.179-0.286-0.312c-0.057-0.129-0.083-0.392-0.083-0.801v-2.327h-0.502v-0.536h0.502v-0.996l0.677-0.418
			v1.414h0.688v0.536h-0.688v2.359c0,0.194,0.018,0.324,0.036,0.382c0.025,0.051,0.064,0.098,0.124,0.129
			c0.054,0.033,0.128,0.046,0.232,0.046C558.568,39.57,558.668,39.561,558.791,39.55"/>
		<path fill="#333333" d="M559.453,40.163v-4.044h0.615v0.611c0.161-0.28,0.305-0.473,0.438-0.563
			c0.131-0.092,0.279-0.138,0.436-0.138c0.233,0,0.465,0.074,0.704,0.222l-0.239,0.636c-0.166-0.098-0.33-0.147-0.498-0.147
			c-0.149,0-0.284,0.045-0.401,0.135c-0.123,0.092-0.204,0.21-0.257,0.374c-0.077,0.244-0.112,0.512-0.112,0.796v2.12
			L559.453,40.163L559.453,40.163z"/>
		<path fill="#333333" d="M564.705,40.163v-0.598c-0.315,0.458-0.74,0.683-1.28,0.683c-0.239,0-0.463-0.043-0.666-0.133
			c-0.206-0.092-0.358-0.204-0.461-0.343c-0.104-0.139-0.171-0.31-0.214-0.508c-0.026-0.134-0.041-0.346-0.041-0.644v-2.502h0.688
			v2.244c0,0.357,0.014,0.598,0.037,0.722c0.045,0.179,0.134,0.321,0.275,0.427c0.139,0.098,0.311,0.15,0.521,0.15
			c0.203,0,0.396-0.053,0.575-0.155c0.179-0.104,0.307-0.249,0.385-0.429c0.071-0.183,0.11-0.449,0.11-0.79v-2.169h0.686v4.044
			H564.705z"/>
		<path fill="#333333" d="M567.887,39.55l0.1,0.604c-0.195,0.038-0.367,0.063-0.518,0.063c-0.25,0-0.445-0.044-0.584-0.123
			c-0.132-0.076-0.231-0.179-0.285-0.312c-0.055-0.129-0.083-0.392-0.083-0.801v-2.327h-0.501v-0.536h0.501v-0.996l0.684-0.418
			v1.414h0.687v0.536H567.2v2.359c0,0.194,0.008,0.324,0.034,0.382c0.024,0.051,0.065,0.098,0.121,0.129
			c0.053,0.033,0.129,0.046,0.229,0.046C567.66,39.57,567.762,39.561,567.887,39.55"/>
		<path fill="#333333" d="M571.201,40.163v-0.598c-0.313,0.458-0.742,0.683-1.276,0.683c-0.242,0-0.464-0.043-0.672-0.133
			c-0.205-0.092-0.357-0.204-0.462-0.343c-0.098-0.139-0.171-0.31-0.209-0.508c-0.027-0.134-0.042-0.346-0.042-0.644v-2.502h0.685
			v2.244c0,0.357,0.013,0.598,0.04,0.722c0.049,0.179,0.136,0.321,0.278,0.427c0.135,0.098,0.314,0.15,0.518,0.15
			s0.396-0.053,0.576-0.155c0.18-0.104,0.308-0.249,0.385-0.429c0.071-0.183,0.107-0.449,0.107-0.79v-2.169h0.688v4.044H571.201z"/>
		<path fill="#333333" d="M572.884,40.163v-4.044h0.612v0.611c0.158-0.28,0.306-0.473,0.435-0.563
			c0.133-0.092,0.278-0.138,0.44-0.138c0.23,0,0.463,0.074,0.7,0.222l-0.231,0.636c-0.169-0.098-0.337-0.147-0.501-0.147
			c-0.153,0-0.286,0.045-0.408,0.135c-0.119,0.092-0.203,0.21-0.252,0.374c-0.076,0.244-0.116,0.512-0.116,0.796v2.12
			L572.884,40.163L572.884,40.163z"/>
		<path fill="#333333" d="M578.118,39.662c-0.252,0.217-0.495,0.369-0.733,0.461c-0.231,0.083-0.484,0.127-0.75,0.127
			c-0.447,0-0.789-0.106-1.027-0.32c-0.239-0.218-0.354-0.497-0.354-0.832c0-0.197,0.041-0.379,0.136-0.545
			c0.091-0.16,0.204-0.291,0.351-0.39c0.148-0.104,0.314-0.175,0.494-0.223c0.133-0.039,0.338-0.071,0.61-0.107
			c0.556-0.059,0.962-0.143,1.218-0.235c0.007-0.094,0.007-0.151,0.007-0.177c0-0.279-0.063-0.474-0.19-0.593
			c-0.178-0.154-0.438-0.232-0.781-0.232c-0.326,0-0.562,0.061-0.719,0.169c-0.147,0.113-0.264,0.316-0.339,0.605l-0.671-0.095
			c0.062-0.285,0.163-0.52,0.302-0.693c0.138-0.18,0.341-0.314,0.61-0.408c0.259-0.096,0.564-0.143,0.909-0.143
			s0.628,0.037,0.842,0.122c0.216,0.08,0.372,0.182,0.477,0.311c0.102,0.118,0.174,0.273,0.213,0.463
			c0.021,0.111,0.034,0.325,0.034,0.633v0.913c0,0.635,0.016,1.036,0.044,1.204c0.029,0.169,0.085,0.331,0.171,0.489h-0.712
			C578.184,40.019,578.139,39.852,578.118,39.662 M578.062,38.137c-0.244,0.096-0.62,0.183-1.118,0.258
			c-0.279,0.041-0.479,0.08-0.596,0.13c-0.115,0.054-0.211,0.128-0.273,0.228c-0.058,0.094-0.093,0.206-0.093,0.324
			c0,0.179,0.069,0.339,0.206,0.459c0.137,0.121,0.338,0.182,0.607,0.182c0.264,0,0.5-0.061,0.704-0.174
			c0.205-0.112,0.353-0.275,0.454-0.473c0.072-0.155,0.105-0.386,0.105-0.686v-0.248H578.062z"/>
		<path fill="#333333" d="M579.819,34.584h0.687v0.786h-0.687V34.584z M579.819,36.119h0.687v4.044h-0.687V36.119z"/>
		<path fill="#333333" d="M581.271,38.95l0.68-0.104c0.04,0.271,0.147,0.481,0.32,0.628c0.17,0.143,0.414,0.215,0.724,0.215
			c0.315,0,0.549-0.063,0.702-0.19c0.149-0.13,0.228-0.278,0.228-0.455c0-0.152-0.064-0.277-0.205-0.362
			c-0.09-0.061-0.327-0.135-0.694-0.233c-0.502-0.127-0.85-0.236-1.047-0.327c-0.193-0.093-0.341-0.222-0.441-0.388
			c-0.098-0.159-0.152-0.346-0.152-0.544c0-0.173,0.043-0.344,0.125-0.496c0.088-0.154,0.197-0.28,0.339-0.384
			c0.104-0.081,0.251-0.144,0.434-0.201c0.187-0.056,0.384-0.083,0.593-0.083c0.316,0,0.594,0.047,0.836,0.139
			c0.24,0.091,0.418,0.21,0.529,0.373c0.115,0.156,0.193,0.36,0.234,0.623l-0.663,0.093c-0.034-0.206-0.12-0.371-0.264-0.488
			c-0.154-0.117-0.353-0.18-0.623-0.18c-0.314,0-0.54,0.057-0.672,0.158c-0.134,0.108-0.203,0.229-0.203,0.37
			c0,0.088,0.03,0.164,0.093,0.238c0.048,0.077,0.136,0.131,0.254,0.181c0.071,0.024,0.276,0.087,0.606,0.177
			c0.485,0.131,0.824,0.236,1.019,0.317c0.189,0.08,0.339,0.201,0.449,0.361c0.114,0.154,0.163,0.35,0.163,0.579
			c0,0.235-0.065,0.448-0.201,0.646c-0.13,0.204-0.323,0.358-0.575,0.468c-0.248,0.112-0.537,0.164-0.854,0.164
			c-0.523,0-0.92-0.106-1.201-0.325C581.525,39.704,581.35,39.383,581.271,38.95"/>
		<path fill="#333333" d="M590.373,38.859l0.711,0.088c-0.11,0.413-0.322,0.733-0.616,0.963c-0.302,0.228-0.692,0.338-1.161,0.338
			c-0.592,0-1.061-0.182-1.405-0.542c-0.347-0.359-0.518-0.873-0.518-1.534c0-0.68,0.175-1.206,0.524-1.584
			c0.349-0.373,0.804-0.559,1.359-0.559c0.541,0,0.984,0.183,1.325,0.551c0.342,0.369,0.511,0.881,0.511,1.557
			c0,0.035,0,0.096,0,0.178h-3.011c0.019,0.445,0.147,0.789,0.377,1.024c0.218,0.231,0.501,0.351,0.837,0.351
			c0.255,0,0.465-0.063,0.648-0.195C590.13,39.36,590.273,39.147,590.373,38.859 M588.125,37.751h2.259
			c-0.031-0.339-0.121-0.596-0.261-0.761c-0.219-0.268-0.5-0.402-0.848-0.402c-0.314,0-0.578,0.109-0.795,0.318
			C588.268,37.119,588.149,37.402,588.125,37.751"/>
		<path fill="#333333" d="M596.729,40.163v-0.51c-0.259,0.396-0.633,0.595-1.131,0.595c-0.321,0-0.614-0.082-0.891-0.26
			c-0.267-0.18-0.475-0.428-0.627-0.748c-0.146-0.316-0.221-0.685-0.221-1.099c0-0.397,0.069-0.767,0.204-1.093
			c0.13-0.334,0.336-0.58,0.604-0.76c0.267-0.17,0.563-0.261,0.901-0.261c0.241,0,0.458,0.051,0.649,0.152
			c0.191,0.104,0.346,0.237,0.463,0.401v-2h0.683v5.581H596.729z M594.564,38.142c0,0.52,0.109,0.909,0.329,1.164
			c0.216,0.256,0.472,0.385,0.769,0.385c0.304,0,0.557-0.123,0.767-0.368c0.21-0.243,0.308-0.615,0.308-1.12
			c0-0.554-0.104-0.957-0.315-1.22c-0.213-0.255-0.472-0.387-0.787-0.387c-0.305,0-0.559,0.129-0.764,0.374
			C594.669,37.22,594.564,37.608,594.564,38.142"/>
		<path fill="#333333" d="M601.207,38.859l0.706,0.088c-0.107,0.413-0.316,0.733-0.618,0.963c-0.303,0.228-0.688,0.338-1.156,0.338
			c-0.59,0-1.06-0.182-1.405-0.542c-0.347-0.359-0.519-0.873-0.519-1.534c0-0.68,0.176-1.206,0.522-1.584
			c0.349-0.373,0.812-0.559,1.366-0.559c0.535,0,0.98,0.183,1.324,0.551c0.339,0.369,0.514,0.881,0.514,1.557
			c0,0.035-0.006,0.096-0.008,0.178h-3.013c0.024,0.445,0.151,0.789,0.377,1.024c0.224,0.231,0.506,0.351,0.841,0.351
			c0.255,0,0.465-0.063,0.646-0.195C600.962,39.36,601.103,39.147,601.207,38.859 M598.959,37.751h2.256
			c-0.028-0.339-0.118-0.596-0.262-0.761c-0.214-0.268-0.5-0.402-0.848-0.402c-0.314,0-0.577,0.109-0.789,0.318
			C599.098,37.119,598.981,37.402,598.959,37.751"/>
		<rect x="605.151" y="34.584" fill="#333333" width="0.738" height="5.58"/>
		<path fill="#333333" d="M607.104,40.163v-4.044h0.619v0.574c0.293-0.445,0.726-0.665,1.284-0.665c0.243,0,0.464,0.047,0.673,0.13
			c0.204,0.088,0.354,0.202,0.457,0.346c0.101,0.144,0.172,0.311,0.214,0.505c0.026,0.13,0.036,0.35,0.036,0.667v2.486h-0.684
			v-2.458c0-0.279-0.028-0.492-0.08-0.626c-0.056-0.141-0.146-0.25-0.287-0.334c-0.133-0.083-0.295-0.127-0.476-0.127
			c-0.294,0-0.542,0.095-0.753,0.281c-0.217,0.183-0.316,0.533-0.316,1.055v2.207h-0.688V40.163L607.104,40.163z"/>
		<path fill="#333333" d="M612.561,40.163l-1.54-4.044h0.729l0.864,2.423c0.095,0.262,0.18,0.531,0.262,0.813
			c0.061-0.215,0.143-0.469,0.253-0.769l0.896-2.468h0.707l-1.53,4.045L612.561,40.163L612.561,40.163z"/>
		<path fill="#333333" d="M618.096,38.859l0.711,0.088c-0.106,0.413-0.318,0.733-0.616,0.963c-0.303,0.228-0.689,0.338-1.16,0.338
			c-0.587,0-1.057-0.182-1.406-0.542c-0.343-0.359-0.521-0.873-0.521-1.534c0-0.68,0.178-1.206,0.528-1.584
			c0.35-0.373,0.805-0.559,1.356-0.559c0.543,0,0.986,0.183,1.327,0.551c0.343,0.369,0.512,0.881,0.512,1.557
			c0,0.035,0,0.096-0.003,0.178h-3.012c0.022,0.445,0.155,0.789,0.374,1.024c0.226,0.231,0.513,0.351,0.849,0.351
			c0.25,0,0.464-0.063,0.641-0.195C617.855,39.36,617.995,39.147,618.096,38.859 M615.854,37.751h2.256
			c-0.03-0.339-0.122-0.596-0.257-0.761c-0.218-0.268-0.501-0.402-0.853-0.402c-0.315,0-0.574,0.109-0.793,0.318
			C615.992,37.119,615.873,37.402,615.854,37.751"/>
		<path fill="#333333" d="M619.395,38.95l0.675-0.104c0.037,0.271,0.143,0.481,0.319,0.628c0.173,0.143,0.414,0.215,0.727,0.215
			c0.315,0,0.545-0.063,0.698-0.19c0.156-0.13,0.228-0.278,0.228-0.455c0-0.152-0.064-0.277-0.201-0.362
			c-0.094-0.061-0.326-0.135-0.699-0.233c-0.502-0.127-0.843-0.236-1.039-0.327c-0.2-0.093-0.348-0.222-0.445-0.388
			c-0.098-0.159-0.149-0.346-0.149-0.544c0-0.173,0.038-0.344,0.127-0.496c0.08-0.154,0.188-0.28,0.334-0.384
			c0.106-0.081,0.254-0.144,0.435-0.201c0.182-0.057,0.379-0.083,0.592-0.083c0.314,0,0.599,0.047,0.835,0.139
			c0.241,0.091,0.416,0.21,0.532,0.373c0.113,0.156,0.193,0.36,0.235,0.623l-0.668,0.093c-0.032-0.206-0.12-0.371-0.269-0.488
			c-0.145-0.117-0.352-0.18-0.614-0.18c-0.315,0-0.537,0.057-0.675,0.158c-0.134,0.108-0.204,0.229-0.204,0.37
			c0,0.088,0.03,0.164,0.085,0.238c0.057,0.077,0.142,0.131,0.264,0.181c0.069,0.024,0.269,0.087,0.604,0.177
			c0.486,0.131,0.828,0.236,1.018,0.317c0.189,0.08,0.337,0.201,0.447,0.361c0.109,0.154,0.167,0.35,0.167,0.579
			c0,0.235-0.065,0.448-0.201,0.646c-0.133,0.204-0.324,0.358-0.576,0.468c-0.253,0.112-0.533,0.164-0.854,0.164
			c-0.521,0-0.919-0.106-1.197-0.325C619.649,39.704,619.471,39.383,619.395,38.95"/>
		<path fill="#333333" d="M625.059,39.55l0.096,0.604c-0.187,0.038-0.365,0.063-0.516,0.063c-0.246,0-0.438-0.044-0.574-0.123
			c-0.139-0.076-0.24-0.179-0.293-0.312c-0.054-0.129-0.081-0.392-0.081-0.801v-2.327h-0.501v-0.536h0.501v-0.996l0.683-0.418v1.414
			h0.686v0.536h-0.686v2.359c0,0.194,0.009,0.324,0.035,0.382c0.021,0.051,0.065,0.098,0.115,0.129
			c0.058,0.033,0.135,0.046,0.238,0.046C624.835,39.57,624.936,39.561,625.059,39.55"/>
		<path fill="#333333" d="M625.734,34.584h0.684v0.786h-0.684V34.584z M625.734,36.119h0.684v4.044h-0.684V36.119z"/>
		<path fill="#333333" d="M627.459,40.163v-4.044h0.613v0.572c0.127-0.204,0.298-0.361,0.505-0.484
			c0.208-0.115,0.452-0.178,0.719-0.178c0.303,0,0.547,0.063,0.736,0.186c0.194,0.129,0.329,0.298,0.407,0.524
			c0.324-0.471,0.736-0.71,1.247-0.71c0.404,0,0.706,0.111,0.923,0.334c0.217,0.22,0.323,0.563,0.323,1.026v2.773h-0.681v-2.551
			c0-0.27-0.023-0.469-0.065-0.591c-0.046-0.121-0.128-0.215-0.241-0.291c-0.115-0.07-0.256-0.11-0.41-0.11
			c-0.287,0-0.525,0.095-0.711,0.286c-0.184,0.19-0.278,0.492-0.278,0.908v2.35h-0.687v-2.631c0-0.301-0.055-0.529-0.168-0.681
			s-0.296-0.235-0.547-0.235c-0.194,0-0.369,0.053-0.531,0.16c-0.168,0.095-0.289,0.242-0.359,0.441
			c-0.073,0.193-0.109,0.479-0.109,0.846v2.096L627.459,40.163L627.459,40.163z"/>
		<path fill="#333333" d="M636.718,38.859l0.705,0.088c-0.108,0.413-0.316,0.733-0.618,0.963c-0.304,0.228-0.688,0.338-1.158,0.338
			c-0.589,0-1.057-0.182-1.408-0.542c-0.344-0.359-0.517-0.873-0.517-1.534c0-0.68,0.175-1.206,0.523-1.584
			c0.353-0.373,0.806-0.559,1.362-0.559c0.539,0,0.985,0.183,1.328,0.551c0.336,0.369,0.51,0.881,0.51,1.557
			c0,0.035,0,0.096-0.002,0.178h-3.015c0.024,0.445,0.151,0.789,0.376,1.024c0.228,0.231,0.508,0.351,0.843,0.351
			c0.254,0,0.466-0.063,0.644-0.195C636.473,39.36,636.61,39.147,636.718,38.859 M634.469,37.751h2.254
			c-0.029-0.339-0.119-0.596-0.255-0.761c-0.219-0.268-0.503-0.402-0.851-0.402c-0.314,0-0.58,0.109-0.791,0.318
			C634.606,37.119,634.488,37.402,634.469,37.751"/>
		<path fill="#333333" d="M638.281,40.163v-4.044h0.619v0.574c0.299-0.445,0.724-0.665,1.287-0.665c0.241,0,0.468,0.047,0.671,0.13
			c0.205,0.088,0.354,0.202,0.457,0.346c0.103,0.144,0.171,0.311,0.213,0.505c0.024,0.13,0.039,0.35,0.039,0.667v2.486h-0.686
			v-2.458c0-0.279-0.028-0.492-0.083-0.626c-0.055-0.141-0.144-0.25-0.28-0.334c-0.135-0.083-0.298-0.127-0.481-0.127
			c-0.288,0-0.538,0.095-0.753,0.281c-0.212,0.183-0.316,0.533-0.316,1.055v2.207h-0.688L638.281,40.163L638.281,40.163z"/>
		<path fill="#333333" d="M644.112,39.55l0.096,0.604c-0.189,0.038-0.359,0.063-0.515,0.063c-0.245,0-0.439-0.044-0.577-0.123
			c-0.134-0.076-0.23-0.179-0.29-0.312c-0.057-0.129-0.086-0.392-0.086-0.801v-2.327h-0.5v-0.536h0.5v-0.996l0.686-0.418v1.414
			h0.687v0.536h-0.687v2.359c0,0.194,0.013,0.324,0.04,0.382c0.021,0.051,0.058,0.098,0.115,0.129
			c0.053,0.033,0.133,0.046,0.233,0.046C643.887,39.57,643.99,39.561,644.112,39.55"/>
		<path fill="#333333" d="M644.528,38.142c0-0.752,0.207-1.303,0.621-1.661c0.348-0.299,0.771-0.451,1.274-0.451
			c0.555,0,1.009,0.183,1.358,0.543c0.356,0.365,0.53,0.87,0.53,1.513c0,0.515-0.074,0.93-0.229,1.224
			c-0.159,0.301-0.386,0.531-0.684,0.692c-0.301,0.168-0.626,0.245-0.978,0.245c-0.567,0-1.021-0.174-1.372-0.543
			C644.701,39.345,644.528,38.822,644.528,38.142 M645.232,38.142c0,0.52,0.11,0.904,0.337,1.164
			c0.229,0.256,0.51,0.385,0.854,0.385c0.338,0,0.62-0.129,0.847-0.385c0.227-0.26,0.341-0.655,0.341-1.183
			c0-0.502-0.114-0.882-0.343-1.141c-0.225-0.254-0.508-0.387-0.845-0.387c-0.345,0-0.628,0.129-0.854,0.387
			C645.343,37.239,645.232,37.625,645.232,38.142"/>
	</g>
	<g>
		<path fill="none" stroke="#333333" stroke-width="0.5" stroke-miterlimit="10" d="M478.82,0.25v39.51h60.338V0.25H478.82z"/>
		<g>
			<polygon fill="#333333" points="520.284,13.305 520.703,12.014 521.125,13.305 522.484,13.305 521.386,14.104 521.804,15.403 
				520.703,14.601 519.603,15.403 520.022,14.104 518.923,13.305 			"/>
			<polygon fill="#333333" points="493.783,19.666 495.146,19.666 495.566,18.367 495.988,19.666 497.348,19.666 496.246,20.457 
				496.666,21.754 495.565,20.953 494.465,21.754 494.884,20.457 			"/>
			<polygon fill="#333333" points="498.373,28.969 497.273,28.17 496.173,28.969 496.593,27.676 495.492,26.875 496.855,26.875 
				497.274,25.583 497.696,26.875 499.055,26.875 497.956,27.676 			"/>
			<polygon fill="#333333" points="497.956,14.104 498.375,15.403 497.274,14.601 496.174,15.403 496.593,14.104 495.496,13.305 
				496.857,13.305 497.275,12.014 497.697,13.305 499.057,13.305 			"/>
			<polygon fill="#333333" points="501.652,8.316 502.074,7.023 502.494,8.316 503.854,8.316 502.756,9.113 503.176,10.404 
				502.074,9.602 500.975,10.404 501.394,9.113 500.293,8.316 			"/>
			<polygon fill="#333333" points="503.548,33.829 502.447,33.03 501.348,33.829 501.768,32.534 500.665,31.741 502.032,31.741 
				502.45,30.449 502.869,31.741 504.232,31.741 503.134,32.534 			"/>
			<polygon fill="#333333" points="510.169,35.279 509.067,34.487 507.965,35.279 508.385,33.988 507.28,33.188 508.645,33.188 
				509.064,31.896 509.483,33.188 510.843,33.188 509.744,33.988 			"/>
			<polygon fill="#333333" points="509.745,7.174 510.166,8.467 509.064,7.664 507.964,8.467 508.384,7.174 507.279,6.365 
				508.644,6.365 509.063,5.073 509.481,6.365 510.84,6.365 			"/>
			<polygon fill="#333333" points="516.623,33.829 515.523,33.03 514.424,33.829 514.849,32.534 513.744,31.741 515.103,31.741 
				515.522,30.449 515.941,31.741 517.305,31.741 516.201,32.534 			"/>
			<polygon fill="#333333" points="516.582,9.113 517.001,10.404 515.901,9.602 514.798,10.404 515.218,9.113 514.121,8.316 
				515.478,8.316 515.901,7.023 516.32,8.316 517.68,8.316 			"/>
			<polygon fill="#333333" points="521.8,28.969 520.7,28.17 519.601,28.969 520.02,27.676 518.919,26.875 520.286,26.875 
				520.704,25.583 521.125,26.875 522.484,26.875 521.386,27.676 			"/>
			<polygon fill="#333333" points="523.509,21.757 522.407,20.956 521.307,21.757 521.727,20.459 520.625,19.669 521.982,19.669 
				522.404,18.369 522.824,19.669 524.186,19.669 523.084,20.459 			"/>
		</g>
	</g>
</g>
</svg>
