<?xml version="1.0" encoding="utf-8"?>
<!-- Generator: Adobe Illustrator 16.0.0, SVG Export Plug-In . SVG Version: 6.00 Build 0)  -->
<!DOCTYPE svg PUBLIC "-//W3C//DTD SVG 1.1//EN" "http://www.w3.org/Graphics/SVG/1.1/DTD/svg11.dtd">
<svg version="1.1" id="Layer_1" xmlns="http://www.w3.org/2000/svg" xmlns:xlink="http://www.w3.org/1999/xlink" x="0px" y="0px"
	 width="60px" height="25px" viewBox="0 0 60 25" enable-background="new 0 0 60 25" xml:space="preserve">
<g>
	<g>
		<g>
			<path fill="#1974D8" d="M30.461,25c-0.132,0-0.263-0.06-0.354-0.173c-0.164-0.204-0.137-0.507,0.059-0.677L43.561,12.5
				L30.166,0.85c-0.195-0.17-0.223-0.473-0.059-0.677c0.163-0.204,0.453-0.231,0.648-0.062L45,12.5L30.756,24.889
				C30.67,24.963,30.564,25,30.461,25z"/>
		</g>
	</g>
</g>
<g>
	<g>
		<g>
			<path fill="#CCCCCC" d="M45.461,25c-0.132,0-0.263-0.06-0.354-0.173c-0.164-0.204-0.137-0.507,0.059-0.677L58.561,12.5
				L45.166,0.85c-0.195-0.17-0.223-0.473-0.059-0.677c0.163-0.204,0.453-0.231,0.648-0.062L60,12.5L45.756,24.889
				C45.67,24.963,45.564,25,45.461,25z"/>
		</g>
	</g>
</g>
<g>
	<g>
		<g>
			<path fill="#1974D8" d="M29.539,0c0.132,0,0.263,0.06,0.354,0.173c0.164,0.204,0.137,0.507-0.059,0.677L16.439,12.5l13.395,11.65
				c0.195,0.17,0.223,0.473,0.059,0.677c-0.163,0.204-0.453,0.231-0.648,0.062L15,12.5L29.244,0.111C29.33,0.037,29.436,0,29.539,0z
				"/>
		</g>
	</g>
</g>
<g>
	<g>
		<g>
			<path fill="#CCCCCC" d="M14.539,0c0.132,0,0.263,0.06,0.354,0.173c0.164,0.204,0.137,0.507-0.059,0.677L1.439,12.5l13.395,11.65
				c0.195,0.17,0.223,0.473,0.059,0.677c-0.163,0.204-0.453,0.231-0.648,0.062L0,12.5L14.244,0.111C14.33,0.037,14.436,0,14.539,0z"
				/>
		</g>
	</g>
</g>
</svg>
