<?xml version="1.0" encoding="utf-8"?>
<!-- Generator: Adobe Illustrator 16.0.0, SVG Export Plug-In . SVG Version: 6.00 Build 0)  -->
<!DOCTYPE svg PUBLIC "-//W3C//DTD SVG 1.1//EN" "http://www.w3.org/Graphics/SVG/1.1/DTD/svg11.dtd">
<svg version="1.1" id="Layer_1" xmlns="http://www.w3.org/2000/svg" xmlns:xlink="http://www.w3.org/1999/xlink" x="0px" y="0px"
	 width="920px" height="28px" viewBox="0 0 920 28" enable-background="new 0 0 920 28" xml:space="preserve">
<g>
	<polygon fill="#CCCCCC" points="460,28 442.723,10.723 0,10.723 0,9.723 443.137,9.723 460,26.585 476.864,9.723 920,9.723 
		920,10.723 477.278,10.723 	"/>
</g>
<g>
	<g>
		<path fill="#CCCCCC" d="M460,21.207l-14.849-14.85l0.354-0.354C449.376,2.132,454.523,0,460,0s10.625,2.132,14.496,6.003
			l0.354,0.354L460,21.207z M446.57,6.361L460,19.792l13.43-13.431C469.791,2.9,465.042,1,460,1C454.958,1,450.208,2.9,446.57,6.361
			z"/>
	</g>
</g>
</svg>
