<?xml version="1.0" encoding="utf-8"?>
<!-- Generator: Adobe Illustrator 16.0.0, SVG Export Plug-In . SVG Version: 6.00 Build 0)  -->
<!DOCTYPE svg PUBLIC "-//W3C//DTD SVG 1.1//EN" "http://www.w3.org/Graphics/SVG/1.1/DTD/svg11.dtd">
<svg version="1.1" id="Layer_1" xmlns="http://www.w3.org/2000/svg" xmlns:xlink="http://www.w3.org/1999/xlink" x="0px" y="0px"
	 width="79.997px" height="50px" viewBox="0 0 79.997 50" enable-background="new 0 0 79.997 50" xml:space="preserve">
<g>
	<g>
		<path fill="#FFFFFF" d="M19.527,50c-0.139,0-0.276-0.063-0.37-0.184L0,25L19.157,0.184c0.165-0.211,0.462-0.245,0.665-0.077
			c0.204,0.169,0.236,0.478,0.074,0.689L1.212,25l18.684,24.203c0.162,0.212,0.13,0.521-0.074,0.689
			C19.734,49.965,19.631,50,19.527,50z"/>
	</g>
</g>
<g>
	<g>
		<path fill="#CCCCCC" d="M19.527,50c-0.139,0-0.277-0.063-0.371-0.184L0,25L19.156,0.184c0.166-0.211,0.463-0.245,0.666-0.077
			c0.203,0.169,0.236,0.478,0.074,0.689L1.212,25l18.685,24.203c0.162,0.212,0.129,0.521-0.074,0.689
			C19.734,49.965,19.631,50,19.527,50z"/>
	</g>
</g>
<g>
	<g>
		<path fill="#333333" d="M39.528,50c-0.139,0-0.277-0.063-0.371-0.184L20,25L39.157,0.184c0.165-0.211,0.463-0.245,0.666-0.077
			c0.204,0.169,0.236,0.478,0.074,0.689L21.211,25l18.687,24.203c0.162,0.212,0.13,0.521-0.074,0.689
			C39.735,49.965,39.632,50,39.528,50z"/>
	</g>
</g>
<g>
	<g>
		<path fill="#FFFFFF" d="M60.472,0c0.139,0,0.276,0.063,0.37,0.184L79.999,25L60.842,49.816c-0.166,0.211-0.463,0.244-0.666,0.076
			c-0.203-0.17-0.235-0.479-0.073-0.689L78.786,25L60.103,0.797c-0.162-0.212-0.13-0.521,0.073-0.689
			C60.265,0.035,60.368,0,60.472,0z"/>
	</g>
</g>
<g>
	<g>
		<path fill="#CCCCCC" d="M60.472,0c0.139,0,0.276,0.063,0.37,0.184L79.999,25L60.842,49.816c-0.166,0.211-0.463,0.244-0.666,0.076
			c-0.203-0.17-0.235-0.479-0.073-0.689L78.786,25L60.103,0.797c-0.162-0.212-0.13-0.521,0.073-0.689
			C60.265,0.035,60.368,0,60.472,0z"/>
	</g>
</g>
<g>
	<g>
		<path fill="#333333" d="M40.473,0c0.139,0,0.275,0.063,0.369,0.184L59.999,25L40.842,49.816c-0.164,0.211-0.461,0.244-0.664,0.076
			c-0.204-0.17-0.236-0.479-0.074-0.689L58.788,25L40.104,0.797c-0.162-0.212-0.13-0.521,0.074-0.689
			C40.266,0.035,40.369,0,40.473,0z"/>
	</g>
</g>
</svg>
