<?xml version="1.0" encoding="utf-8"?>
<!-- Generator: Adobe Illustrator 16.0.0, SVG Export Plug-In . SVG Version: 6.00 Build 0)  -->
<!DOCTYPE svg PUBLIC "-//W3C//DTD SVG 1.1//EN" "http://www.w3.org/Graphics/SVG/1.1/DTD/svg11.dtd">
<svg version="1.1" id="Layer_1" xmlns="http://www.w3.org/2000/svg" xmlns:xlink="http://www.w3.org/1999/xlink" x="0px" y="0px"
     width="46px" height="20px" viewBox="0 0 46 20" enable-background="new 0 0 46 20" xml:space="preserve">
<g>
    <g>
        <path fill="#4D4D4D" d="M20.381,13.941H8.162c-0.354,0-0.662-0.241-0.748-0.583L4.387,1.541H0.771C0.345,1.541,0,1.195,0,0.77
            s0.345-0.771,0.771-0.771h4.218c0.354,0,0.662,0.239,0.748,0.583l3.028,11.817h10.998l1.512-6.643H9.688
            c-0.426,0-0.771-0.346-0.771-0.771s0.345-0.771,0.771-0.771H22.23c0.233,0,0.454,0.104,0.6,0.287
            c0.146,0.181,0.202,0.419,0.152,0.646l-1.847,8.183C21.057,13.688,20.744,13.941,20.381,13.941z"/>
    </g>
    <circle fill="#4D4D4D" cx="10.332" cy="17.87" r="2.129"/>
    <circle fill="#4D4D4D" cx="18.212" cy="17.872" r="2.129"/>
</g>
<g>
    <g>
        <path fill="#1974D8" d="M43.381,13.941H31.162c-0.354,0-0.662-0.241-0.748-0.583L27.387,1.541h-3.615
            C23.345,1.541,23,1.195,23,0.77s0.345-0.771,0.771-0.771h4.217c0.354,0,0.662,0.239,0.748,0.583l3.029,11.817h10.998l1.512-6.643
            H32.688c-0.426,0-0.771-0.346-0.771-0.771s0.345-0.771,0.771-0.771H45.23c0.231,0,0.453,0.104,0.6,0.287
            c0.146,0.181,0.201,0.419,0.152,0.646l-1.849,8.183C44.057,13.688,43.744,13.941,43.381,13.941z"/>
    </g>
    <circle fill="#1974D8" cx="33.332" cy="17.87" r="2.129"/>
    <circle fill="#1974D8" cx="41.213" cy="17.872" r="2.129"/>
</g>
</svg>