<?xml version="1.0" encoding="utf-8"?>
<!-- Generator: Adobe Illustrator 16.0.0, SVG Export Plug-In . SVG Version: 6.00 Build 0)  -->
<!DOCTYPE svg PUBLIC "-//W3C//DTD SVG 1.1//EN" "http://www.w3.org/Graphics/SVG/1.1/DTD/svg11.dtd">
<svg version="1.1" id="Layer_1" xmlns="http://www.w3.org/2000/svg" xmlns:xlink="http://www.w3.org/1999/xlink" x="0px" y="0px"
	 width="68px" height="30px" viewBox="0 0 68 30" enable-background="new 0 0 68 30" xml:space="preserve">
<g>
	<g>
		<path fill="#4D4D4D" d="M30.129,21.044H12.066c-0.523,0-0.979-0.356-1.105-0.863L6.485,2.277H1.139C0.51,2.277,0,1.768,0,1.139
			S0.51,0,1.139,0h6.236c0.522,0,0.978,0.355,1.105,0.862l4.476,17.903h16.257l2.235-10.253H14.322c-0.629,0-1.139-0.51-1.139-1.139
			c0-0.629,0.51-1.139,1.139-1.139h18.54c0.344,0,0.67,0.156,0.887,0.424c0.216,0.268,0.298,0.62,0.225,0.957l-2.731,12.53
			C31.128,20.67,30.665,21.044,30.129,21.044z"/>
	</g>
	<circle fill="#4D4D4D" cx="15.273" cy="26.853" r="3.148"/>
	<circle fill="#4D4D4D" cx="26.923" cy="26.853" r="3.147"/>
</g>
<g>
	<g>
		<path fill="#1974D8" d="M64.129,21.044H46.066c-0.523,0-0.979-0.356-1.105-0.863L40.484,2.277h-5.346
			C34.51,2.277,34,1.768,34,1.139S34.51,0,35.139,0h6.236c0.521,0,0.978,0.355,1.104,0.862l4.476,17.903h16.258l2.234-10.253H48.322
			c-0.629,0-1.139-0.51-1.139-1.139c0-0.629,0.51-1.139,1.139-1.139h18.539c0.345,0,0.67,0.156,0.887,0.424
			c0.217,0.268,0.299,0.62,0.226,0.957l-2.731,12.53C65.129,20.67,64.664,21.044,64.129,21.044z"/>
	</g>
	<circle fill="#1974D8" cx="49.272" cy="26.853" r="3.147"/>
	<circle fill="#1974D8" cx="60.923" cy="26.853" r="3.147"/>
</g>
</svg>
