<?xml version="1.0" encoding="utf-8"?>
<!-- Generator: Adobe Illustrator 16.0.0, SVG Export Plug-In . SVG Version: 6.00 Build 0)  -->
<!DOCTYPE svg PUBLIC "-//W3C//DTD SVG 1.1//EN" "http://www.w3.org/Graphics/SVG/1.1/DTD/svg11.dtd">
<svg version="1.1" id="Layer_1" xmlns="http://www.w3.org/2000/svg" xmlns:xlink="http://www.w3.org/1999/xlink" x="0px" y="0px"
	 width="25.723px" height="15px" viewBox="0 0 25.723 15" enable-background="new 0 0 25.723 15" xml:space="preserve">
<g>
	<path fill="#FFFFFF" d="M25.467,2.73L13.453,14.744C13.3,14.897,13.067,15,12.861,15s-0.438-0.103-0.592-0.256L0.256,2.73
		C0.103,2.577,0,2.345,0,2.139S0.103,1.7,0.256,1.547l1.291-1.291C1.7,0.104,1.905,0,2.139,0C2.344,0,2.577,0.104,2.73,0.256
		l10.131,10.132L22.992,0.256C23.146,0.104,23.379,0,23.584,0c0.206,0,0.438,0.104,0.592,0.256l1.291,1.291
		c0.153,0.153,0.256,0.386,0.256,0.592S25.62,2.577,25.467,2.73z"/>
</g>
</svg>
