<svg id="Layer_1" data-name="Layer 1" xmlns="http://www.w3.org/2000/svg" viewBox="0 0 70 70"><defs><style>.cls-1{fill:#312783;}.cls-2{fill:none;stroke:#fff;stroke-miterlimit:10;stroke-width:2px;}.cls-3{fill:#fff;}</style></defs><title>favicon</title><circle class="cls-1" cx="35" cy="35" r="35"/><circle class="cls-2" cx="35" cy="35" r="32.89"/><path class="cls-3" d="M34.9,53.63a21.65,21.65,0,0,1-6.58-.93A12.2,12.2,0,0,1,20.19,45,20,20,0,0,1,19.09,38V18.84h9.66v19q0,3.7,1.7,5.49A6,6,0,0,0,35,45.09a6.11,6.11,0,0,0,4.55-1.71c1.13-1.13,1.7-2.91,1.7-5.32V18.84h9.66V37.77a20.11,20.11,0,0,1-1.15,7.15,12.36,12.36,0,0,1-8.25,7.78A21.9,21.9,0,0,1,34.9,53.63Z"/></svg>