<?xml version="1.0" encoding="utf-8"?>
<!-- Generator: Adobe Illustrator 16.0.0, SVG Export Plug-In . SVG Version: 6.00 Build 0)  -->
<!DOCTYPE svg PUBLIC "-//W3C//DTD SVG 1.1//EN" "http://www.w3.org/Graphics/SVG/1.1/DTD/svg11.dtd">
<svg version="1.1" id="Layer_1" xmlns="http://www.w3.org/2000/svg" xmlns:xlink="http://www.w3.org/1999/xlink" x="0px" y="0px"
	 width="228.498px" height="50px" viewBox="0 0 228.498 50" enable-background="new 0 0 228.498 50" xml:space="preserve">
<g>
	<rect fill="#002D73" width="228.498" height="50"/>
	<g>
		<path fill="#FFFFFF" d="M227.188,48.806H1.309V1.231h225.879V48.806z M2.508,47.607h223.48V2.431H2.508V47.607z"/>
	</g>
	<g>
		<g>
			<path fill="#FFFFFF" d="M23.977,37.609c-1.685,0-3.202-0.214-4.55-0.641c-1.347-0.426-2.494-1.083-3.438-1.971
				c-0.943-0.888-1.668-2.011-2.174-3.371c-0.505-1.359-0.758-2.96-0.758-4.802V13.579h6.672v13.11c0,1.709,0.391,2.972,1.171,3.792
				c0.78,0.821,1.827,1.229,3.143,1.229c1.316,0,2.364-0.393,3.144-1.179c0.78-0.786,1.171-2.011,1.171-3.674V13.579h6.673v13.077
				c0,1.91-0.265,3.556-0.792,4.938c-0.528,1.382-1.27,2.517-2.224,3.404c-0.956,0.888-2.112,1.545-3.473,1.971
				C27.184,37.396,25.661,37.609,23.977,37.609z"/>
			<path fill="#FFFFFF" d="M38.906,13.579h6.114l9.727,12.471V13.579h6.438v23.593h-5.741l-10.1-12.942v12.942h-6.438V13.579z"/>
			<path fill="#FFFFFF" d="M65.498,13.579h6.572v23.593h-6.572V13.579z"/>
			<path fill="#FFFFFF" d="M74.496,13.579h7.313l5.359,14.932l5.358-14.932h7.179l-9.571,23.76h-6.067L74.496,13.579z"/>
			<path fill="#FFFFFF" d="M101.998,13.579h18.941v5.561h-12.504v3.573h11.325v5.157h-11.325v3.74h12.673v5.562h-19.11V13.579z"/>
			<path fill="#FFFFFF" d="M124.478,13.579h11.155c1.818,0,3.359,0.226,4.617,0.675c1.258,0.449,2.279,1.077,3.065,1.887
				c1.394,1.348,2.09,3.18,2.09,5.493v0.068c0,1.82-0.437,3.325-1.313,4.517s-2.056,2.101-3.539,2.729l5.629,8.224h-7.551
				l-4.752-7.146h-0.065h-2.798v7.146h-6.538V13.579z M135.33,24.904c1.124,0,1.989-0.253,2.595-0.759
				c0.607-0.506,0.911-1.185,0.911-2.039v-0.068c0-0.944-0.317-1.646-0.945-2.106c-0.629-0.461-1.494-0.691-2.594-0.691h-4.28v5.662
				H135.33z"/>
			<path fill="#FFFFFF" d="M157.977,37.577c-2.111,0-4.117-0.328-6.017-0.984c-1.897-0.655-3.578-1.64-5.037-2.951l3.639-4.357
				c2.36,1.889,4.91,2.832,7.65,2.832c0.877,0,1.546-0.141,2.006-0.421c0.461-0.279,0.691-0.678,0.691-1.194v-0.066
				c0-0.247-0.057-0.466-0.17-0.657c-0.111-0.189-0.319-0.375-0.622-0.555c-0.303-0.179-0.708-0.353-1.214-0.521
				c-0.506-0.168-1.163-0.342-1.972-0.521c-1.26-0.291-2.427-0.611-3.506-0.958c-1.078-0.349-2.016-0.797-2.813-1.347
				c-0.799-0.548-1.427-1.233-1.888-2.052c-0.462-0.818-0.689-1.833-0.689-3.044v-0.067c0-1.099,0.205-2.109,0.621-3.028
				c0.417-0.919,1.022-1.715,1.821-2.388c0.796-0.674,1.757-1.195,2.881-1.565c1.123-0.37,2.393-0.555,3.809-0.555
				c2.023,0,3.824,0.266,5.408,0.797c1.585,0.532,3.019,1.317,4.298,2.356l-3.268,4.631c-1.079-0.764-2.188-1.342-3.321-1.736
				c-1.136-0.392-2.231-0.589-3.286-0.589c-0.786,0-1.376,0.146-1.77,0.438c-0.393,0.292-0.589,0.65-0.589,1.077v0.067
				c0,0.268,0.061,0.504,0.187,0.705c0.122,0.202,0.336,0.388,0.639,0.556c0.304,0.169,0.719,0.336,1.247,0.505
				c0.528,0.168,1.196,0.342,2.005,0.521c1.348,0.292,2.567,0.633,3.657,1.026c1.09,0.392,2.017,0.869,2.78,1.43
				c0.765,0.561,1.348,1.239,1.753,2.035c0.404,0.797,0.606,1.744,0.606,2.843v0.067c0,1.212-0.23,2.289-0.69,3.229
				c-0.461,0.941-1.107,1.745-1.938,2.405c-0.833,0.663-1.833,1.167-3.001,1.515S159.415,37.577,157.977,37.577z"/>
			<path fill="#FFFFFF" d="M178.838,13.411h6.303l10.043,23.761h-7.009l-1.721-4.214h-9.099l-1.686,4.214h-6.873L178.838,13.411z
				 M184.568,27.903l-2.629-6.707l-2.662,6.707H184.568z"/>
			<path fill="#FFFFFF" d="M197.475,13.579h6.539v17.862h11.426v5.73h-17.965V13.579z"/>
		</g>
		<g>
			<g>
				<path fill="#FFFFFF" d="M210.432,16.469h1.41c0.455,0,0.771,0.119,0.971,0.32c0.174,0.174,0.265,0.4,0.265,0.693v0.009
					c0,0.459-0.244,0.762-0.614,0.92l0.712,1.039h-0.95l-0.601-0.903h-0.366v0.903h-0.826V16.469z M211.808,17.9
					c0.277,0,0.443-0.137,0.443-0.354v-0.009c0-0.238-0.176-0.358-0.448-0.358h-0.545V17.9H211.808z"/>
			</g>
			<g>
				<path fill="#FFFFFF" d="M211.804,21.595c-2.006,0-3.638-1.631-3.638-3.636c0-2.005,1.632-3.636,3.638-3.636
					c2.004,0,3.636,1.63,3.636,3.636C215.44,19.964,213.808,21.595,211.804,21.595z M211.804,15.074
					c-1.593,0-2.887,1.294-2.887,2.886c0,1.591,1.294,2.886,2.887,2.886c1.591,0,2.886-1.295,2.886-2.886
					C214.69,16.368,213.395,15.074,211.804,15.074z"/>
			</g>
		</g>
	</g>
</g>
</svg>
