<?xml version="1.0" encoding="utf-8"?>
<!-- Generator: Adobe Illustrator 16.0.0, SVG Export Plug-In . SVG Version: 6.00 Build 0)  -->
<!DOCTYPE svg PUBLIC "-//W3C//DTD SVG 1.1//EN" "http://www.w3.org/Graphics/SVG/1.1/DTD/svg11.dtd">
<svg version="1.1" id="Camada_1" xmlns="http://www.w3.org/2000/svg" xmlns:xlink="http://www.w3.org/1999/xlink" x="0px" y="0px"
	 width="728.271px" height="45.184px" viewBox="1.265 0.408 728.271 45.184" enable-background="new 1.265 0.408 728.271 45.184"
	 xml:space="preserve">
<g>
	<g>
		<path fill="#fff" d="M357.413,40.758l9.771-8.295c0.975-0.811,1.797-1.545,2.472-2.205c0.678-0.664,1.223-1.289,1.642-1.883
			c0.42-0.594,0.723-1.176,0.911-1.74c0.191-0.564,0.285-1.174,0.285-1.822c0-1.399-0.438-2.485-1.317-3.254
			c-0.877-0.771-1.966-1.152-3.263-1.152c-1.296,0-2.44,0.35-3.426,1.053c-0.986,0.703-2.032,1.77-3.142,3.204l-3.527-2.756
			c0.675-0.947,1.363-1.797,2.068-2.547c0.701-0.75,1.465-1.377,2.289-1.879c0.823-0.506,1.73-0.896,2.719-1.168
			c0.982-0.271,2.113-0.408,3.383-0.408c1.378,0,2.642,0.199,3.792,0.607c1.147,0.404,2.134,0.979,2.958,1.723
			c0.824,0.744,1.467,1.639,1.927,2.678c0.458,1.041,0.688,2.195,0.688,3.467v0.08c0,1.106-0.149,2.115-0.446,3.021
			c-0.298,0.906-0.75,1.776-1.356,2.613c-0.609,0.842-1.38,1.686-2.313,2.532c-0.932,0.853-2.021,1.793-3.266,2.819l-5.836,4.863
			h13.5v4.375h-20.515L357.413,40.758L357.413,40.758z"/>
		<path fill="#fff" d="M395.035,44.684c-2.189,0-4.19-0.383-6-1.152c-1.812-0.77-3.365-1.814-4.664-3.145
			c-1.296-1.322-2.31-2.869-3.04-4.641c-0.729-1.771-1.094-3.656-1.094-5.656v-0.08c0-2,0.365-3.887,1.094-5.656
			c0.73-1.77,1.758-3.323,3.081-4.663c1.325-1.338,2.892-2.396,4.705-3.182c1.81-0.783,3.809-1.176,5.999-1.176
			c2.191,0,4.187,0.385,6,1.156c1.813,0.77,3.365,1.814,4.662,3.141c1.299,1.324,2.311,2.871,3.043,4.642
			c0.729,1.771,1.094,3.656,1.094,5.658v0.079c0,2.001-0.365,3.886-1.094,5.654c-0.732,1.771-1.758,3.325-3.082,4.662
			c-1.324,1.34-2.896,2.397-4.703,3.182C399.226,44.293,397.226,44.684,395.035,44.684 M395.117,40.105
			c1.4,0,2.684-0.266,3.856-0.793c1.168-0.525,2.172-1.24,3.006-2.146s1.485-1.967,1.957-3.184c0.473-1.217,0.707-2.514,0.707-3.896
			v-0.08c0-1.379-0.234-2.682-0.707-3.91c-0.472-1.229-1.129-2.301-1.979-3.205c-0.848-0.905-1.863-1.629-3.045-2.168
			c-1.186-0.541-2.477-0.812-3.876-0.812c-1.4,0-2.684,0.263-3.855,0.787c-1.17,0.528-2.172,1.244-3.006,2.149
			c-0.834,0.904-1.488,1.967-1.959,3.184c-0.47,1.216-0.707,2.515-0.707,3.894v0.08c0,1.377,0.237,2.685,0.707,3.91
			c0.471,1.233,1.131,2.299,1.978,3.205c0.85,0.903,1.864,1.629,3.051,2.168C392.424,39.832,393.715,40.105,395.117,40.105"/>
		<path fill="#fff" d="M411.858,40.758l9.771-8.295c0.974-0.811,1.793-1.545,2.474-2.205c0.68-0.664,1.227-1.289,1.645-1.883
			s0.723-1.176,0.912-1.74c0.188-0.564,0.283-1.174,0.283-1.822c0-1.399-0.439-2.485-1.318-3.254
			c-0.879-0.771-1.965-1.152-3.262-1.152c-1.3,0-2.441,0.35-3.426,1.053c-0.986,0.703-2.035,1.77-3.144,3.204l-3.529-2.756
			c0.681-0.947,1.363-1.797,2.068-2.547c0.703-0.75,1.467-1.377,2.291-1.879c0.824-0.506,1.73-0.896,2.717-1.168
			c0.984-0.271,2.113-0.408,3.383-0.408c1.382,0,2.646,0.199,3.791,0.607c1.148,0.404,2.142,0.979,2.959,1.723
			c0.826,0.744,1.47,1.639,1.931,2.678c0.461,1.041,0.688,2.195,0.688,3.467v0.08c0,1.106-0.146,2.115-0.444,3.021
			c-0.302,0.906-0.755,1.776-1.357,2.613c-0.605,0.842-1.377,1.686-2.311,2.532c-0.938,0.853-2.021,1.793-3.267,2.819l-5.84,4.863
			h13.5v4.375h-20.514L411.858,40.758L411.858,40.758L411.858,40.758z"/>
		<path fill="#fff" d="M449.481,44.684c-2.189,0-4.189-0.383-6-1.152c-1.813-0.77-3.365-1.814-4.662-3.145
			c-1.301-1.322-2.313-2.869-3.039-4.641c-0.73-1.771-1.1-3.656-1.1-5.656v-0.08c0-2,0.364-3.887,1.1-5.656
			c0.729-1.77,1.756-3.323,3.08-4.663c1.317-1.338,2.893-2.396,4.697-3.182c1.813-0.783,3.813-1.176,6.004-1.176
			c2.188,0,4.188,0.385,5.998,1.156c1.813,0.77,3.36,1.814,4.664,3.141c1.295,1.324,2.311,2.871,3.036,4.642
			c0.73,1.771,1.099,3.656,1.099,5.658v0.079c0,2.001-0.365,3.886-1.099,5.654c-0.729,1.771-1.756,3.325-3.077,4.662
			c-1.324,1.34-2.894,2.397-4.704,3.182C453.67,44.293,451.67,44.684,449.481,44.684 M449.563,40.105
			c1.396,0,2.684-0.266,3.854-0.793c1.174-0.525,2.174-1.24,3.01-2.146c0.834-0.906,1.484-1.967,1.957-3.184
			s0.707-2.514,0.707-3.896v-0.08c0-1.379-0.234-2.682-0.707-3.91c-0.473-1.229-1.129-2.301-1.977-3.205
			c-0.854-0.905-1.863-1.629-3.05-2.168c-1.188-0.541-2.479-0.812-3.874-0.812c-1.402,0-2.689,0.263-3.855,0.787
			c-1.172,0.528-2.176,1.244-3.012,2.149c-0.832,0.904-1.484,1.967-1.957,3.184c-0.473,1.216-0.705,2.515-0.705,3.894v0.08
			c0,1.377,0.232,2.685,0.705,3.91c0.473,1.233,1.131,2.299,1.977,3.205c0.854,0.903,1.865,1.629,3.053,2.168
			C446.871,39.832,448.159,40.105,449.563,40.105"/>
		<path fill="#fff" d="M360.483,6.623c-0.145,0-0.321,0-0.51-0.021v1.711c0.355,0.021,0.721,0.08,1.028,0.143v0.953h-3.589V8.453
			c0.307-0.062,0.673-0.119,1.027-0.142v-5.77c-0.354-0.022-0.721-0.082-1.027-0.144V1.443h0.926c0.373,0,1.413-0.048,2.239-0.048
			c1.944,0,3.017,0.91,3.017,2.468C363.595,5.408,362.419,6.623,360.483,6.623 M360.507,2.652c-0.188,0-0.354,0-0.533,0.006v2.655
			c0.155,0.021,0.307,0.037,0.446,0.037c0.935-0.017,1.585-0.53,1.585-1.392C362.005,3.156,361.556,2.652,360.507,2.652
			 M367.901,9.535c-2.432,0-3.62-1.543-3.62-4.008c0-2.633,1.755-4.215,3.892-4.215c2.121,0,3.623,1.275,3.623,4
			C371.796,7.943,370.06,9.535,367.901,9.535 M368.031,2.699c-1.097,0-2.11,0.873-2.11,2.662c0,1.687,0.662,2.782,2.09,2.782
			c1.037,0,2.144-0.801,2.144-2.711C370.153,3.664,369.402,2.699,368.031,2.699 M377.052,9.406l-1.949-3.285h-0.209v2.19
			c0.226,0.021,0.481,0.06,0.721,0.13v0.965h-3.28V8.453c0.308-0.062,0.673-0.119,1.026-0.142v-5.77
			c-0.354-0.022-0.719-0.082-1.026-0.144V1.443h0.921c0.307,0,1.412-0.048,2.391-0.048c1.76,0,2.893,0.611,2.893,2.24
			c0,1.11-0.757,1.926-1.876,2.162c0.146,0.187,0.281,0.387,0.403,0.575l1.227,1.922c0.223,0.035,0.504,0.082,0.778,0.132v0.978
			L377.052,9.406L377.052,9.406z M375.479,2.652c-0.209,0-0.432,0.006-0.588,0.028v2.306c0.107,0.01,0.309,0.021,0.543,0.021
			c0.933,0,1.486-0.469,1.486-1.215C376.921,3.027,376.46,2.652,375.479,2.652 M384.513,3.687c-0.055-0.361-0.117-0.682-0.138-0.979
			h-1.229v5.604c0.354,0.021,0.718,0.08,1.029,0.143v0.953h-3.588V8.453c0.309-0.062,0.674-0.119,1.027-0.142V2.707h-1.215
			c-0.022,0.3-0.083,0.617-0.139,0.979h-1.136V1.445h6.521v2.241L384.513,3.687L384.513,3.687z M393.39,2.542v3.811
			c0,2.109-1.169,3.184-3.291,3.184c-2.515,0-3.076-1.367-3.076-2.885v-4.11c-0.26-0.022-0.521-0.067-0.745-0.129V1.445h3.124v0.969
			c-0.27,0.068-0.576,0.104-0.85,0.129v4.012c0,1.004,0.321,1.711,1.644,1.711c1.177,0,1.684-0.496,1.684-1.854v-3.87
			c-0.284-0.023-0.588-0.059-0.847-0.129V1.445h3.088v0.969C393.896,2.474,393.649,2.519,393.39,2.542 M401.301,6.33v2.705
			c-0.791,0.313-1.778,0.488-2.746,0.488c-2.512,0-4.001-1.486-4.001-3.91c0-2.537,1.7-4.285,4.412-4.285
			c0.746,0,1.486,0.104,2.224,0.297V3.76h-1.188c-0.065-0.342-0.104-0.646-0.141-0.957c-0.316-0.086-0.66-0.121-0.979-0.121
			c-1.545,0-2.664,0.982-2.664,2.785c0,1.689,0.92,2.678,2.537,2.678c0.375,0,0.705-0.045,1.008-0.143v-1.66
			c-0.348-0.025-0.717-0.082-1.008-0.154V5.232h3.209V6.21C401.748,6.259,401.524,6.294,401.301,6.33 M406.838,9.406V8.453
			c0.25-0.047,0.568-0.106,0.836-0.127l-0.34-0.944h-2.899l-0.332,0.944c0.272,0.021,0.594,0.08,0.84,0.127v0.953h-2.994V8.453
			c0.188-0.062,0.422-0.106,0.623-0.119L405,1.445h1.877l2.479,6.889c0.198,0.013,0.438,0.06,0.625,0.119v0.953H406.838z
			 M406.248,4.23c-0.147-0.438-0.266-0.813-0.363-1.25h-0.012c-0.098,0.396-0.213,0.863-0.377,1.307l-0.686,1.9h2.146L406.248,4.23z
			 M410.336,9.406V8.453c0.31-0.062,0.676-0.119,1.029-0.142v-5.77c-0.355-0.022-0.721-0.082-1.029-0.144V1.443h3.588v0.954
			c-0.307,0.062-0.672,0.119-1.026,0.144v5.603h1.522c0.023-0.284,0.082-0.625,0.144-0.978h1.129v2.238L410.336,9.406L410.336,9.406
			z"/>
		<path fill="#fff" d="M333.538,1.652c-7.021,2.776-11.388,10.103-11.388,21.383v17.124c0,0,1.437-11.009,11.388-14.181V1.652z"
			/>
		<path fill="#fff" d="M336.935,27.674c-4.078,0.813-10.054,4.084-11.813,8.688c8.757-10.635,26.633-0.354,27.427-20.354
			c0.25-6.332,0.275-14.13,0.275-14.13c-9.333,0.525-15.889,3.013-15.889,3.013V27.674z"/>
		<path fill="#fff" d="M335.798,33.447c0,0-9.504,0.77-10.312,6.195c-0.638,4.24,10.312,4.354,10.312,4.354V33.447z"/>
	</g>
</g>
<path fill="#fff" d="M539.139,0.408v45.184h69.006V0.408H539.139z M586.557,15.337l0.48-1.477l0.479,1.477h1.559l-1.256,0.914
	l0.477,1.486l-1.258-0.918l-1.258,0.918l0.479-1.486L585,15.337H586.557z M556.252,22.613h1.557l0.482-1.486l0.482,1.486h1.555
	l-1.26,0.905l0.479,1.484l-1.258-0.916l-1.26,0.916l0.479-1.484L556.252,22.613z M561.5,33.252l-1.258-0.914l-1.26,0.914
	l0.479-1.479l-1.254-0.916h1.557l0.479-1.479l0.482,1.479h1.555l-1.258,0.916L561.5,33.252z M561.022,16.251l0.479,1.486
	l-1.258-0.918l-1.26,0.918l0.479-1.486l-1.254-0.914h1.557l0.48-1.477l0.48,1.477h1.557L561.022,16.251z M565.252,9.632l0.482-1.479
	l0.479,1.479h1.553l-1.254,0.912l0.482,1.477l-1.26-0.918l-1.262,0.918l0.48-1.477l-1.258-0.912H565.252z M567.417,38.811
	l-1.256-0.914l-1.258,0.914l0.479-1.48l-1.26-0.906h1.561l0.48-1.479l0.479,1.479h1.563l-1.258,0.906L567.417,38.811z
	 M574.989,40.469l-1.26-0.906l-1.262,0.906l0.482-1.477l-1.266-0.916h1.563l0.479-1.477l0.48,1.477h1.553l-1.254,0.916
	L574.989,40.469z M574.506,8.326l0.482,1.479l-1.264-0.918l-1.26,0.918l0.482-1.479l-1.266-0.924h1.563l0.479-1.478l0.48,1.478
	h1.553L574.506,8.326z M582.372,38.811l-1.256-0.914l-1.26,0.914l0.484-1.48l-1.262-0.906h1.553l0.48-1.479l0.479,1.479h1.557
	l-1.26,0.906L582.372,38.811z M582.323,10.544l0.479,1.477l-1.258-0.918l-1.262,0.918l0.479-1.477l-1.252-0.912h1.551l0.484-1.479
	l0.48,1.479h1.555L582.323,10.544z M588.293,33.252l-1.258-0.914l-1.258,0.914l0.479-1.479l-1.258-0.916h1.563l0.479-1.479
	l0.482,1.479h1.553l-1.256,0.916L588.293,33.252z M590.245,25.004l-1.258-0.916l-1.258,0.916l0.479-1.484l-1.26-0.905h1.553
	l0.482-1.486l0.479,1.486h1.557l-1.26,0.905L590.245,25.004z"/>
<g>
	<path fill="#fff" d="M622.459,2.439h0.963v4.199c0,0.732-0.084,1.313-0.248,1.742c-0.166,0.429-0.463,0.777-0.895,1.049
		c-0.438,0.271-0.998,0.402-1.699,0.402c-0.682,0-1.236-0.115-1.67-0.354c-0.438-0.232-0.744-0.57-0.928-1.018
		c-0.189-0.445-0.279-1.053-0.279-1.824V2.437h0.963v4.195c0,0.631,0.063,1.096,0.178,1.396c0.115,0.299,0.318,0.527,0.605,0.689
		c0.287,0.162,0.637,0.242,1.049,0.242c0.709,0,1.213-0.158,1.512-0.48c0.305-0.318,0.453-0.936,0.453-1.85V2.437h-0.004V2.439
		L622.459,2.439z"/>
	<path fill="#fff" d="M625.014,9.71V2.439H626l3.816,5.707V2.439h0.924V9.71h-0.986l-3.814-5.713V9.71H625.014z"/>
	<path fill="#fff" d="M632.522,9.71V2.439h0.961V9.71H632.522z"/>
	<path fill="#fff" d="M634.379,9.71l2.793-7.271h1.035l2.975,7.271h-1.096l-0.848-2.203H636.2l-0.797,2.203H634.379z
		 M636.125,1.994c-0.004-0.346,0.092-0.619,0.283-0.824c0.188-0.203,0.43-0.307,0.723-0.307c0.205,0,0.484,0.088,0.838,0.268
		c0.195,0.1,0.354,0.148,0.471,0.148c0.104,0,0.188-0.027,0.238-0.086c0.061-0.061,0.1-0.176,0.119-0.348h0.646
		c-0.014,0.377-0.105,0.66-0.285,0.852c-0.18,0.188-0.408,0.279-0.689,0.279c-0.209,0-0.479-0.092-0.82-0.275
		c-0.225-0.119-0.387-0.18-0.486-0.18c-0.111,0-0.203,0.039-0.27,0.119c-0.072,0.078-0.107,0.195-0.105,0.354H636.125z
		 M636.479,6.722h2.465l-0.762-2.012c-0.229-0.613-0.4-1.115-0.516-1.506c-0.094,0.465-0.223,0.928-0.393,1.387L636.479,6.722z"/>
	<path fill="#fff" d="M641.659,6.167c0-1.205,0.324-2.15,0.971-2.834c0.648-0.68,1.484-1.023,2.508-1.023
		c0.678,0,1.275,0.162,1.816,0.482c0.537,0.32,0.949,0.766,1.232,1.342c0.277,0.572,0.422,1.223,0.422,1.949
		c0,0.738-0.146,1.396-0.445,1.979c-0.297,0.582-0.717,1.023-1.264,1.32c-0.545,0.301-1.137,0.449-1.77,0.449
		c-0.682,0-1.295-0.164-1.832-0.494c-0.541-0.332-0.945-0.783-1.227-1.354C641.797,7.41,641.659,6.806,641.659,6.167z
		 M642.649,6.183c0,0.877,0.234,1.566,0.709,2.068c0.469,0.506,1.059,0.76,1.77,0.76c0.729,0,1.32-0.258,1.787-0.766
		c0.467-0.51,0.701-1.232,0.701-2.166c0-0.594-0.1-1.107-0.299-1.549c-0.199-0.443-0.492-0.785-0.879-1.027
		c-0.387-0.242-0.816-0.363-1.295-0.363c-0.684,0-1.27,0.234-1.762,0.701C642.893,4.308,642.649,5.089,642.649,6.183z"/>
	<path fill="#fff" d="M652.692,9.71V2.439h5.256v0.859h-4.295v2.229h4.02v0.852h-4.02v2.475h4.463v0.859L652.692,9.71
		L652.692,9.71z"/>
	<path fill="#fff" d="M664.213,2.439h0.963v4.199c0,0.732-0.084,1.313-0.25,1.742c-0.166,0.429-0.463,0.777-0.895,1.049
		c-0.438,0.271-0.998,0.402-1.699,0.402c-0.682,0-1.236-0.115-1.67-0.354c-0.432-0.232-0.742-0.57-0.928-1.018
		c-0.189-0.445-0.277-1.053-0.277-1.824V2.437h0.963v4.195c0,0.631,0.063,1.096,0.176,1.396c0.117,0.299,0.32,0.527,0.605,0.689
		c0.287,0.162,0.637,0.242,1.049,0.242c0.707,0,1.213-0.158,1.512-0.48c0.305-0.318,0.453-0.936,0.453-1.85L664.213,2.439
		L664.213,2.439z"/>
	<path fill="#fff" d="M666.792,9.71V2.439h3.223c0.648,0,1.145,0.066,1.48,0.197c0.336,0.129,0.605,0.361,0.809,0.691
		c0.203,0.33,0.307,0.693,0.307,1.096c0,0.516-0.166,0.951-0.5,1.305s-0.854,0.578-1.553,0.674c0.262,0.125,0.447,0.242,0.58,0.361
		c0.281,0.258,0.553,0.58,0.805,0.967l1.262,1.98h-1.209l-0.961-1.514c-0.281-0.438-0.514-0.771-0.693-1.002
		c-0.184-0.23-0.344-0.395-0.488-0.484c-0.145-0.094-0.289-0.158-0.439-0.193c-0.105-0.023-0.285-0.035-0.535-0.035h-1.113V9.71
		H666.792L666.792,9.71z M667.754,5.648h2.066c0.438,0,0.785-0.047,1.027-0.137c0.248-0.09,0.439-0.234,0.564-0.436
		c0.129-0.201,0.193-0.418,0.193-0.652c0-0.344-0.125-0.627-0.373-0.848c-0.252-0.223-0.646-0.332-1.186-0.332h-2.301v2.403
		L667.754,5.648L667.754,5.648z"/>
	<path fill="#fff" d="M673.819,6.167c0-1.205,0.324-2.15,0.971-2.834c0.648-0.68,1.484-1.023,2.508-1.023
		c0.672,0,1.275,0.162,1.816,0.482c0.537,0.32,0.949,0.766,1.229,1.342c0.281,0.572,0.426,1.223,0.426,1.949
		c0,0.738-0.145,1.396-0.443,1.979c-0.297,0.582-0.719,1.023-1.268,1.32c-0.547,0.301-1.135,0.449-1.768,0.449
		c-0.682,0-1.295-0.164-1.832-0.494c-0.541-0.332-0.949-0.783-1.227-1.354C673.958,7.41,673.819,6.806,673.819,6.167z
		 M674.809,6.183c0,0.877,0.236,1.566,0.709,2.068c0.471,0.506,1.061,0.76,1.771,0.76c0.723,0,1.32-0.258,1.787-0.766
		c0.467-0.51,0.701-1.232,0.701-2.166c0-0.594-0.104-1.107-0.303-1.549c-0.195-0.443-0.488-0.785-0.879-1.027
		c-0.385-0.242-0.813-0.363-1.295-0.363c-0.682,0-1.268,0.234-1.76,0.701C675.053,4.308,674.809,5.089,674.809,6.183z"/>
	<path fill="#fff" d="M682.008,9.71V2.439h2.742c0.482,0,0.854,0.025,1.105,0.07c0.354,0.063,0.65,0.174,0.895,0.34
		c0.24,0.166,0.439,0.4,0.582,0.701c0.148,0.301,0.221,0.633,0.221,0.99c0,0.621-0.193,1.143-0.588,1.57
		c-0.395,0.43-1.104,0.643-2.135,0.643h-1.863V9.71H682.008z M682.969,5.898h1.881c0.621,0,1.064-0.115,1.324-0.35
		c0.26-0.229,0.393-0.559,0.393-0.977c0-0.305-0.074-0.564-0.23-0.781c-0.154-0.217-0.354-0.359-0.604-0.428
		c-0.162-0.045-0.461-0.064-0.896-0.064h-1.861v2.6H682.969z"/>
	<path fill="#fff" d="M688.801,9.71V2.439h5.256v0.859h-4.293v2.229h4.021v0.852h-4.021v2.475h4.465v0.859L688.801,9.71
		L688.801,9.71z"/>
	<path fill="#fff" d="M695.717,9.71V2.439h0.961V9.71H695.717z"/>
	<path fill="#fff" d="M697.577,9.71l2.791-7.271h1.035l2.977,7.271h-1.098l-0.848-2.203h-3.039l-0.799,2.203H697.577z
		 M699.674,6.722h2.463l-0.758-2.012c-0.229-0.613-0.4-1.115-0.516-1.506c-0.092,0.465-0.229,0.928-0.396,1.387L699.674,6.722z"/>
</g>
<g>
	<g>
		<rect x="204.179" y="23.891" fill="#fff" width="23.315" height="7.271"/>
		<path fill="#fff" d="M215.625,16.217c5.418-3.914,8.524-13.25,0.709-13.25c6.335,0,10.878,3.791,10.878,9.055v0.074
			c0,4.231-2.256,6.522-5.576,8.664l-0.281,0.178h-12.787L215.625,16.217z"/>
		<path fill="#fff" d="M233.957,6.978c-2.837,2.622-4.562,6.311-4.562,10.419v0.079c0,5.236,2.77,9.749,7.056,12.264
			c7.516,2.658,15.147-1.078,15.147-8.105c0-1.759-0.465-3.38-1.297-4.708c0.006,0.154,0.019,0.313,0.019,0.471v0.079
			c0,2.229-1.039,4.302-2.832,5.39c-6.555,4.979-15.036,0.359-15.036-9.563C232.453,11.107,232.968,8.916,233.957,6.978"/>
		<path fill="#fff" d="M259.664,17.397c0,7.908-6.383,14.242-14.735,14.457c5.649-0.178,9.178-4.941,9.178-10.217V21.5
			c0-5.441-3.73-10.346-9.619-10.362c-3.534,0.019-5.742,2.94-5.742,6.183v0.078c0,3.266,2.227,6.221,5.742,6.264
			c-5.84-0.063-9.533-4.948-9.533-10.359v-0.136c0-5.381,3.677-10.235,9.51-10.235h0.108c8.555,0,15.091,6.343,15.091,14.39V17.397
			L259.664,17.397z"/>
		<path fill="#fff" d="M161.925,7.705c0.604-3.289-2.771-4.946-6.172-4.317c-3.418,0.81-5.813,2.741-8.181,5.67l6.084,5.181
			c2.293-2.453,3.755-3.449,5.333-3.449c0.593,0,1.082,0.123,1.473,0.338C161.208,9.967,161.729,8.751,161.925,7.705"/>
		<rect x="147.634" y="23.891" fill="#fff" width="23.31" height="7.271"/>
		<path fill="#fff" d="M152.018,20.938h12.792l0.274-0.178c3.32-2.134,5.583-4.433,5.583-8.664v-0.08
			c0-5.258-4.549-9.049-10.878-9.049c7.809,0,4.708,9.336-0.709,13.25L152.018,20.938z"/>
		<path fill="#fff" d="M175.902,13.301c0,9.924,8.481,14.542,15.036,9.563c1.793-1.09,2.832-3.16,2.832-5.391v-0.079
			c0-0.157-0.006-0.315-0.02-0.471c0.832,1.327,1.304,2.948,1.304,4.708c0,7.025-7.631,10.764-15.147,8.104
			c-4.298-2.514-7.062-7.024-7.062-12.261v-0.079c0-4.107,1.729-7.797,4.555-10.419C176.423,8.916,175.902,11.107,175.902,13.301"/>
		<path fill="#fff" d="M203.12,17.318c0-8.041-6.537-14.389-15.098-14.389h-0.109c-5.84,0-9.503,4.854-9.503,10.234V13.3
			c0,5.41,3.688,10.298,9.533,10.358c-3.516-0.041-5.748-2.997-5.748-6.264v-0.078c0-3.24,2.208-6.162,5.748-6.182
			c5.889,0.02,9.613,4.921,9.613,10.363v0.134c0,5.273-3.528,10.049-9.172,10.219c8.34-0.215,14.736-6.547,14.736-14.457V17.318
			L203.12,17.318z"/>
		<path fill="#fff" d="M217.014,11.125c-0.392-0.215-0.888-0.338-1.469-0.338c-1.583,0-3.045,0.996-5.337,3.449l-6.091-5.187
			c2.373-2.923,4.765-4.854,8.188-5.664c3.394-0.629,6.774,1.028,6.17,4.317C218.279,8.751,217.76,9.967,217.014,11.125"/>
	</g>
	<g>
		<path fill="#fff" d="M1.266,38.785h1.658c0.937,0,1.454,0.555,1.454,1.309c0,0.752-0.518,1.299-1.454,1.299H2.075v1.424h0.447
			v0.313H1.266v-0.313h0.39v-3.725h-0.39V38.785z M2.886,41.061c0.707,0,1.058-0.383,1.058-0.967c0-0.594-0.356-0.975-1.058-0.975
			H2.075v1.939L2.886,41.061L2.886,41.061z"/>
		<path fill="#fff" d="M6.403,41.344h-0.95v1.473H5.9v0.313H4.645v-0.313h0.387v-3.725H4.645v-0.307h1.682
			c0.938,0,1.449,0.563,1.449,1.297c0,0.586-0.327,1.039-0.952,1.189l0.964,1.543h0.401v0.311H7.507L6.403,41.344z M6.271,41.01
			c0.739,0,1.07-0.361,1.07-0.938c0-0.578-0.338-0.953-1.07-0.953H5.453v1.891H6.271z"/>
		<path fill="#fff" d="M8.388,40.953c0-1.281,0.998-2.217,2.228-2.217c1.237,0,2.231,0.936,2.231,2.217s-0.995,2.219-2.231,2.219
			C9.385,43.172,8.388,42.234,8.388,40.953z M12.404,40.953c0-1.059-0.758-1.855-1.79-1.855c-1.034,0-1.792,0.799-1.792,1.855
			c0,1.059,0.758,1.854,1.792,1.854C11.646,42.809,12.404,42.012,12.404,40.953z"/>
		<path fill="#fff" d="M16.953,42.643c-0.312,0.314-0.783,0.529-1.415,0.529c-1.199,0-2.192-0.854-2.192-2.219
			c0-1.281,0.987-2.217,2.18-2.217c0.599,0,1.059,0.191,1.314,0.547v-0.498h0.345v1.117h-0.326
			c-0.158-0.531-0.617-0.799-1.307-0.799c-1.035,0-1.771,0.791-1.771,1.85c0,1.084,0.77,1.854,1.795,1.854
			c0.677,0,1.099-0.262,1.36-0.521v-0.912h-1.308V41.04h1.702v2.084h-0.377V42.643z"/>
		<path fill="#fff" d="M19.7,41.344h-0.951v1.473h0.447v0.313h-1.255v-0.313h0.388v-3.725h-0.388v-0.307h1.682
			c0.938,0,1.448,0.563,1.448,1.297c0,0.586-0.326,1.039-0.948,1.189l0.962,1.543h0.402v0.311h-0.683L19.7,41.344z M19.566,41.01
			c0.74,0,1.071-0.361,1.071-0.938c0-0.578-0.338-0.953-1.071-0.953h-0.817v1.891H19.566z"/>
		<path fill="#fff" d="M25.895,43.125h-1.188v-0.311h0.415l-0.313-0.859h-1.944l-0.319,0.859h0.423v0.311h-1.155v-0.311h0.331
			l1.359-3.727h-0.313v-0.309h1.327v0.309H24.2l1.358,3.729h0.338L25.895,43.125L25.895,43.125z M22.981,41.605h1.713l-0.854-2.418
			L22.981,41.605"/>
		<path fill="#fff" d="M31.091,43.125h-1.236v-0.311h0.438v-3.379l-1.534,2.371h-0.172L27.05,39.41v3.404h0.444v0.311h-1.209
			v-0.311h0.39V39.09h-0.403v-0.307H27.1l1.582,2.469l1.587-2.469h0.836v0.307h-0.403v3.727h0.39L31.091,43.125L31.091,43.125z"/>
		<path fill="#fff" d="M35.562,43.125h-1.186v-0.311h0.415l-0.312-0.859h-1.945l-0.319,0.859h0.421v0.311h-1.153v-0.311h0.332
			l1.355-3.727h-0.312v-0.309h1.326v0.309h-0.319l1.357,3.729h0.338L35.562,43.125L35.562,43.125z M32.649,41.605h1.717
			l-0.854-2.418L32.649,41.605z"/>
		<path fill="#fff" d="M37.019,40.953c0-1.281,0.997-2.217,2.228-2.217c1.236,0,2.23,0.936,2.23,2.217s-0.995,2.219-2.23,2.219
			C38.016,43.172,37.019,42.234,37.019,40.953z M41.036,40.953c0-1.059-0.758-1.855-1.791-1.855c-1.034,0-1.793,0.799-1.793,1.855
			c0,1.059,0.759,1.854,1.793,1.854C40.278,42.809,41.036,42.012,41.036,40.953z"/>
		<path fill="#fff" d="M41.895,38.785h1.658c0.935,0,1.45,0.555,1.45,1.309c0,0.752-0.517,1.299-1.45,1.299h-0.851v1.424h0.447
			v0.313h-1.255v-0.313h0.387v-3.725h-0.387L41.895,38.785L41.895,38.785z M43.513,41.061c0.707,0,1.059-0.383,1.059-0.967
			c0-0.594-0.358-0.975-1.059-0.975h-0.811v1.939L43.513,41.061L43.513,41.061z"/>
		<path fill="#fff" d="M47.942,39.131H46.08v1.643h1.741v0.334H46.08v1.674h1.951v-0.604h0.338v0.947h-3.1v-0.311h0.39V39.09
			h-0.39v-0.307h3.01v0.941h-0.337V39.131z"/>
		<path fill="#fff" d="M50.633,41.344h-0.951v1.473h0.446v0.313h-1.256v-0.313h0.39v-3.725h-0.39v-0.307h1.685
			c0.937,0,1.446,0.563,1.446,1.297c0,0.586-0.325,1.039-0.949,1.189l0.962,1.543h0.402v0.311h-0.683L50.633,41.344z M50.498,41.01
			c0.74,0,1.07-0.361,1.07-0.938c0-0.578-0.336-0.953-1.07-0.953h-0.816v1.891H50.498z"/>
		<path fill="#fff" d="M56.826,43.125h-1.185v-0.311h0.412l-0.313-0.859h-1.943l-0.319,0.859h0.42v0.311h-1.154v-0.311h0.332
			l1.357-3.727h-0.311v-0.309h1.325v0.309h-0.319l1.358,3.729h0.338L56.826,43.125L56.826,43.125z M53.91,41.605h1.716l-0.854-2.418
			L53.91,41.605z"/>
		<path fill="#fff" d="M59.058,38.727c0.631,0,1.09,0.225,1.353,0.596v-0.533h0.344v1.209h-0.312
			c-0.153-0.605-0.708-0.896-1.359-0.896c-1.033,0-1.764,0.799-1.764,1.854c0,1.078,0.758,1.854,1.778,1.854
			c0.629,0,1.141-0.271,1.479-0.73l0.318,0.229c-0.422,0.563-1.027,0.867-1.805,0.867c-1.244,0-2.212-0.928-2.212-2.219
			C56.886,39.662,57.847,38.727,59.058,38.727z"/>
		<path fill="#fff" d="M61.295,38.785h1.192v0.307H62.1v3.725h0.388v0.313h-1.192v-0.313h0.39v-3.725h-0.39L61.295,38.785
			L61.295,38.785z"/>
		<path fill="#fff" d="M62.896,40.953c0-1.281,0.994-2.217,2.225-2.217c1.238,0,2.23,0.936,2.23,2.217s-0.993,2.219-2.23,2.219
			C63.891,43.172,62.896,42.234,62.896,40.953z M66.912,40.953c0-1.059-0.759-1.855-1.792-1.855c-1.033,0-1.793,0.799-1.793,1.855
			c0,1.059,0.76,1.854,1.793,1.854C66.153,42.809,66.912,42.012,66.912,40.953z"/>
		<path fill="#fff" d="M71.896,39.092h-0.389v4.033h-0.273l-2.691-3.738v3.43h0.429v0.313h-1.199v-0.313h0.387v-3.725h-0.387
			v-0.307h0.81l2.543,3.537v-3.23h-0.435v-0.307h1.207L71.896,39.092L71.896,39.092z"/>
		<path fill="#fff" d="M76.155,43.125H74.97v-0.311h0.413l-0.311-0.859h-1.947l-0.318,0.859h0.421v0.311h-1.154v-0.311h0.333
			l1.358-3.727h-0.313v-0.309h1.325v0.309H74.46l1.357,3.729h0.338V43.125z M73.243,41.605h1.714l-0.853-2.418L73.243,41.605z"/>
		<path fill="#fff" d="M76.539,38.785h1.198v0.307H77.35v3.688h1.708v-0.604H79.4v0.947h-2.861v-0.311h0.39v-3.727h-0.39V38.785z
			"/>
		<path fill="#fff" d="M82.682,41.344h-0.95v1.473h0.447v0.313h-1.258v-0.313h0.391v-3.725h-0.391v-0.307h1.684
			c0.938,0,1.449,0.563,1.449,1.297c0,0.586-0.326,1.039-0.952,1.189l0.963,1.543h0.401v0.311h-0.683L82.682,41.344z M82.546,41.01
			c0.741,0,1.072-0.361,1.072-0.938c0-0.578-0.338-0.953-1.072-0.953h-0.814v1.891H82.546z"/>
		<path fill="#fff" d="M87.535,39.131h-1.861v1.643h1.738v0.334h-1.738v1.674h1.95v-0.604h0.338v0.947h-3.099v-0.311h0.389V39.09
			h-0.389v-0.307h3.008v0.941h-0.336V39.131z"/>
		<path fill="#fff" d="M92.039,42.643c-0.313,0.314-0.783,0.529-1.416,0.529c-1.197,0-2.191-0.854-2.191-2.219
			c0-1.281,0.985-2.217,2.178-2.217c0.601,0,1.059,0.191,1.314,0.547v-0.498h0.345v1.117h-0.327
			c-0.159-0.531-0.616-0.799-1.307-0.799c-1.032,0-1.772,0.791-1.772,1.85c0,1.084,0.772,1.854,1.801,1.854
			c0.674,0,1.095-0.262,1.355-0.521v-0.912h-1.308V41.04h1.702v2.084h-0.375L92.039,42.643L92.039,42.643z"/>
		<path fill="#fff" d="M93.029,38.785h1.192v0.307h-0.389v3.725h0.389v0.313h-1.192v-0.313h0.389v-3.725h-0.389V38.785z"/>
		<path fill="#fff" d="M94.628,40.953c0-1.281,0.995-2.217,2.227-2.217c1.236,0,2.231,0.936,2.231,2.217
			s-0.995,2.219-2.231,2.219C95.623,43.172,94.628,42.234,94.628,40.953z M98.646,40.953c0-1.059-0.758-1.855-1.792-1.855
			c-1.032,0-1.792,0.799-1.792,1.855c0,1.059,0.759,1.854,1.792,1.854C97.889,42.809,98.646,42.012,98.646,40.953z"/>
		<path fill="#fff" d="M103.628,39.092h-0.39v4.033h-0.272l-2.691-3.738v3.43h0.427v0.313h-1.197v-0.313h0.389v-3.725h-0.389
			v-0.307h0.81l2.542,3.537v-3.23h-0.432v-0.307h1.205L103.628,39.092L103.628,39.092z"/>
		<path fill="#fff" d="M107.891,43.125h-1.187v-0.311h0.414l-0.313-0.859h-1.943l-0.319,0.859h0.419v0.311h-1.152v-0.311h0.332
			l1.356-3.727h-0.311v-0.309h1.325v0.309h-0.318l1.357,3.729h0.339L107.891,43.125L107.891,43.125z M104.976,41.605h1.716
			l-0.854-2.418L104.976,41.605z"/>
		<path fill="#fff" d="M108.272,38.785h1.199v0.307h-0.391v3.688h1.708v-0.604h0.347v0.947h-2.864v-0.311h0.389v-3.727h-0.389
			L108.272,38.785L108.272,38.785z"/>
		<path fill="#fff" d="M112.656,38.785h1.47c1.437,0,2.292,0.887,2.292,2.168c0,1.279-0.849,2.172-2.292,2.172h-1.47v-0.311
			h0.387V39.09h-0.387V38.785z M114.087,42.779c1.283,0,1.895-0.764,1.895-1.826c0-1.064-0.611-1.822-1.895-1.822h-0.621v3.648
			H114.087z"/>
		<path fill="#fff" d="M116.923,40.953c0-1.281,0.995-2.217,2.226-2.217c1.236,0,2.23,0.936,2.23,2.217s-0.994,2.219-2.23,2.219
			C117.918,43.172,116.923,42.234,116.923,40.953z M120.938,40.953c0-1.059-0.758-1.855-1.791-1.855
			c-1.034,0-1.792,0.799-1.792,1.855c0,1.059,0.758,1.854,1.792,1.854C120.182,42.809,120.938,42.012,120.938,40.953z"/>
		<path fill="#fff" d="M127.101,39.092h-0.389v4.033h-0.274l-2.691-3.738v3.43h0.43v0.313h-1.199v-0.313h0.389v-3.725h-0.389
			v-0.307h0.809l2.545,3.537v-3.23h-0.436v-0.307h1.206L127.101,39.092L127.101,39.092z"/>
		<path fill="#fff" d="M127.485,40.953c0-1.281,0.994-2.217,2.229-2.217c1.235,0,2.229,0.936,2.229,2.217
			s-0.995,2.219-2.229,2.219C128.48,43.172,127.485,42.234,127.485,40.953z M131.504,40.953c0-1.059-0.759-1.855-1.792-1.855
			c-1.033,0-1.794,0.799-1.794,1.855c0,1.059,0.761,1.854,1.794,1.854C130.745,42.809,131.504,42.012,131.504,40.953z"/>
		<path fill="#fff" d="M134.119,41.344h-0.949v1.473h0.445v0.313h-1.255v-0.313h0.388v-3.725h-0.388v-0.307h1.683
			c0.937,0,1.448,0.563,1.448,1.297c0,0.586-0.327,1.039-0.951,1.189l0.963,1.543h0.402v0.311h-0.682L134.119,41.344z
			 M133.987,41.01c0.738,0,1.07-0.361,1.07-0.938c0-0.578-0.337-0.953-1.07-0.953h-0.815v1.891H133.987z"/>
		<path fill="#fff" d="M138.991,39.131h-1.083v3.686h0.418v0.313h-1.254v-0.313h0.419v-3.686h-1.083v0.598h-0.344v-0.939h3.263
			v0.939h-0.337L138.991,39.131L138.991,39.131z"/>
		<path fill="#fff" d="M142.433,39.131h-1.861v1.643h1.742v0.334h-1.742v1.674h1.949v-0.604h0.34v0.947h-3.099v-0.311h0.388
			V39.09h-0.388v-0.307h3.009v0.941h-0.339L142.433,39.131L142.433,39.131z"/>
	</g>
	<path fill="#fff" d="M34.54,13.219c0,9.915,8.472,14.525,15.013,9.554c1.783-1.082,2.825-3.169,2.825-5.375v-0.087
		c0-0.153-0.007-0.315-0.022-0.47c0.841,1.318,1.305,2.939,1.305,4.693c0,7.022-7.622,10.756-15.121,8.094
		c-4.276-2.51-7.042-7.012-7.042-12.231V17.31c0-4.101,1.723-7.774,4.541-10.399C35.065,8.848,34.54,11.025,34.54,13.219
		 M77.544,10.847c2.141,0,3.521,1.061,3.521,2.881c2.17-0.672,2.912-2.085,2.912-3.637c0-4.311-4.796-6.635-10.093-6.635h-9.631
		v7.391H77.544z M61.706,17.311c0,7.896-6.378,14.22-14.703,14.435c5.63-0.178,9.159-4.941,9.159-10.209v-0.131
		c0-5.432-3.722-10.324-9.606-10.342c-3.529,0.018-5.729,2.936-5.729,6.172v0.075c0,3.261,2.216,6.21,5.729,6.255
		c-5.83-0.063-9.515-4.94-9.515-10.347v-0.132c0-5.366,3.661-10.209,9.491-10.209h0.101c8.548,0,15.073,6.324,15.073,14.354V17.311
		L61.706,17.311z M10.438,3.457H1.265l18.51,27.699h9.175L10.438,3.457z M19.774,3.457h9.175v22.327l-9.175-13.53V3.457z
		 M1.266,9.125v22.031h9.174v-8.494L1.266,9.125z M86.256,23.836l5.012,7.32H80.71l-3.621-5.48c3.058-0.156,6.302-0.557,8.75-1.654
		C85.985,23.969,86.116,23.898,86.256,23.836 M84.819,21.742c3.251-1.441,5.459-4.433,5.459-8.463v-0.084
		c0-2.843-0.865-4.904-2.525-6.558C86,4.876,83.274,3.703,79.144,3.501c-0.395-0.03-0.803-0.047-1.229-0.047h-0.13
		c0.472,0,0.918,0.023,1.359,0.047c4.494,0.316,7.336,2.426,7.336,6.402v0.186c0,4.139-3.268,6.557-8.657,6.557h-2.331v6.602
		C75.491,23.248,81.576,23.188,84.819,21.742 M91.46,3.457h25.576v7.283H91.46V3.457z M119.167,10.74h23.569V3.467h-23.569V10.74z
		 M119.167,23.922h23.569v7.273h-23.569V23.922z M64.256,31.158h9.182V13.691h-9.182V31.158z M108.89,31.158h-9.182V13.691h9.182
		V31.158z M119.167,20.955h18.388v-7.267h-18.388V20.955z"/>
</g>
<g>
	<polygon fill="#fff" points="617.219,34.742 617.219,28.471 621.45,28.471 621.45,29.216 618.051,29.216 618.051,31.15 
		620.995,31.15 620.995,31.893 618.051,31.893 618.051,34.742 	"/>
	<path fill="#fff" d="M625.403,34.742v-0.67c-0.354,0.509-0.834,0.771-1.439,0.771c-0.271,0-0.521-0.054-0.752-0.156
		c-0.234-0.106-0.404-0.231-0.518-0.388c-0.115-0.155-0.191-0.345-0.234-0.571c-0.033-0.151-0.051-0.389-0.051-0.723V30.2h0.77
		v2.516c0,0.401,0.016,0.675,0.053,0.813c0.043,0.203,0.141,0.359,0.301,0.477c0.158,0.112,0.354,0.17,0.586,0.17
		c0.229,0,0.449-0.058,0.648-0.174c0.197-0.12,0.346-0.281,0.428-0.486c0.086-0.201,0.125-0.494,0.125-0.884v-2.431h0.771v4.541
		H625.403z"/>
	<path fill="#fff" d="M627.292,34.742v-4.541h0.695v0.646c0.336-0.5,0.814-0.75,1.441-0.75c0.277,0,0.529,0.049,0.756,0.146
		c0.23,0.1,0.404,0.229,0.512,0.389c0.119,0.16,0.199,0.35,0.246,0.563c0.025,0.144,0.039,0.394,0.039,0.754v2.793h-0.768v-2.768
		c0-0.311-0.031-0.543-0.094-0.699c-0.059-0.159-0.162-0.279-0.313-0.369c-0.16-0.094-0.334-0.143-0.541-0.143
		c-0.33,0-0.607,0.103-0.846,0.313c-0.24,0.203-0.357,0.597-0.357,1.186v2.48H627.292z"/>
	<path fill="#fff" d="M635.108,34.742v-0.576c-0.287,0.451-0.713,0.68-1.271,0.68c-0.361,0-0.691-0.104-0.994-0.305
		c-0.309-0.2-0.539-0.479-0.707-0.834c-0.168-0.359-0.248-0.771-0.248-1.23c0-0.455,0.074-0.869,0.227-1.235
		c0.146-0.37,0.373-0.65,0.676-0.853c0.305-0.191,0.645-0.289,1.014-0.289c0.275,0,0.516,0.059,0.73,0.164
		c0.215,0.121,0.391,0.272,0.523,0.461v-2.254h0.766v6.271H635.108z M632.674,32.477c0,0.58,0.121,1.014,0.369,1.303
		c0.246,0.285,0.533,0.434,0.867,0.434c0.338,0,0.623-0.141,0.852-0.416c0.244-0.271,0.359-0.695,0.359-1.258
		c0-0.624-0.121-1.075-0.359-1.369c-0.242-0.289-0.535-0.438-0.887-0.438c-0.344,0-0.627,0.139-0.857,0.418
		C632.79,31.434,632.674,31.874,632.674,32.477"/>
	<path fill="#fff" d="M636.747,32.469c0-0.84,0.234-1.46,0.697-1.865c0.389-0.34,0.867-0.504,1.428-0.504
		c0.623,0,1.137,0.2,1.529,0.61c0.402,0.406,0.596,0.974,0.596,1.69c0,0.588-0.084,1.049-0.258,1.383
		c-0.18,0.335-0.434,0.593-0.771,0.781c-0.336,0.183-0.695,0.279-1.096,0.279c-0.633,0-1.145-0.21-1.537-0.615
		C636.942,33.822,636.747,33.234,636.747,32.469 M637.534,32.469c0,0.578,0.125,1.02,0.383,1.311
		c0.254,0.285,0.57,0.434,0.955,0.434c0.383,0,0.701-0.152,0.957-0.441c0.254-0.291,0.379-0.731,0.379-1.326
		c0-0.564-0.125-0.98-0.379-1.274c-0.256-0.289-0.576-0.438-0.957-0.438c-0.385,0-0.701,0.148-0.955,0.434
		C637.659,31.45,637.534,31.889,637.534,32.469"/>
	<path fill="#fff" d="M641.588,33.381l0.764-0.119c0.045,0.303,0.16,0.538,0.357,0.704c0.195,0.16,0.467,0.246,0.816,0.246
		c0.355,0,0.617-0.075,0.789-0.22c0.168-0.143,0.254-0.316,0.254-0.504c0-0.174-0.072-0.317-0.229-0.414
		c-0.102-0.067-0.365-0.156-0.785-0.26c-0.563-0.144-0.953-0.264-1.172-0.367c-0.219-0.105-0.381-0.248-0.498-0.436
		c-0.111-0.187-0.168-0.384-0.168-0.611c0-0.2,0.049-0.389,0.141-0.562c0.096-0.166,0.219-0.313,0.379-0.429
		c0.117-0.09,0.281-0.166,0.484-0.225c0.211-0.058,0.434-0.088,0.668-0.088c0.357,0,0.668,0.049,0.939,0.146
		c0.27,0.103,0.469,0.247,0.596,0.425c0.131,0.17,0.215,0.406,0.266,0.7l-0.748,0.103c-0.041-0.232-0.135-0.416-0.301-0.549
		c-0.166-0.13-0.393-0.195-0.693-0.195c-0.355,0-0.609,0.059-0.762,0.178c-0.146,0.117-0.223,0.25-0.223,0.406
		c0,0.104,0.033,0.19,0.088,0.271c0.066,0.082,0.166,0.152,0.301,0.206c0.076,0.026,0.307,0.09,0.678,0.196
		c0.545,0.146,0.928,0.263,1.139,0.355c0.219,0.09,0.387,0.229,0.508,0.402c0.119,0.178,0.186,0.396,0.186,0.658
		c0,0.261-0.072,0.5-0.227,0.729c-0.148,0.224-0.365,0.399-0.645,0.524c-0.281,0.121-0.602,0.189-0.959,0.189
		c-0.588,0-1.033-0.127-1.346-0.371S641.672,33.863,641.588,33.381"/>
	<polygon fill="#fff" points="648.825,34.742 648.825,28.471 653.354,28.471 653.354,29.216 649.655,29.216 649.655,31.129 
		653.12,31.129 653.12,31.861 649.655,31.861 649.655,33.996 653.499,33.996 653.499,34.742 	"/>
	<path fill="#fff" d="M657.518,34.742v-0.67c-0.354,0.509-0.83,0.771-1.438,0.771c-0.271,0-0.521-0.054-0.748-0.156
		c-0.234-0.106-0.406-0.231-0.523-0.388c-0.105-0.155-0.188-0.345-0.23-0.571c-0.035-0.151-0.051-0.389-0.051-0.723V30.2h0.773
		v2.516c0,0.401,0.008,0.675,0.039,0.813c0.051,0.203,0.152,0.359,0.314,0.477c0.152,0.112,0.346,0.17,0.578,0.17
		c0.23,0,0.445-0.058,0.645-0.174c0.207-0.12,0.35-0.281,0.434-0.486c0.086-0.201,0.125-0.494,0.125-0.884v-2.431h0.771v4.541
		H657.518z"/>
	<path fill="#fff" d="M659.407,34.742v-4.541h0.688v0.688c0.182-0.32,0.342-0.541,0.492-0.644
		c0.15-0.099,0.318-0.146,0.492-0.146c0.262,0,0.52,0.084,0.789,0.244l-0.264,0.713c-0.188-0.109-0.377-0.164-0.564-0.164
		c-0.162,0-0.316,0.049-0.453,0.151c-0.133,0.099-0.227,0.241-0.285,0.419c-0.086,0.271-0.127,0.572-0.127,0.9v2.379H659.407z"/>
	<path fill="#fff" d="M662.042,32.469c0-0.84,0.232-1.46,0.703-1.865c0.391-0.34,0.865-0.504,1.424-0.504
		c0.625,0,1.137,0.2,1.529,0.61c0.398,0.406,0.6,0.974,0.6,1.69c0,0.588-0.088,1.049-0.266,1.383
		c-0.178,0.335-0.43,0.593-0.768,0.781c-0.33,0.183-0.695,0.279-1.098,0.279c-0.637,0-1.148-0.21-1.541-0.615
		C662.239,33.822,662.042,33.234,662.042,32.469 M662.834,32.469c0,0.578,0.127,1.02,0.375,1.311
		c0.254,0.285,0.574,0.434,0.959,0.434s0.699-0.152,0.953-0.441c0.254-0.291,0.379-0.731,0.379-1.326
		c0-0.564-0.125-0.98-0.379-1.274c-0.256-0.289-0.574-0.438-0.953-0.438c-0.385,0-0.705,0.148-0.959,0.434
		C662.961,31.45,662.834,31.889,662.834,32.469"/>
	<path fill="#fff" d="M667.198,36.477v-6.274h0.699v0.589c0.162-0.236,0.352-0.406,0.559-0.52
		c0.209-0.113,0.463-0.172,0.76-0.172c0.387,0,0.727,0.098,1.025,0.299c0.293,0.199,0.52,0.481,0.672,0.843
		c0.145,0.36,0.225,0.763,0.225,1.19c0,0.469-0.082,0.889-0.25,1.254c-0.166,0.375-0.406,0.66-0.727,0.86
		c-0.318,0.196-0.652,0.3-1.002,0.3c-0.256,0-0.488-0.064-0.689-0.164c-0.205-0.109-0.371-0.246-0.504-0.412v2.207H667.198z
		 M667.895,32.494c0,0.58,0.113,1.018,0.354,1.293c0.234,0.281,0.523,0.425,0.859,0.425c0.342,0,0.639-0.147,0.879-0.433
		c0.24-0.291,0.361-0.746,0.361-1.352c0-0.576-0.113-1.01-0.354-1.3c-0.234-0.289-0.523-0.429-0.855-0.429
		c-0.324,0-0.615,0.152-0.863,0.455C668.02,31.463,667.895,31.909,667.895,32.494"/>
	<path fill="#fff" d="M675.167,33.279l0.797,0.094c-0.121,0.463-0.354,0.832-0.691,1.083c-0.346,0.255-0.773,0.39-1.305,0.39
		c-0.664,0-1.189-0.211-1.578-0.617c-0.387-0.414-0.58-0.984-0.58-1.721c0-0.763,0.193-1.357,0.59-1.779
		c0.393-0.42,0.9-0.629,1.529-0.629c0.605,0,1.102,0.205,1.488,0.619c0.379,0.41,0.576,0.994,0.576,1.739
		c0,0.05-0.002,0.116-0.002,0.206h-3.387c0.025,0.499,0.17,0.879,0.424,1.146c0.252,0.269,0.564,0.401,0.947,0.401
		c0.281,0,0.521-0.075,0.719-0.229C674.895,33.836,675.055,33.604,675.167,33.279 M672.649,32.035h2.531
		c-0.033-0.389-0.133-0.67-0.291-0.862c-0.248-0.293-0.564-0.444-0.955-0.444c-0.348,0-0.646,0.119-0.887,0.355
		C672.801,31.316,672.67,31.639,672.649,32.035"/>
	<path fill="#fff" d="M679.905,34.742v-0.67c-0.352,0.509-0.832,0.771-1.439,0.771c-0.27,0-0.516-0.054-0.75-0.156
		c-0.23-0.106-0.402-0.231-0.52-0.388c-0.109-0.155-0.189-0.345-0.232-0.571c-0.035-0.151-0.045-0.389-0.045-0.723V30.2h0.768v2.516
		c0,0.401,0.012,0.675,0.047,0.813c0.045,0.203,0.148,0.359,0.311,0.477c0.154,0.112,0.352,0.17,0.58,0.17
		c0.227,0,0.445-0.058,0.65-0.174c0.199-0.12,0.342-0.281,0.428-0.486c0.086-0.201,0.129-0.494,0.129-0.884v-2.431h0.766v4.541
		H679.905z"/>
	<path fill="#fff" d="M681.493,33.381l0.76-0.119c0.045,0.303,0.162,0.538,0.363,0.704c0.188,0.16,0.461,0.246,0.813,0.246
		c0.35,0,0.617-0.075,0.783-0.22c0.174-0.143,0.26-0.316,0.26-0.504c0-0.174-0.078-0.317-0.225-0.414
		c-0.107-0.067-0.371-0.156-0.791-0.26c-0.564-0.144-0.949-0.264-1.168-0.367c-0.225-0.105-0.389-0.248-0.496-0.436
		c-0.115-0.187-0.168-0.384-0.168-0.611c0-0.2,0.043-0.389,0.139-0.562c0.09-0.166,0.217-0.313,0.373-0.429
		c0.121-0.09,0.281-0.166,0.492-0.225c0.203-0.058,0.428-0.088,0.668-0.088c0.354,0,0.664,0.049,0.932,0.146
		c0.273,0.103,0.471,0.247,0.6,0.425c0.125,0.17,0.217,0.406,0.264,0.7l-0.752,0.103c-0.033-0.232-0.131-0.416-0.295-0.549
		c-0.168-0.13-0.4-0.195-0.693-0.195c-0.355,0-0.609,0.059-0.756,0.178c-0.154,0.117-0.229,0.25-0.229,0.406
		c0,0.104,0.031,0.19,0.092,0.271c0.064,0.082,0.164,0.152,0.301,0.206c0.072,0.026,0.305,0.09,0.68,0.196
		c0.545,0.146,0.924,0.263,1.139,0.355c0.215,0.09,0.381,0.229,0.504,0.402c0.121,0.178,0.186,0.396,0.186,0.658
		c0,0.261-0.076,0.5-0.225,0.729c-0.152,0.224-0.365,0.399-0.65,0.524c-0.279,0.121-0.596,0.189-0.953,0.189
		c-0.592,0-1.045-0.127-1.352-0.371C681.776,34.229,681.579,33.863,681.493,33.381"/>
	<polygon fill="#fff" points="617.194,45.243 617.194,38.977 621.725,38.977 621.725,39.715 618.026,39.715 618.026,41.634 
		621.489,41.634 621.489,42.374 618.026,42.374 618.026,44.507 621.874,44.507 621.874,45.243 	"/>
	<path fill="#fff" d="M622.612,43.882l0.76-0.116c0.047,0.305,0.16,0.541,0.359,0.705c0.191,0.16,0.465,0.24,0.813,0.24
		c0.357,0,0.617-0.07,0.791-0.213c0.168-0.146,0.252-0.313,0.252-0.51c0-0.172-0.072-0.313-0.225-0.409
		c-0.105-0.067-0.367-0.151-0.789-0.261c-0.559-0.143-0.951-0.266-1.17-0.368c-0.215-0.104-0.385-0.25-0.496-0.435
		c-0.113-0.179-0.168-0.389-0.168-0.611c0-0.195,0.047-0.387,0.139-0.557c0.094-0.174,0.219-0.316,0.379-0.433
		c0.115-0.09,0.283-0.16,0.488-0.224c0.207-0.063,0.432-0.094,0.666-0.094c0.354,0,0.668,0.053,0.938,0.156
		c0.268,0.102,0.469,0.236,0.6,0.419c0.125,0.175,0.213,0.404,0.262,0.7l-0.754,0.104c-0.035-0.232-0.129-0.416-0.293-0.549
		c-0.166-0.131-0.396-0.201-0.697-0.201c-0.354,0-0.605,0.063-0.76,0.178c-0.146,0.121-0.223,0.256-0.223,0.416
		c0,0.098,0.033,0.183,0.096,0.267c0.061,0.086,0.16,0.147,0.293,0.202c0.078,0.029,0.305,0.098,0.68,0.199
		c0.545,0.148,0.926,0.265,1.139,0.357c0.219,0.09,0.387,0.227,0.506,0.405c0.121,0.174,0.188,0.394,0.188,0.651
		c0,0.264-0.074,0.504-0.227,0.727c-0.146,0.229-0.365,0.402-0.646,0.525c-0.283,0.127-0.602,0.184-0.959,0.184
		c-0.588,0-1.033-0.119-1.346-0.365C622.893,44.729,622.696,44.368,622.612,43.882"/>
	<path fill="#fff" d="M628.973,44.555l0.111,0.68c-0.217,0.043-0.408,0.07-0.58,0.07c-0.283,0-0.498-0.049-0.65-0.138
		c-0.154-0.086-0.262-0.2-0.322-0.349c-0.064-0.145-0.094-0.441-0.094-0.9v-2.615h-0.564v-0.602h0.564v-1.119l0.762-0.469v1.588
		h0.773v0.602H628.2v2.65c0,0.219,0.018,0.365,0.041,0.429c0.027,0.058,0.072,0.11,0.137,0.146c0.061,0.037,0.146,0.051,0.262,0.051
		C628.723,44.578,628.834,44.568,628.973,44.555"/>
	<path fill="#fff" d="M629.717,45.243v-4.542h0.691v0.688c0.18-0.316,0.342-0.531,0.49-0.633
		c0.148-0.104,0.314-0.156,0.492-0.156c0.26,0,0.521,0.084,0.789,0.25l-0.268,0.713c-0.188-0.11-0.371-0.164-0.559-0.164
		c-0.17,0-0.32,0.049-0.453,0.15c-0.139,0.104-0.229,0.236-0.287,0.42c-0.088,0.275-0.127,0.575-0.127,0.895v2.38H629.717z"/>
	<path fill="#fff" d="M635.616,45.243v-0.671c-0.354,0.515-0.832,0.768-1.439,0.768c-0.268,0-0.518-0.049-0.75-0.15
		c-0.229-0.103-0.4-0.229-0.516-0.385s-0.191-0.348-0.24-0.57c-0.029-0.151-0.045-0.389-0.045-0.723v-2.811h0.771v2.521
		c0,0.401,0.016,0.672,0.043,0.811c0.051,0.201,0.15,0.361,0.309,0.479c0.156,0.11,0.348,0.17,0.584,0.17
		c0.229,0,0.445-0.06,0.648-0.175c0.199-0.118,0.344-0.28,0.432-0.481c0.08-0.205,0.123-0.506,0.123-0.889v-2.436h0.77v4.542
		H635.616z"/>
	<path fill="#fff" d="M639.19,44.555l0.111,0.68c-0.219,0.043-0.412,0.07-0.58,0.07c-0.281,0-0.5-0.049-0.656-0.138
		c-0.148-0.086-0.26-0.2-0.32-0.349c-0.063-0.145-0.094-0.441-0.094-0.9v-2.615h-0.563v-0.602h0.563v-1.119l0.768-0.469v1.588h0.771
		v0.602h-0.771v2.65c0,0.219,0.008,0.365,0.039,0.429c0.027,0.058,0.072,0.11,0.135,0.146c0.059,0.037,0.146,0.051,0.258,0.051
		C638.936,44.578,639.049,44.568,639.19,44.555"/>
	<path fill="#fff" d="M642.913,45.243v-0.671c-0.35,0.515-0.832,0.768-1.434,0.768c-0.271,0-0.52-0.049-0.754-0.15
		c-0.232-0.103-0.402-0.229-0.518-0.385c-0.111-0.156-0.193-0.348-0.236-0.57c-0.031-0.151-0.047-0.389-0.047-0.723v-2.811h0.77
		v2.521c0,0.401,0.014,0.672,0.045,0.811c0.055,0.201,0.152,0.361,0.311,0.479c0.152,0.11,0.354,0.17,0.582,0.17
		s0.445-0.06,0.648-0.175c0.201-0.118,0.346-0.28,0.432-0.481c0.08-0.205,0.121-0.506,0.121-0.889v-2.436h0.773v4.542H642.913z"/>
	<path fill="#fff" d="M644.801,45.243v-4.542h0.691v0.688c0.176-0.316,0.342-0.531,0.488-0.633
		c0.148-0.104,0.313-0.156,0.494-0.156c0.26,0,0.521,0.084,0.787,0.25L647,41.563c-0.189-0.11-0.377-0.164-0.563-0.164
		c-0.172,0-0.32,0.049-0.457,0.15c-0.135,0.104-0.229,0.236-0.283,0.42c-0.086,0.275-0.131,0.575-0.131,0.895v2.38H644.801z"/>
	<path fill="#fff" d="M650.684,44.682c-0.283,0.243-0.557,0.414-0.824,0.516c-0.26,0.095-0.545,0.144-0.844,0.144
		c-0.5,0-0.885-0.12-1.152-0.36c-0.27-0.244-0.398-0.558-0.398-0.934c0-0.223,0.045-0.427,0.152-0.613
		c0.102-0.18,0.23-0.326,0.395-0.438c0.166-0.116,0.352-0.196,0.555-0.25c0.148-0.044,0.379-0.08,0.684-0.12
		c0.625-0.066,1.082-0.16,1.369-0.264c0.008-0.106,0.008-0.17,0.008-0.2c0-0.313-0.072-0.532-0.215-0.665
		c-0.199-0.174-0.49-0.26-0.877-0.26c-0.365,0-0.631,0.066-0.807,0.188c-0.166,0.128-0.297,0.356-0.381,0.681L647.596,42
		c0.068-0.32,0.182-0.584,0.338-0.779c0.156-0.201,0.383-0.354,0.686-0.459c0.291-0.107,0.633-0.16,1.021-0.16
		s0.705,0.043,0.945,0.137c0.244,0.09,0.42,0.205,0.535,0.349c0.115,0.134,0.197,0.308,0.24,0.521
		c0.025,0.125,0.037,0.365,0.037,0.711v1.025c0,0.713,0.02,1.164,0.051,1.352c0.033,0.191,0.096,0.373,0.193,0.55h-0.803
		C650.756,45.081,650.708,44.895,650.684,44.682 M650.62,42.967c-0.275,0.107-0.697,0.206-1.256,0.29
		c-0.314,0.046-0.539,0.091-0.67,0.147c-0.129,0.059-0.236,0.143-0.307,0.255c-0.064,0.106-0.104,0.231-0.104,0.364
		c0,0.201,0.078,0.381,0.232,0.515c0.154,0.137,0.379,0.205,0.682,0.205c0.297,0,0.561-0.068,0.791-0.196
		c0.23-0.125,0.396-0.309,0.51-0.531c0.082-0.174,0.119-0.433,0.119-0.77v-0.279H650.62z"/>
	<path fill="#fff" d="M652.594,38.977h0.771v0.883h-0.771V38.977z M652.594,40.701h0.771v4.542h-0.771V40.701z"/>
	<path fill="#fff" d="M654.227,43.882l0.762-0.116c0.045,0.305,0.166,0.541,0.359,0.705c0.193,0.16,0.467,0.24,0.814,0.24
		c0.355,0,0.617-0.07,0.789-0.213c0.168-0.146,0.254-0.313,0.254-0.51c0-0.172-0.072-0.313-0.229-0.409
		c-0.102-0.067-0.367-0.151-0.779-0.261c-0.566-0.143-0.957-0.266-1.178-0.368c-0.217-0.104-0.383-0.25-0.494-0.435
		c-0.111-0.179-0.172-0.389-0.172-0.611c0-0.195,0.049-0.387,0.141-0.557c0.098-0.174,0.221-0.316,0.379-0.433
		c0.119-0.09,0.283-0.16,0.488-0.224c0.209-0.063,0.43-0.094,0.666-0.094c0.355,0,0.666,0.053,0.938,0.156
		c0.271,0.102,0.471,0.236,0.596,0.419c0.129,0.175,0.217,0.404,0.264,0.7l-0.746,0.104c-0.039-0.232-0.135-0.416-0.297-0.549
		c-0.172-0.131-0.396-0.201-0.701-0.201c-0.352,0-0.605,0.063-0.752,0.178c-0.152,0.121-0.23,0.256-0.23,0.416
		c0,0.098,0.035,0.183,0.104,0.267c0.055,0.086,0.154,0.147,0.287,0.202c0.078,0.029,0.309,0.098,0.68,0.199
		c0.545,0.148,0.926,0.265,1.145,0.357c0.213,0.09,0.381,0.227,0.506,0.405c0.127,0.174,0.18,0.394,0.18,0.651
		c0,0.264-0.072,0.504-0.225,0.727c-0.146,0.229-0.363,0.402-0.646,0.525c-0.279,0.127-0.602,0.184-0.959,0.184
		c-0.588,0-1.033-0.119-1.348-0.365C654.512,44.729,654.313,44.368,654.227,43.882"/>
	<path fill="#fff" d="M664.45,43.779l0.799,0.099c-0.125,0.464-0.363,0.824-0.695,1.082c-0.338,0.256-0.775,0.38-1.303,0.38
		c-0.666,0-1.191-0.205-1.578-0.609c-0.389-0.405-0.582-0.981-0.582-1.724c0-0.763,0.197-1.354,0.59-1.778
		c0.391-0.42,0.902-0.629,1.527-0.629c0.609,0,1.105,0.205,1.488,0.619c0.385,0.415,0.576,0.99,0.576,1.748c0,0.04,0,0.107,0,0.2
		h-3.387c0.025,0.501,0.17,0.886,0.426,1.151c0.246,0.26,0.564,0.393,0.941,0.393c0.287,0,0.523-0.07,0.729-0.219
		C664.176,44.342,664.338,44.104,664.45,43.779 M661.924,42.534h2.535c-0.033-0.38-0.133-0.669-0.291-0.854
		c-0.244-0.301-0.561-0.451-0.951-0.451c-0.354,0-0.65,0.121-0.893,0.356C662.084,41.825,661.952,42.143,661.924,42.534"/>
	<path fill="#fff" d="M671.59,45.243v-0.572c-0.291,0.446-0.711,0.669-1.27,0.669c-0.361,0-0.691-0.093-1-0.293
		c-0.299-0.201-0.533-0.479-0.705-0.839c-0.164-0.356-0.248-0.769-0.248-1.235c0-0.445,0.078-0.861,0.229-1.228
		c0.146-0.375,0.377-0.651,0.68-0.853c0.299-0.191,0.633-0.293,1.012-0.293c0.271,0,0.514,0.057,0.729,0.172
		c0.215,0.117,0.389,0.265,0.521,0.451v-2.248h0.766v6.269H671.59z M669.159,42.973c0,0.584,0.121,1.021,0.369,1.307
		c0.242,0.289,0.529,0.433,0.863,0.433c0.34,0,0.625-0.138,0.861-0.414c0.236-0.272,0.346-0.69,0.346-1.258
		c0-0.621-0.119-1.075-0.354-1.37c-0.24-0.286-0.531-0.434-0.885-0.434c-0.342,0-0.627,0.144-0.859,0.42
		C669.276,41.938,669.159,42.374,669.159,42.973"/>
	<path fill="#fff" d="M676.62,43.779l0.793,0.099c-0.121,0.464-0.355,0.824-0.695,1.082c-0.34,0.256-0.771,0.38-1.297,0.38
		c-0.666,0-1.191-0.205-1.58-0.609c-0.389-0.405-0.584-0.981-0.584-1.724c0-0.763,0.199-1.354,0.588-1.778
		c0.393-0.42,0.91-0.629,1.535-0.629c0.602,0,1.102,0.205,1.488,0.619c0.381,0.415,0.576,0.99,0.576,1.748
		c0,0.04-0.006,0.107-0.008,0.2h-3.385c0.029,0.501,0.172,0.886,0.422,1.151c0.254,0.26,0.57,0.393,0.947,0.393
		c0.287,0,0.523-0.07,0.725-0.219C676.344,44.342,676.502,44.104,676.62,43.779 M674.094,42.534h2.533
		c-0.031-0.38-0.131-0.669-0.293-0.854c-0.24-0.301-0.561-0.451-0.951-0.451c-0.354,0-0.648,0.121-0.887,0.356
		C674.25,41.825,674.12,42.143,674.094,42.534"/>
	<rect x="681.051" y="38.977" fill="#fff" width="0.828" height="6.268"/>
	<path fill="#fff" d="M683.245,45.243v-4.542h0.695v0.646c0.328-0.5,0.813-0.748,1.441-0.748c0.275,0,0.523,0.053,0.756,0.146
		c0.229,0.099,0.398,0.228,0.514,0.388c0.113,0.161,0.193,0.35,0.24,0.567c0.029,0.146,0.041,0.394,0.041,0.749v2.793h-0.768v-2.76
		c0-0.314-0.033-0.553-0.09-0.703c-0.063-0.159-0.164-0.281-0.322-0.375c-0.15-0.094-0.332-0.143-0.535-0.143
		c-0.33,0-0.609,0.106-0.846,0.315c-0.242,0.206-0.355,0.599-0.355,1.185v2.479h-0.771V45.243z"/>
	<path fill="#fff" d="M689.374,45.243l-1.73-4.542h0.818l0.971,2.722c0.107,0.294,0.201,0.597,0.293,0.914
		c0.068-0.241,0.16-0.526,0.285-0.864l1.006-2.771h0.795l-1.721,4.542H689.374z"/>
	<path fill="#fff" d="M695.592,43.779l0.799,0.099c-0.121,0.464-0.357,0.824-0.693,1.082c-0.34,0.256-0.775,0.38-1.303,0.38
		c-0.66,0-1.188-0.205-1.58-0.609c-0.385-0.405-0.584-0.981-0.584-1.724c0-0.763,0.199-1.354,0.592-1.778
		c0.393-0.42,0.904-0.629,1.525-0.629c0.609,0,1.107,0.205,1.49,0.619c0.385,0.415,0.576,0.99,0.576,1.748c0,0.04,0,0.107-0.002,0.2
		h-3.385c0.025,0.501,0.172,0.886,0.42,1.151c0.254,0.26,0.576,0.393,0.953,0.393c0.281,0,0.521-0.07,0.721-0.219
		C695.323,44.342,695.479,44.104,695.592,43.779 M693.073,42.534h2.533c-0.033-0.38-0.137-0.669-0.287-0.854
		c-0.246-0.301-0.564-0.451-0.959-0.451c-0.354,0-0.645,0.121-0.891,0.356C693.229,41.825,693.094,42.143,693.073,42.534"/>
	<path fill="#fff" d="M697.051,43.882l0.758-0.116c0.041,0.305,0.16,0.541,0.357,0.705c0.195,0.16,0.465,0.24,0.818,0.24
		s0.611-0.07,0.783-0.213c0.176-0.146,0.258-0.313,0.258-0.51c0-0.172-0.074-0.313-0.229-0.409
		c-0.104-0.067-0.365-0.151-0.785-0.261c-0.561-0.143-0.947-0.266-1.166-0.368c-0.225-0.104-0.391-0.25-0.5-0.435
		c-0.109-0.179-0.17-0.389-0.17-0.611c0-0.195,0.045-0.387,0.145-0.557c0.088-0.174,0.211-0.316,0.373-0.433
		c0.121-0.09,0.287-0.16,0.49-0.224s0.426-0.094,0.664-0.094c0.355,0,0.67,0.053,0.938,0.156c0.271,0.102,0.467,0.236,0.598,0.419
		c0.127,0.175,0.217,0.404,0.264,0.7l-0.75,0.104c-0.035-0.232-0.135-0.416-0.301-0.549c-0.162-0.131-0.395-0.201-0.691-0.201
		c-0.354,0-0.605,0.063-0.758,0.178c-0.15,0.121-0.229,0.256-0.229,0.416c0,0.098,0.035,0.183,0.096,0.267
		c0.064,0.086,0.158,0.147,0.295,0.202c0.078,0.029,0.303,0.098,0.68,0.199c0.547,0.148,0.93,0.265,1.143,0.357
		c0.213,0.09,0.379,0.227,0.502,0.405c0.123,0.174,0.188,0.394,0.188,0.651c0,0.264-0.074,0.504-0.227,0.727
		c-0.148,0.229-0.363,0.402-0.646,0.525c-0.285,0.127-0.598,0.184-0.959,0.184c-0.584,0-1.033-0.119-1.346-0.365
		C697.336,44.729,697.135,44.368,697.051,43.882"/>
	<path fill="#fff" d="M703.415,44.555l0.105,0.68c-0.211,0.043-0.408,0.07-0.578,0.07c-0.277,0-0.492-0.049-0.646-0.138
		c-0.156-0.086-0.268-0.2-0.328-0.349c-0.063-0.145-0.092-0.441-0.092-0.9v-2.615h-0.563v-0.602h0.563v-1.119l0.768-0.469v1.588
		h0.771v0.602h-0.771v2.65c0,0.219,0.008,0.365,0.039,0.429c0.023,0.058,0.072,0.11,0.129,0.146
		c0.064,0.037,0.152,0.051,0.268,0.051C703.163,44.578,703.276,44.568,703.415,44.555"/>
	<path fill="#fff" d="M704.172,38.977h0.768v0.883h-0.768V38.977z M704.172,40.701h0.768v4.542h-0.768V40.701z"/>
	<path fill="#fff" d="M706.11,45.243v-4.542h0.688v0.643c0.143-0.229,0.334-0.406,0.568-0.544c0.234-0.13,0.508-0.2,0.807-0.2
		c0.34,0,0.615,0.07,0.828,0.209c0.217,0.145,0.369,0.334,0.457,0.59c0.363-0.531,0.826-0.799,1.4-0.799
		c0.453,0,0.795,0.125,1.037,0.375c0.244,0.248,0.363,0.633,0.363,1.153v3.115h-0.764v-2.865c0-0.303-0.027-0.526-0.074-0.663
		c-0.051-0.136-0.143-0.242-0.271-0.326c-0.129-0.08-0.287-0.125-0.461-0.125c-0.322,0-0.59,0.106-0.797,0.321
		c-0.207,0.214-0.313,0.554-0.313,1.021v2.638h-0.773V42.29c0-0.339-0.061-0.595-0.186-0.765c-0.129-0.17-0.334-0.264-0.617-0.264
		c-0.217,0-0.414,0.059-0.596,0.18c-0.188,0.106-0.324,0.272-0.404,0.496c-0.082,0.217-0.123,0.539-0.123,0.949v2.355L706.11,45.243
		L706.11,45.243z"/>
	<path fill="#fff" d="M716.508,43.779l0.793,0.099c-0.121,0.464-0.354,0.824-0.693,1.082c-0.342,0.256-0.773,0.38-1.301,0.38
		c-0.662,0-1.188-0.205-1.582-0.609c-0.387-0.405-0.58-0.981-0.58-1.724c0-0.763,0.195-1.354,0.588-1.778
		c0.395-0.42,0.904-0.629,1.531-0.629c0.605,0,1.104,0.205,1.49,0.619c0.379,0.415,0.574,0.99,0.574,1.748c0,0.04,0,0.107-0.002,0.2
		h-3.387c0.027,0.501,0.17,0.886,0.422,1.151c0.256,0.26,0.57,0.393,0.947,0.393c0.285,0,0.523-0.07,0.723-0.219
		C716.235,44.342,716.389,44.104,716.508,43.779 M713.983,42.534h2.533c-0.033-0.38-0.133-0.669-0.287-0.854
		c-0.246-0.301-0.566-0.451-0.955-0.451c-0.354,0-0.65,0.121-0.889,0.356C714.139,41.825,714.006,42.143,713.983,42.534"/>
	<path fill="#fff" d="M718.266,45.243v-4.542h0.695v0.646c0.336-0.5,0.814-0.748,1.447-0.748c0.271,0,0.525,0.053,0.754,0.146
		c0.229,0.099,0.396,0.228,0.512,0.388c0.115,0.161,0.193,0.35,0.24,0.567c0.027,0.146,0.043,0.394,0.043,0.749v2.793h-0.77v-2.76
		c0-0.314-0.031-0.553-0.094-0.703c-0.059-0.159-0.16-0.281-0.313-0.375s-0.334-0.143-0.539-0.143c-0.326,0-0.607,0.106-0.848,0.315
		c-0.238,0.206-0.357,0.599-0.357,1.185v2.479h-0.771V45.243z"/>
	<path fill="#fff" d="M724.817,44.555l0.107,0.68c-0.213,0.043-0.404,0.07-0.578,0.07c-0.275,0-0.494-0.049-0.648-0.138
		c-0.152-0.086-0.26-0.2-0.326-0.349c-0.064-0.145-0.096-0.441-0.096-0.9v-2.615h-0.563v-0.602h0.563v-1.119l0.77-0.469v1.588h0.771
		v0.602h-0.771v2.65c0,0.219,0.014,0.365,0.043,0.429c0.025,0.058,0.066,0.11,0.131,0.146c0.059,0.037,0.148,0.051,0.262,0.051
		C724.563,44.578,724.68,44.568,724.817,44.555"/>
	<path fill="#fff" d="M725.284,42.973c0-0.845,0.232-1.464,0.697-1.865c0.391-0.336,0.867-0.508,1.432-0.508
		c0.623,0,1.133,0.205,1.527,0.61c0.4,0.411,0.596,0.978,0.596,1.7c0,0.578-0.084,1.043-0.258,1.374
		c-0.18,0.338-0.434,0.597-0.768,0.778c-0.338,0.188-0.703,0.276-1.098,0.276c-0.637,0-1.148-0.196-1.541-0.61
		C725.479,44.324,725.284,43.738,725.284,42.973 M726.075,42.973c0,0.584,0.123,1.016,0.379,1.307
		c0.254,0.289,0.572,0.433,0.959,0.433c0.379,0,0.697-0.144,0.951-0.433c0.256-0.291,0.383-0.735,0.383-1.328
		c0-0.563-0.127-0.991-0.385-1.281c-0.252-0.285-0.57-0.434-0.949-0.434c-0.387,0-0.705,0.144-0.959,0.434
		C726.198,41.959,726.075,42.393,726.075,42.973"/>
</g>
</svg>
